<?xml version="1.0" encoding="utf-8" standalone="no"?><!DOCTYPE svg PUBLIC "-//W3C//DTD SVG 1.1//EN" "http://www.w3.org/Graphics/SVG/1.1/DTD/svg11.dtd">
<svg preserveAspectRatio="xMinYMin meet" width="100%" height="100%" viewBox="0 0 937.500 562.500"  version="1.1" xmlns="http://www.w3.org/2000/svg" xmlns:xlink="http://www.w3.org/1999/xlink">
  <desc>Matlab Figure Converted by PLOT2SVG written by Juerg Schwizer</desc>
  <g id="topgroup">
  <rect x="0" y="0" width="937.500" height="562.500" fill="#ffffff" stroke="none" />
  <g id ="ID000000">
  <clipPath id="ID000001">
    <rect x="121.875" y="69.425" width="313.743" height="433.037"/>
  </clipPath>
      <polygon fill="#ffffff" fill-opacity="1.00" stroke="none" stroke-width="0.5pt" stroke-opacity="1.00" stroke-dasharray="none" points="121.875,502.461 435.618,502.461 435.618,69.425 121.875,69.425 "/>
      <polygon fill="#ffffff" fill-opacity="1.00" stroke="none" stroke-width="0.5pt" stroke-opacity="1.00" stroke-dasharray="none" points="121.875,69.425 435.618,69.425 435.618,69.425 121.875,69.425 "/>
      <polygon fill="#ffffff" fill-opacity="1.00" stroke="none" stroke-width="0.5pt" stroke-opacity="1.00" stroke-dasharray="none" points="121.875,502.461 121.875,502.461 121.875,69.425 121.875,69.425 "/>
    <g>
<g id="ID000002" clip-path="url(#ID000001)" >
      <polyline fill="none" stroke="#5394ff" stroke-width="1.0pt" stroke-dasharray="none" points="113.160,-22.124 114.903,64.504 116.646,89.086 118.389,137.168 120.132,172.020 121.875,199.938 123.618,229.538 125.361,237.483 127.104,110.824 128.847,256.081 130.590,301.894 132.333,298.099 134.076,299.017 135.819,333.659 137.562,345.354 139.305,361.192 141.048,360.195 142.791,375.070 144.534,369.053 146.277,358.607 148.020,380.518 149.763,382.412 151.506,376.219 153.249,392.244 154.992,387.572 156.735,373.767 158.478,223.775 160.221,372.082 161.964,406.604 163.707,405.703 165.450,397.647 167.193,414.913 168.936,412.690 170.679,412.151 172.422,417.100 174.165,416.570 175.908,430.343 177.652,425.415 179.395,424.066 181.138,430.172 182.881,428.965 184.624,429.245 186.367,429.089 188.110,420.765 189.853,370.934 191.596,426.091 193.339,435.774 195.082,446.012 196.825,444.251 198.568,445.900 200.311,446.861 202.054,442.097 203.797,451.295 205.540,450.448 207.283,449.154 209.026,448.991 210.769,454.428 212.512,449.292 214.255,456.705 215.998,451.184 217.741,459.611 219.484,452.550 221.227,436.812 222.970,460.326 224.713,460.648 226.456,460.220 228.199,459.581 229.942,454.659 231.685,458.592 233.428,456.217 235.171,460.488 236.914,464.906 238.657,464.512 240.400,464.955 242.143,462.517 243.886,464.107 245.629,466.629 247.372,466.933 249.115,464.616 250.858,430.023 252.601,135.249 254.344,451.617 256.087,467.426 257.830,469.965 259.573,467.588 261.316,468.999 263.059,470.734 264.802,468.945 266.545,467.200 268.288,467.563 270.031,472.012 271.774,471.184 273.517,467.275 275.260,469.847 277.003,471.063 278.746,470.497 280.489,471.752 282.232,470.086 283.975,450.484 285.719,470.115 287.462,472.114 289.205,471.572 290.948,475.065 292.691,473.858 294.434,471.518 296.177,472.282 297.920,470.556 299.663,474.797 301.406,471.483 303.149,470.896 304.892,472.513 306.635,469.786 308.378,469.781 310.121,472.145 311.864,470.362 313.607,470.795 315.350,450.369 317.093,465.872 318.836,470.598 320.579,468.273 322.322,469.548 324.065,468.295 325.808,470.357 327.551,467.096 329.294,463.195 331.037,468.339 332.780,463.498 334.523,463.873 336.266,462.515 338.009,462.737 339.752,465.090 341.495,462.850 343.238,464.231 344.981,459.581 346.724,445.056 348.467,457.474 350.210,452.507 351.953,457.137 353.696,446.026 355.439,452.483 357.182,448.761 358.925,447.137 360.668,448.500 362.411,445.318 364.154,456.125 365.897,457.324 367.640,452.059 369.383,454.242 371.126,458.106 372.869,456.707 374.612,453.620 376.355,456.402 378.098,448.998 379.841,458.465 381.584,460.371 383.327,463.985 385.070,455.300 386.813,462.682 388.556,468.695 390.299,468.963 392.042,471.506 393.786,467.990 395.529,476.094 397.272,472.828 399.015,473.407 400.758,473.900 402.501,476.011 404.244,475.998 405.987,476.228 407.730,471.633 409.473,447.085 411.216,478.626 412.959,479.869 414.702,479.149 416.445,478.737 418.188,478.898 419.931,481.638 421.674,479.585 423.417,477.570 425.160,478.769 426.903,481.235 428.646,481.448 430.389,482.216 432.132,480.491 433.875,483.559 435.618,481.647 437.361,481.914 439.104,483.650 440.847,477.320 442.590,482.203 444.333,483.780 446.076,482.402 447.819,486.480 449.562,481.416 451.305,484.742 453.048,487.661 454.791,482.917 456.534,484.623 458.277,482.141 460.020,482.323 461.763,484.668 463.506,488.544 465.249,486.897 466.992,482.258 468.735,482.415 470.478,480.815 472.221,484.384 473.964,483.627 475.707,484.643 477.450,481.643 479.193,484.751 480.936,485.762 482.679,484.361 484.422,487.531 486.165,487.352 487.908,484.863 489.651,486.522 491.394,488.089 493.137,488.246 494.880,485.540 496.623,487.413 498.366,487.050 500.109,488.482 501.853,485.983 503.596,486.696 505.339,489.527 507.082,486.566 508.825,487.590 510.568,488.817 512.311,488.475 514.054,486.592 515.797,488.872 517.540,487.258 519.283,485.591 521.026,486.246 522.769,488.246 524.512,489.680 526.255,487.251 527.998,488.818 529.741,490.563 531.484,489.863 533.227,490.051 534.970,489.089 536.713,489.018 538.456,488.428 540.199,491.381 541.942,488.612 543.685,488.746 545.428,491.264 547.171,488.005 548.914,490.481 550.657,491.994 552.400,490.965 554.143,490.469 555.886,489.881 557.629,491.187 559.372,490.754 561.115,491.030 562.858,490.874 564.601,490.579 566.344,485.490 568.087,490.963 569.830,493.042 571.573,492.966 573.316,491.836 575.059,492.489 576.802,491.946 578.545,492.828 580.288,492.631 582.031,492.509 583.774,493.113 585.517,493.261 587.260,492.628 589.003,491.431 590.746,490.546 592.489,492.762 594.232,492.050 595.975,492.424 597.718,492.309 599.461,492.743 601.204,493.070 602.947,492.813 604.690,493.338 606.433,492.276 608.176,493.780 609.920,492.457 611.663,493.572 613.406,492.731 615.149,493.043 616.892,493.654 618.635,493.878 620.378,493.245 622.121,493.352 623.864,493.589 625.607,493.036 627.350,492.209 629.093,493.805 630.836,493.169 632.579,491.955 634.322,491.459 636.065,492.598 637.808,492.853 639.551,494.343 641.294,494.080 643.037,494.007 644.780,492.511 646.523,492.406 648.266,494.151 650.009,493.855 651.752,493.227 653.495,494.379 655.238,493.445 656.981,494.520 658.724,493.952 660.467,494.123 662.210,494.448 663.953,493.156 665.696,493.798 667.439,493.072 669.182,492.559 670.925,492.507 672.668,493.229 674.411,492.948 676.154,493.917 677.897,494.155 679.640,494.322 681.383,494.118 683.126,495.042 684.869,494.000 686.612,493.918 688.355,493.025 690.098,494.178 691.841,494.595 693.584,494.977 695.327,493.803 697.070,493.239 698.813,493.195 700.556,493.583 702.299,494.260 704.042,492.478 705.785,493.681 707.528,494.147 709.271,494.590 711.014,495.301 712.757,493.113 714.500,492.995 716.243,494.410 717.987,495.665 719.730,494.001 721.473,493.260 723.216,492.762 724.959,492.346 726.702,489.866 728.445,494.733 730.188,494.522 731.931,494.765 733.674,494.559 735.417,495.539 737.160,494.272 738.903,493.417 740.646,495.636 742.389,493.862 744.132,492.834 745.875,495.200 747.618,494.334 749.361,493.645 751.104,495.664 752.847,493.677 754.590,493.598 756.333,494.664 758.076,494.901 759.819,492.220 761.562,493.222 763.305,492.852 765.048,493.523 766.791,491.906 768.534,493.101 770.277,493.330 772.020,495.038 773.763,493.766 775.506,494.453 777.249,493.301 778.992,492.855 780.735,493.987 782.478,492.359 784.221,493.805 785.964,494.130 787.707,491.920 789.450,490.415 791.193,491.911 792.936,493.024 794.679,492.820 796.422,493.004 798.165,491.433 799.908,491.967 801.651,494.868 803.394,494.221 805.137,492.196 806.880,494.267 808.623,496.136 810.366,495.525 812.109,494.789 813.852,495.706 815.595,494.525 817.338,494.371 819.081,493.449 820.824,492.089 822.567,495.680 824.310,492.663 826.054,493.883 827.797,491.875 829.540,492.511 831.283,490.743 833.026,493.137 834.769,494.761 836.512,493.464 838.255,494.931 839.998,493.812 841.741,496.539 843.484,497.151 845.227,492.431 846.970,494.482 848.713,495.480 850.456,493.529 852.199,493.914 853.942,493.814 855.685,495.948 857.428,495.317 859.171,491.603 860.914,492.189 "/>
<g>
</g>
</g>
<g id="ID000003" clip-path="url(#ID000001)" >
      <polygon fill="#a6c7ff" fill-opacity="1.00" stroke="none" stroke-width="0.5pt" stroke-opacity="1.00" stroke-dasharray="none" points="113.160,73.284 114.903,126.145 116.646,152.317 118.389,181.355 120.132,211.001 121.875,229.802 123.618,252.278 125.361,262.587 127.104,145.153 128.847,273.523 130.590,317.434 132.333,317.822 134.076,317.800 135.819,349.037 137.562,356.482 139.305,369.984 141.048,372.731 142.791,383.526 144.534,378.472 146.277,370.476 148.020,388.082 149.763,390.072 151.506,386.592 153.249,402.996 154.992,396.657 156.735,381.163 158.478,243.175 160.221,381.980 161.964,414.964 163.707,412.773 165.450,406.359 167.193,421.354 168.936,419.049 170.679,418.884 172.422,422.775 174.165,422.890 175.908,434.906 177.652,430.415 179.395,429.465 181.138,434.858 182.881,433.158 184.624,434.252 186.367,433.355 188.110,427.030 189.853,379.766 191.596,430.823 193.339,441.130 195.082,448.818 196.825,448.120 198.568,449.078 200.311,450.957 202.054,445.981 203.797,454.702 205.540,453.505 207.283,452.667 209.026,452.653 210.769,456.970 212.512,452.249 214.255,460.181 215.998,453.659 217.741,462.191 219.484,455.515 221.227,441.702 222.970,463.017 224.713,462.887 226.456,463.193 228.199,461.638 229.942,459.461 231.685,462.208 233.428,458.436 235.171,462.627 236.914,467.068 238.657,467.227 240.400,467.912 242.143,464.871 243.886,466.158 245.629,468.439 247.372,468.770 249.115,466.682 250.858,436.829 252.601,194.348 254.344,455.036 256.087,469.120 257.830,471.901 259.573,469.843 261.316,470.804 263.059,472.354 264.802,470.785 266.545,469.677 268.288,469.656 270.031,473.848 271.774,473.016 273.517,469.470 275.260,471.618 277.003,473.045 278.746,472.373 280.489,473.565 282.232,472.067 283.975,453.964 285.719,472.559 287.462,474.580 289.205,474.071 290.948,476.920 292.691,475.976 294.434,474.727 296.177,475.132 297.920,473.417 299.663,477.208 301.406,474.786 303.149,474.019 304.892,475.026 306.635,473.018 308.378,474.419 310.121,475.042 311.864,473.617 313.607,473.951 315.350,454.915 317.093,470.774 318.836,474.833 320.579,472.946 322.322,473.809 324.065,472.544 325.808,474.159 327.551,474.037 329.294,472.069 331.037,472.410 332.780,469.131 334.523,470.245 336.266,468.908 338.009,469.408 339.752,469.413 341.495,467.725 343.238,470.090 344.981,464.670 346.724,450.504 348.467,463.012 350.210,459.814 351.953,463.700 353.696,454.998 355.439,459.020 357.182,457.837 358.925,455.309 360.668,456.572 362.411,453.085 364.154,462.224 365.897,462.658 367.640,461.141 369.383,461.312 371.126,464.324 372.869,463.348 374.612,463.066 376.355,463.207 378.098,456.820 379.841,466.460 381.584,470.065 383.327,469.864 385.070,468.208 386.813,471.599 388.556,472.771 390.299,473.642 392.042,476.403 393.786,472.449 395.529,479.298 397.272,477.037 399.015,477.144 400.758,477.111 402.501,479.604 404.244,480.243 405.987,479.362 407.730,475.217 409.473,454.029 411.216,481.365 412.959,482.564 414.702,482.432 416.445,481.674 418.188,482.625 419.931,483.695 421.674,482.610 423.417,481.282 425.160,481.817 426.903,484.570 428.646,484.084 430.389,485.651 432.132,484.588 433.875,486.012 435.618,485.032 437.361,484.903 439.104,485.896 440.847,481.302 442.590,485.958 444.333,487.970 446.076,486.506 447.819,488.627 449.562,485.783 451.305,488.356 453.048,489.492 454.791,487.158 456.534,487.692 458.277,487.268 460.020,488.857 461.763,488.920 463.506,490.406 465.249,489.459 466.992,488.430 468.735,487.503 470.478,487.881 472.221,488.660 473.964,487.540 475.707,489.796 477.450,488.579 479.193,488.331 480.936,489.688 482.679,488.792 484.422,490.631 486.165,490.677 487.908,489.739 489.651,490.243 491.394,490.910 493.137,490.817 494.880,490.487 496.623,490.965 498.366,491.425 500.109,491.080 501.853,490.183 503.596,490.347 505.339,491.933 507.082,491.795 508.825,491.130 510.568,491.993 512.311,491.811 514.054,491.835 515.797,491.597 517.540,491.327 519.283,491.232 521.026,492.491 522.769,492.109 524.512,492.193 526.255,492.143 527.998,492.292 529.741,493.102 531.484,492.442 533.227,492.954 534.970,491.674 536.713,492.267 538.456,492.923 540.199,494.210 541.942,493.673 543.685,493.075 545.428,492.929 547.171,492.133 548.914,493.170 550.657,493.340 552.400,492.522 554.143,492.938 555.886,492.783 557.629,493.628 559.372,493.123 561.115,492.715 562.858,493.404 564.601,492.636 566.344,488.596 568.087,492.873 569.830,494.304 571.573,494.541 573.316,493.653 575.059,494.142 576.802,493.882 578.545,494.505 580.288,494.386 582.031,493.913 583.774,494.466 585.517,494.288 587.260,494.287 589.003,493.522 590.746,493.295 592.489,494.579 594.232,494.669 595.975,494.406 597.718,494.393 599.461,494.542 601.204,494.897 602.947,494.221 604.690,495.458 606.433,494.179 608.176,495.542 609.920,494.333 611.663,494.833 613.406,495.344 615.149,495.326 616.892,495.241 618.635,495.291 620.378,495.132 622.121,494.852 623.864,495.042 625.607,495.031 627.350,494.891 629.093,495.134 630.836,495.059 632.579,494.406 634.322,493.931 636.065,495.031 637.808,495.226 639.551,495.945 641.294,495.362 643.037,495.288 644.780,495.424 646.523,494.828 648.266,495.488 650.009,495.750 651.752,495.334 653.495,495.692 655.238,494.760 656.981,495.569 658.724,494.986 660.467,495.142 662.210,495.656 663.953,494.996 665.696,495.263 667.439,495.073 669.182,494.683 670.925,495.147 672.668,495.662 674.411,495.453 676.154,495.910 677.897,495.818 679.640,495.918 681.383,495.774 683.126,496.602 684.869,495.833 686.612,496.179 688.355,496.215 690.098,496.002 691.841,495.657 693.584,496.601 695.327,495.846 697.070,495.953 698.813,496.133 700.556,496.463 702.299,496.630 704.042,495.294 705.785,495.813 707.528,496.302 709.271,496.486 711.014,496.978 712.757,495.818 714.500,495.778 716.243,496.174 717.987,497.071 719.730,496.449 721.473,495.939 723.216,494.962 724.959,496.037 726.702,495.151 728.445,497.019 730.188,497.177 731.931,497.406 733.674,496.839 735.417,497.045 737.160,496.612 738.903,496.546 740.646,497.122 742.389,496.481 744.132,497.218 745.875,496.972 747.618,496.618 749.361,496.899 751.104,498.051 752.847,496.865 754.590,496.668 756.333,497.531 758.076,497.271 759.819,496.061 761.562,496.493 763.305,496.810 765.048,496.786 766.791,496.522 768.534,496.474 770.277,496.966 772.020,497.141 773.763,496.629 775.506,497.767 777.249,496.632 778.992,497.079 780.735,497.499 782.478,496.437 784.221,497.280 785.964,497.262 787.707,496.770 789.450,495.966 791.193,496.906 792.936,496.851 794.679,496.678 796.422,496.795 798.165,496.088 799.908,496.495 801.651,497.613 803.394,497.429 805.137,496.515 806.880,497.457 808.623,498.257 810.366,497.991 812.109,498.088 813.852,498.071 815.595,497.411 817.338,497.702 819.081,497.052 820.824,496.495 822.567,497.909 824.310,497.478 826.054,498.141 827.797,496.580 829.540,497.391 831.283,497.267 833.026,497.154 834.769,497.660 836.512,497.794 838.255,497.746 839.998,497.804 841.741,498.591 843.484,498.586 845.227,496.912 846.970,497.733 848.713,497.884 850.456,497.919 852.199,497.788 853.942,497.849 855.685,498.239 857.428,497.523 859.171,497.228 860.914,497.188 860.914,487.190 859.171,485.979 857.428,493.111 855.685,493.658 853.942,489.778 852.199,490.040 850.456,489.140 848.713,493.076 846.970,491.231 845.227,487.951 843.484,495.716 841.741,494.487 839.998,489.820 838.255,492.116 836.512,489.134 834.769,491.862 833.026,489.120 831.283,484.219 829.540,487.630 827.797,487.169 826.054,489.625 824.310,487.849 822.567,493.451 820.824,487.682 819.081,489.846 817.338,491.041 815.595,491.638 813.852,493.341 812.109,491.489 810.366,493.058 808.623,494.015 806.880,491.078 805.137,487.876 803.394,491.013 801.651,492.124 799.908,487.439 798.165,486.778 796.422,489.213 794.679,488.961 792.936,489.196 791.193,486.917 789.450,484.864 787.707,487.070 785.964,490.999 784.221,490.330 782.478,488.281 780.735,490.476 778.992,488.630 777.249,489.969 775.506,491.139 773.763,490.903 772.020,492.935 770.277,489.693 768.534,489.728 766.791,487.291 765.048,490.261 763.305,488.895 761.562,489.952 759.819,488.380 758.076,492.531 756.333,491.798 754.590,490.529 752.847,490.489 751.104,493.277 749.361,490.391 747.618,492.049 745.875,493.428 744.132,488.451 742.389,491.243 740.646,494.151 738.903,490.288 737.160,491.931 735.417,494.032 733.674,492.279 731.931,492.124 730.188,491.867 728.445,492.447 726.702,484.582 724.959,488.655 723.216,490.561 721.473,490.582 719.730,491.553 717.987,494.260 716.243,492.647 714.500,490.212 712.757,490.407 711.014,493.624 709.271,492.695 707.528,491.993 705.785,491.550 704.042,489.663 702.299,491.890 700.556,490.702 698.813,490.257 697.070,490.526 695.327,491.760 693.584,493.352 691.841,493.532 690.098,492.353 688.355,489.836 686.612,491.657 684.869,492.167 683.126,493.482 681.383,492.461 679.640,492.725 677.897,492.492 676.154,491.925 674.411,490.442 672.668,490.797 670.925,489.868 669.182,490.436 667.439,491.071 665.696,492.333 663.953,491.316 662.210,493.240 660.467,493.104 658.724,492.917 656.981,493.470 655.238,492.131 653.495,493.065 651.752,491.120 650.009,491.959 648.266,492.815 646.523,489.984 644.780,489.597 643.037,492.726 641.294,492.797 639.551,492.741 637.808,490.480 636.065,490.165 634.322,488.986 632.579,489.504 630.836,491.278 629.093,492.475 627.350,489.528 625.607,491.040 623.864,492.137 622.121,491.851 620.378,491.359 618.635,492.464 616.892,492.066 615.149,490.759 613.406,490.118 611.663,492.311 609.920,490.581 608.176,492.018 606.433,490.374 604.690,491.217 602.947,491.404 601.204,491.243 599.461,490.944 597.718,490.226 595.975,490.442 594.232,489.432 592.489,490.946 590.746,487.797 589.003,489.341 587.260,490.969 585.517,492.235 583.774,491.761 582.031,491.105 580.288,490.875 578.545,491.150 576.802,490.011 575.059,490.835 573.316,490.018 571.573,491.390 569.830,491.780 568.087,489.053 566.344,482.384 564.601,488.523 562.858,488.345 561.115,489.346 559.372,488.385 557.629,488.745 555.886,486.979 554.143,488.000 552.400,489.408 550.657,490.649 548.914,487.792 547.171,483.877 545.428,489.598 543.685,484.417 541.942,483.550 540.199,488.551 538.456,483.932 536.713,485.770 534.970,486.505 533.227,487.148 531.484,487.285 529.741,488.024 527.998,485.344 526.255,482.360 524.512,487.167 522.769,484.383 521.026,480.000 519.283,479.949 517.540,483.189 515.797,486.148 514.054,481.349 512.311,485.139 510.568,485.642 508.825,484.050 507.082,481.338 505.339,487.121 503.596,483.046 501.853,481.783 500.109,485.883 498.366,482.676 496.623,483.860 494.880,480.593 493.137,485.674 491.394,485.267 489.651,482.802 487.908,479.987 486.165,484.027 484.422,484.432 482.679,479.930 480.936,481.837 479.193,481.172 477.450,474.706 475.707,479.489 473.964,479.714 472.221,480.107 470.478,473.750 468.735,477.327 466.992,476.087 465.249,484.335 463.506,486.681 461.763,480.417 460.020,475.790 458.277,477.015 456.534,481.553 454.791,478.676 453.048,485.830 451.305,481.127 449.562,477.050 447.819,484.332 446.076,478.297 444.333,479.590 442.590,478.449 440.847,473.337 439.104,481.405 437.361,478.925 435.618,478.262 433.875,481.106 432.132,476.393 430.389,478.782 428.646,478.812 426.903,477.899 425.160,475.721 423.417,473.858 421.674,476.559 419.931,479.581 418.188,475.172 416.445,475.800 414.702,475.866 412.959,477.175 411.216,475.887 409.473,440.140 407.730,468.048 405.987,473.093 404.244,471.753 402.501,472.417 400.758,470.688 399.015,469.671 397.272,468.619 395.529,472.890 393.786,463.532 392.042,466.608 390.299,464.284 388.556,464.618 386.813,453.765 385.070,442.391 383.327,458.105 381.584,450.677 379.841,450.471 378.098,441.177 376.355,449.598 374.612,444.173 372.869,450.065 371.126,451.889 369.383,447.172 367.640,442.977 365.897,451.990 364.154,450.027 362.411,437.551 360.668,440.429 358.925,438.966 357.182,439.684 355.439,445.946 353.696,437.054 351.953,450.573 350.210,445.201 348.467,451.935 346.724,439.608 344.981,454.493 343.238,458.372 341.495,457.975 339.752,460.767 338.009,456.066 336.266,456.122 334.523,457.502 332.780,457.864 331.037,464.268 329.294,454.321 327.551,460.155 325.808,466.555 324.065,464.045 322.322,465.288 320.579,463.600 318.836,466.364 317.093,460.969 315.350,445.822 313.607,467.639 311.864,467.107 310.121,469.249 308.378,465.143 306.635,466.554 304.892,470.001 303.149,467.773 301.406,468.181 299.663,472.385 297.920,467.694 296.177,469.432 294.434,468.309 292.691,471.741 290.948,473.210 289.205,469.073 287.462,469.649 285.719,467.670 283.975,447.004 282.232,468.104 280.489,469.939 278.746,468.621 277.003,469.080 275.260,468.076 273.517,465.079 271.774,469.352 270.031,470.176 268.288,465.470 266.545,464.723 264.802,467.104 263.059,469.114 261.316,467.194 259.573,465.332 257.830,468.028 256.087,465.731 254.344,448.198 252.601,76.150 250.858,423.218 249.115,462.550 247.372,465.095 245.629,464.820 243.886,462.055 242.143,460.162 240.400,461.999 238.657,461.797 236.914,462.744 235.171,458.349 233.428,453.998 231.685,454.976 229.942,449.858 228.199,457.525 226.456,457.247 224.713,458.409 222.970,457.635 221.227,431.922 219.484,449.586 217.741,457.031 215.998,448.709 214.255,453.229 212.512,446.335 210.769,451.885 209.026,445.329 207.283,445.640 205.540,447.391 203.797,447.889 202.054,438.213 200.311,442.766 198.568,442.722 196.825,440.382 195.082,443.207 193.339,430.417 191.596,421.358 189.853,362.102 188.110,414.500 186.367,424.822 184.624,424.239 182.881,424.773 181.138,425.486 179.395,418.666 177.652,420.416 175.908,425.779 174.165,410.249 172.422,411.426 170.679,405.418 168.936,406.331 167.193,408.472 165.450,388.935 163.707,398.633 161.964,398.244 160.221,362.185 158.478,204.375 156.735,366.371 154.992,378.486 153.249,381.493 151.506,365.846 149.763,374.751 148.020,372.954 146.277,346.739 144.534,359.634 142.791,366.613 141.048,347.658 139.305,352.400 137.562,334.226 135.819,318.280 134.076,280.234 132.333,278.376 130.590,286.354 128.847,238.639 127.104,76.495 125.361,212.379 123.618,206.799 121.875,170.075 120.132,133.039 118.389,92.981 116.646,25.855 114.903,2.863 113.160,-117.532 "/>
</g>
<g id="ID000004" clip-path="url(#ID000001)" >
      <polyline fill="none" stroke="#5394ff" stroke-width="1.0pt" stroke-dasharray="none" points="113.160,-22.124 114.903,64.504 116.646,89.086 118.389,137.168 120.132,172.020 121.875,199.938 123.618,229.538 125.361,237.483 127.104,110.824 128.847,256.081 130.590,301.894 132.333,298.099 134.076,299.017 135.819,333.659 137.562,345.354 139.305,361.192 141.048,360.195 142.791,375.070 144.534,369.053 146.277,358.607 148.020,380.518 149.763,382.412 151.506,376.219 153.249,392.244 154.992,387.572 156.735,373.767 158.478,223.775 160.221,372.082 161.964,406.604 163.707,405.703 165.450,397.647 167.193,414.913 168.936,412.690 170.679,412.151 172.422,417.100 174.165,416.570 175.908,430.343 177.652,425.415 179.395,424.066 181.138,430.172 182.881,428.965 184.624,429.245 186.367,429.089 188.110,420.765 189.853,370.934 191.596,426.091 193.339,435.774 195.082,446.012 196.825,444.251 198.568,445.900 200.311,446.861 202.054,442.097 203.797,451.295 205.540,450.448 207.283,449.154 209.026,448.991 210.769,454.428 212.512,449.292 214.255,456.705 215.998,451.184 217.741,459.611 219.484,452.550 221.227,436.812 222.970,460.326 224.713,460.648 226.456,460.220 228.199,459.581 229.942,454.659 231.685,458.592 233.428,456.217 235.171,460.488 236.914,464.906 238.657,464.512 240.400,464.955 242.143,462.517 243.886,464.107 245.629,466.629 247.372,466.933 249.115,464.616 250.858,430.023 252.601,135.249 254.344,451.617 256.087,467.426 257.830,469.965 259.573,467.588 261.316,468.999 263.059,470.734 264.802,468.945 266.545,467.200 268.288,467.563 270.031,472.012 271.774,471.184 273.517,467.275 275.260,469.847 277.003,471.063 278.746,470.497 280.489,471.752 282.232,470.086 283.975,450.484 285.719,470.115 287.462,472.114 289.205,471.572 290.948,475.065 292.691,473.858 294.434,471.518 296.177,472.282 297.920,470.556 299.663,474.797 301.406,471.483 303.149,470.896 304.892,472.513 306.635,469.786 308.378,469.781 310.121,472.145 311.864,470.362 313.607,470.795 315.350,450.369 317.093,465.872 318.836,470.598 320.579,468.273 322.322,469.548 324.065,468.295 325.808,470.357 327.551,467.096 329.294,463.195 331.037,468.339 332.780,463.498 334.523,463.873 336.266,462.515 338.009,462.737 339.752,465.090 341.495,462.850 343.238,464.231 344.981,459.581 346.724,445.056 348.467,457.474 350.210,452.507 351.953,457.137 353.696,446.026 355.439,452.483 357.182,448.761 358.925,447.137 360.668,448.500 362.411,445.318 364.154,456.125 365.897,457.324 367.640,452.059 369.383,454.242 371.126,458.106 372.869,456.707 374.612,453.620 376.355,456.402 378.098,448.998 379.841,458.465 381.584,460.371 383.327,463.985 385.070,455.300 386.813,462.682 388.556,468.695 390.299,468.963 392.042,471.506 393.786,467.990 395.529,476.094 397.272,472.828 399.015,473.407 400.758,473.900 402.501,476.011 404.244,475.998 405.987,476.228 407.730,471.633 409.473,447.085 411.216,478.626 412.959,479.869 414.702,479.149 416.445,478.737 418.188,478.898 419.931,481.638 421.674,479.585 423.417,477.570 425.160,478.769 426.903,481.235 428.646,481.448 430.389,482.216 432.132,480.491 433.875,483.559 435.618,481.647 437.361,481.914 439.104,483.650 440.847,477.320 442.590,482.203 444.333,483.780 446.076,482.402 447.819,486.480 449.562,481.416 451.305,484.742 453.048,487.661 454.791,482.917 456.534,484.623 458.277,482.141 460.020,482.323 461.763,484.668 463.506,488.544 465.249,486.897 466.992,482.258 468.735,482.415 470.478,480.815 472.221,484.384 473.964,483.627 475.707,484.643 477.450,481.643 479.193,484.751 480.936,485.762 482.679,484.361 484.422,487.531 486.165,487.352 487.908,484.863 489.651,486.522 491.394,488.089 493.137,488.246 494.880,485.540 496.623,487.413 498.366,487.050 500.109,488.482 501.853,485.983 503.596,486.696 505.339,489.527 507.082,486.566 508.825,487.590 510.568,488.817 512.311,488.475 514.054,486.592 515.797,488.872 517.540,487.258 519.283,485.591 521.026,486.246 522.769,488.246 524.512,489.680 526.255,487.251 527.998,488.818 529.741,490.563 531.484,489.863 533.227,490.051 534.970,489.089 536.713,489.018 538.456,488.428 540.199,491.381 541.942,488.612 543.685,488.746 545.428,491.264 547.171,488.005 548.914,490.481 550.657,491.994 552.400,490.965 554.143,490.469 555.886,489.881 557.629,491.187 559.372,490.754 561.115,491.030 562.858,490.874 564.601,490.579 566.344,485.490 568.087,490.963 569.830,493.042 571.573,492.966 573.316,491.836 575.059,492.489 576.802,491.946 578.545,492.828 580.288,492.631 582.031,492.509 583.774,493.113 585.517,493.261 587.260,492.628 589.003,491.431 590.746,490.546 592.489,492.762 594.232,492.050 595.975,492.424 597.718,492.309 599.461,492.743 601.204,493.070 602.947,492.813 604.690,493.338 606.433,492.276 608.176,493.780 609.920,492.457 611.663,493.572 613.406,492.731 615.149,493.043 616.892,493.654 618.635,493.878 620.378,493.245 622.121,493.352 623.864,493.589 625.607,493.036 627.350,492.209 629.093,493.805 630.836,493.169 632.579,491.955 634.322,491.459 636.065,492.598 637.808,492.853 639.551,494.343 641.294,494.080 643.037,494.007 644.780,492.511 646.523,492.406 648.266,494.151 650.009,493.855 651.752,493.227 653.495,494.379 655.238,493.445 656.981,494.520 658.724,493.952 660.467,494.123 662.210,494.448 663.953,493.156 665.696,493.798 667.439,493.072 669.182,492.559 670.925,492.507 672.668,493.229 674.411,492.948 676.154,493.917 677.897,494.155 679.640,494.322 681.383,494.118 683.126,495.042 684.869,494.000 686.612,493.918 688.355,493.025 690.098,494.178 691.841,494.595 693.584,494.977 695.327,493.803 697.070,493.239 698.813,493.195 700.556,493.583 702.299,494.260 704.042,492.478 705.785,493.681 707.528,494.147 709.271,494.590 711.014,495.301 712.757,493.113 714.500,492.995 716.243,494.410 717.987,495.665 719.730,494.001 721.473,493.260 723.216,492.762 724.959,492.346 726.702,489.866 728.445,494.733 730.188,494.522 731.931,494.765 733.674,494.559 735.417,495.539 737.160,494.272 738.903,493.417 740.646,495.636 742.389,493.862 744.132,492.834 745.875,495.200 747.618,494.334 749.361,493.645 751.104,495.664 752.847,493.677 754.590,493.598 756.333,494.664 758.076,494.901 759.819,492.220 761.562,493.222 763.305,492.852 765.048,493.523 766.791,491.906 768.534,493.101 770.277,493.330 772.020,495.038 773.763,493.766 775.506,494.453 777.249,493.301 778.992,492.855 780.735,493.987 782.478,492.359 784.221,493.805 785.964,494.130 787.707,491.920 789.450,490.415 791.193,491.911 792.936,493.024 794.679,492.820 796.422,493.004 798.165,491.433 799.908,491.967 801.651,494.868 803.394,494.221 805.137,492.196 806.880,494.267 808.623,496.136 810.366,495.525 812.109,494.789 813.852,495.706 815.595,494.525 817.338,494.371 819.081,493.449 820.824,492.089 822.567,495.680 824.310,492.663 826.054,493.883 827.797,491.875 829.540,492.511 831.283,490.743 833.026,493.137 834.769,494.761 836.512,493.464 838.255,494.931 839.998,493.812 841.741,496.539 843.484,497.151 845.227,492.431 846.970,494.482 848.713,495.480 850.456,493.529 852.199,493.914 853.942,493.814 855.685,495.948 857.428,495.317 859.171,491.603 860.914,492.189 "/>
<g>
</g>
</g>
    </g>
    <g>
      <polyline fill="none" stroke="#262626" stroke-width="0.5pt" stroke-dasharray="none" points="127.104,502.461 127.104,498.131 "/>
      <polyline fill="none" stroke="#262626" stroke-width="0.5pt" stroke-dasharray="none" points="158.478,502.461 158.478,498.131 "/>
      <polyline fill="none" stroke="#262626" stroke-width="0.5pt" stroke-dasharray="none" points="189.853,502.461 189.853,498.131 "/>
      <polyline fill="none" stroke="#262626" stroke-width="0.5pt" stroke-dasharray="none" points="221.227,502.461 221.227,498.131 "/>
      <polyline fill="none" stroke="#262626" stroke-width="0.5pt" stroke-dasharray="none" points="252.601,502.461 252.601,498.131 "/>
      <polyline fill="none" stroke="#262626" stroke-width="0.5pt" stroke-dasharray="none" points="283.975,502.461 283.975,498.131 "/>
      <polyline fill="none" stroke="#262626" stroke-width="0.5pt" stroke-dasharray="none" points="315.350,502.461 315.350,498.131 "/>
      <polyline fill="none" stroke="#262626" stroke-width="0.5pt" stroke-dasharray="none" points="346.724,502.461 346.724,498.131 "/>
      <polyline fill="none" stroke="#262626" stroke-width="0.5pt" stroke-dasharray="none" points="378.098,502.461 378.098,498.131 "/>
      <polyline fill="none" stroke="#262626" stroke-width="0.5pt" stroke-dasharray="none" points="409.473,502.461 409.473,498.131 "/>
      <polyline fill="none" stroke="#262626" stroke-width="0.5pt" stroke-dasharray="none" points="121.875,502.461 435.618,502.461 "/>
  <g transform="translate(127.104,522.184)">
    <g transform="rotate(-0.0)">
      <text x="0.000" y="0.000" font-family="Helvetica" text-anchor="middle" font-size="9pt" fill="#262626" >1.2</text>
    </g>
  </g>
  <g transform="translate(158.478,522.184)">
    <g transform="rotate(-0.0)">
      <text x="0.000" y="0.000" font-family="Helvetica" text-anchor="middle" font-size="9pt" fill="#262626" >2.4</text>
    </g>
  </g>
  <g transform="translate(189.853,522.184)">
    <g transform="rotate(-0.0)">
      <text x="0.000" y="0.000" font-family="Helvetica" text-anchor="middle" font-size="9pt" fill="#262626" >3.6</text>
    </g>
  </g>
  <g transform="translate(221.227,522.184)">
    <g transform="rotate(-0.0)">
      <text x="0.000" y="0.000" font-family="Helvetica" text-anchor="middle" font-size="9pt" fill="#262626" >4.8</text>
    </g>
  </g>
  <g transform="translate(252.601,522.184)">
    <g transform="rotate(-0.0)">
      <text x="0.000" y="0.000" font-family="Helvetica" text-anchor="middle" font-size="9pt" fill="#262626" >6</text>
    </g>
  </g>
  <g transform="translate(283.975,522.184)">
    <g transform="rotate(-0.0)">
      <text x="0.000" y="0.000" font-family="Helvetica" text-anchor="middle" font-size="9pt" fill="#262626" >7.2</text>
    </g>
  </g>
  <g transform="translate(315.350,522.184)">
    <g transform="rotate(-0.0)">
      <text x="0.000" y="0.000" font-family="Helvetica" text-anchor="middle" font-size="9pt" fill="#262626" >8.4</text>
    </g>
  </g>
  <g transform="translate(346.724,522.184)">
    <g transform="rotate(-0.0)">
      <text x="0.000" y="0.000" font-family="Helvetica" text-anchor="middle" font-size="9pt" fill="#262626" >9.6</text>
    </g>
  </g>
  <g transform="translate(378.098,522.184)">
    <g transform="rotate(-0.0)">
      <text x="0.000" y="0.000" font-family="Helvetica" text-anchor="middle" font-size="9pt" fill="#262626" >10.8</text>
    </g>
  </g>
  <g transform="translate(409.473,522.184)">
    <g transform="rotate(-0.0)">
      <text x="0.000" y="0.000" font-family="Helvetica" text-anchor="middle" font-size="9pt" fill="#262626" >12</text>
    </g>
  </g>
      <polyline fill="none" stroke="#262626" stroke-width="0.5pt" stroke-dasharray="none" points="121.875,502.461 126.205,502.461 "/>
      <polyline fill="none" stroke="#262626" stroke-width="0.5pt" stroke-dasharray="none" points="121.875,430.288 126.205,430.288 "/>
      <polyline fill="none" stroke="#262626" stroke-width="0.5pt" stroke-dasharray="none" points="121.875,358.116 126.205,358.116 "/>
      <polyline fill="none" stroke="#262626" stroke-width="0.5pt" stroke-dasharray="none" points="121.875,285.943 126.205,285.943 "/>
      <polyline fill="none" stroke="#262626" stroke-width="0.5pt" stroke-dasharray="none" points="121.875,213.770 126.205,213.770 "/>
      <polyline fill="none" stroke="#262626" stroke-width="0.5pt" stroke-dasharray="none" points="121.875,141.597 126.205,141.597 "/>
      <polyline fill="none" stroke="#262626" stroke-width="0.5pt" stroke-dasharray="none" points="121.875,69.425 126.205,69.425 "/>
      <polyline fill="none" stroke="#262626" stroke-width="0.5pt" stroke-dasharray="none" points="121.875,502.461 121.875,69.425 "/>
  <g transform="translate(115.600,506.680)">
    <g transform="rotate(-0.0)">
      <text x="0.000" y="0.000" font-family="Helvetica" text-anchor="end" font-size="9pt" fill="#262626" >0</text>
    </g>
  </g>
  <g transform="translate(115.600,434.507)">
    <g transform="rotate(-0.0)">
      <text x="0.000" y="0.000" font-family="Helvetica" text-anchor="end" font-size="9pt" fill="#262626" >2</text>
    </g>
  </g>
  <g transform="translate(115.600,362.334)">
    <g transform="rotate(-0.0)">
      <text x="0.000" y="0.000" font-family="Helvetica" text-anchor="end" font-size="9pt" fill="#262626" >4</text>
    </g>
  </g>
  <g transform="translate(115.600,290.162)">
    <g transform="rotate(-0.0)">
      <text x="0.000" y="0.000" font-family="Helvetica" text-anchor="end" font-size="9pt" fill="#262626" >6</text>
    </g>
  </g>
  <g transform="translate(115.600,217.989)">
    <g transform="rotate(-0.0)">
      <text x="0.000" y="0.000" font-family="Helvetica" text-anchor="end" font-size="9pt" fill="#262626" >8</text>
    </g>
  </g>
  <g transform="translate(115.600,145.816)">
    <g transform="rotate(-0.0)">
      <text x="0.000" y="0.000" font-family="Helvetica" text-anchor="end" font-size="9pt" fill="#262626" >10</text>
    </g>
  </g>
  <g transform="translate(115.600,73.643)">
    <g transform="rotate(-0.0)">
      <text x="0.000" y="0.000" font-family="Helvetica" text-anchor="end" font-size="9pt" fill="#262626" >12</text>
    </g>
  </g>
      <polyline fill="none" stroke="#262626" stroke-width="0.5pt" stroke-dasharray="none" points="121.875,502.461 121.875,498.131 "/>
      <polyline fill="none" stroke="#262626" stroke-width="0.5pt" stroke-dasharray="none" points="121.875,502.461 121.875,498.131 "/>
      <polyline fill="none" stroke="#262626" stroke-width="0.5pt" stroke-dasharray="none" points="121.875,502.461 121.875,498.131 "/>
      <polyline fill="none" stroke="#262626" stroke-width="0.5pt" stroke-dasharray="none" points="121.875,502.461 121.875,502.461 "/>
    </g>
  </g>
  <g id ="ID000005">
  <clipPath id="ID000006">
    <rect x="0.000" y="-562.500" width="937.500" height="562.500"/>
  </clipPath>
    <g>
<g id="ID000007" >
  <g transform="translate(468.750,34.031)">
    <g transform="rotate(-0.0)">
      <text x="0.000" y="0.000" font-family="Helvetica" text-anchor="middle" font-size="13pt" fill="#000000" >Signal-to-Noise Ratio Spectrum</text>
    </g>
  </g>
</g>
    </g>
  </g>
  <g id ="ID000008">
  <clipPath id="ID000009">
    <rect x="534.695" y="69.425" width="313.743" height="433.037"/>
  </clipPath>
      <polygon fill="#ffffff" fill-opacity="1.00" stroke="none" stroke-width="0.5pt" stroke-opacity="1.00" stroke-dasharray="none" points="534.695,502.461 848.438,502.461 848.438,69.425 534.695,69.425 "/>
      <polygon fill="#ffffff" fill-opacity="1.00" stroke="none" stroke-width="0.5pt" stroke-opacity="1.00" stroke-dasharray="none" points="534.695,69.425 848.438,69.425 848.438,69.425 534.695,69.425 "/>
      <polygon fill="#ffffff" fill-opacity="1.00" stroke="none" stroke-width="0.5pt" stroke-opacity="1.00" stroke-dasharray="none" points="534.695,502.461 534.695,502.461 534.695,69.425 534.695,69.425 "/>
    <g>
<g id="ID000010" clip-path="url(#ID000009)" >
      <polyline fill="none" stroke="#5394ff" stroke-width="1.0pt" stroke-dasharray="none" points="525.980,53.277 527.723,117.808 529.466,135.509 531.209,224.597 532.952,158.546 534.695,207.354 536.438,269.604 538.181,251.467 539.924,157.846 541.667,274.535 543.410,297.038 545.153,299.409 546.896,326.548 548.639,345.435 550.382,380.755 552.125,375.182 553.868,373.059 555.611,384.578 557.354,381.953 559.097,371.115 560.840,391.901 562.583,402.876 564.326,396.690 566.069,410.061 567.812,400.064 569.555,399.677 571.298,320.886 573.041,404.592 574.784,412.895 576.527,409.321 578.270,405.268 580.013,416.155 581.756,417.905 583.499,420.951 585.242,432.949 586.985,433.059 588.728,435.496 590.471,434.081 592.214,438.049 593.957,436.186 595.700,443.994 597.443,441.997 599.186,445.368 600.929,437.719 602.672,411.062 604.415,438.445 606.158,438.876 607.901,441.486 609.644,445.208 611.387,446.218 613.130,453.573 614.873,453.459 616.616,451.485 618.359,458.573 620.102,455.292 621.845,459.881 623.588,462.181 625.331,459.226 627.074,463.545 628.817,461.153 630.560,459.765 632.304,455.999 634.047,441.765 635.790,461.451 637.533,466.009 639.276,464.182 641.019,464.184 642.762,453.618 644.505,459.744 646.248,467.161 647.991,466.511 649.734,468.835 651.477,470.090 653.220,469.184 654.963,467.101 656.706,471.063 658.449,470.846 660.192,469.724 661.935,471.316 663.678,444.572 665.421,273.826 667.164,461.062 668.907,472.673 670.650,474.649 672.393,472.054 674.136,473.707 675.879,474.127 677.622,475.206 679.365,473.474 681.108,475.029 682.851,475.140 684.594,472.709 686.337,476.905 688.080,476.039 689.823,476.069 691.566,474.480 693.309,472.648 695.052,472.816 696.795,464.798 698.538,472.429 700.281,473.152 702.024,474.406 703.767,472.360 705.510,473.355 707.253,475.584 708.996,471.788 710.739,473.934 712.482,473.378 714.225,475.961 715.968,473.760 717.711,472.534 719.454,475.197 721.197,474.069 722.940,475.432 724.683,472.685 726.426,470.826 728.169,457.666 729.912,468.791 731.655,467.648 733.398,468.157 735.141,471.701 736.884,468.801 738.627,463.726 740.371,465.794 742.114,468.457 743.857,464.187 745.600,462.729 747.343,463.969 749.086,468.683 750.829,468.426 752.572,464.407 754.315,467.318 756.058,466.324 757.801,464.774 759.544,454.527 761.287,466.146 763.030,461.660 764.773,457.774 766.516,453.485 768.259,459.256 770.002,460.325 771.745,453.197 773.488,451.698 775.231,455.760 776.974,458.224 778.717,456.644 780.460,454.852 782.203,454.966 783.946,466.903 785.689,468.721 787.432,467.865 789.175,465.893 790.918,463.110 792.661,462.554 794.404,466.673 796.147,462.576 797.890,467.238 799.633,468.922 801.376,470.978 803.119,477.317 804.862,476.598 806.605,478.355 808.348,478.740 810.091,476.904 811.834,479.831 813.577,479.443 815.320,478.639 817.063,481.079 818.806,480.352 820.549,477.146 822.292,447.555 824.035,478.841 825.778,480.663 827.521,480.232 829.264,481.904 831.007,483.377 832.750,483.047 834.493,482.662 836.236,482.681 837.979,485.344 839.722,484.061 841.465,484.197 843.208,485.892 844.951,484.484 846.694,486.633 848.438,486.590 850.181,486.328 851.924,487.029 853.667,484.421 855.410,487.698 857.153,486.474 858.896,486.897 860.639,487.230 862.382,485.560 864.125,486.972 865.868,486.419 867.611,488.032 869.354,487.499 871.097,488.461 872.840,487.266 874.583,488.991 876.326,488.334 878.069,487.592 879.812,487.861 881.555,487.265 883.298,488.775 885.041,489.881 886.784,489.581 888.527,488.318 890.270,490.075 892.013,489.168 893.756,489.707 895.499,489.093 897.242,489.349 898.985,490.182 900.728,488.764 902.471,487.439 904.214,489.143 905.957,490.116 907.700,490.426 909.443,489.636 911.186,488.810 912.929,489.380 914.672,489.903 916.415,489.873 918.158,490.533 919.901,489.879 921.644,491.314 923.387,491.084 925.130,490.500 926.873,490.880 928.616,491.487 930.359,489.750 932.102,491.415 933.845,491.703 935.588,490.782 937.331,491.412 939.074,490.613 940.817,490.230 942.560,491.260 944.303,491.240 946.046,491.180 947.789,490.539 949.532,492.589 951.275,491.944 953.018,490.659 954.761,491.671 956.504,491.116 958.248,492.032 959.991,489.816 961.734,492.604 963.477,491.987 965.220,492.651 966.963,492.975 968.706,492.224 970.449,492.217 972.192,491.902 973.935,492.855 975.678,493.343 977.421,493.162 979.164,487.780 980.907,491.404 982.650,492.429 984.393,491.461 986.136,492.947 987.879,491.767 989.622,493.288 991.365,493.082 993.108,493.085 994.851,493.471 996.594,493.285 998.337,492.840 1000.080,494.602 1001.823,494.129 1003.566,493.745 1005.309,493.905 1007.052,494.179 1008.795,494.171 1010.538,493.056 1012.281,493.747 1014.024,493.564 1015.767,494.254 1017.510,493.203 1019.253,494.127 1020.996,494.018 1022.739,493.972 1024.482,494.231 1026.225,494.231 1027.968,494.811 1029.711,494.147 1031.454,493.814 1033.197,494.902 1034.940,495.062 1036.683,494.223 1038.426,495.044 1040.169,494.694 1041.912,495.105 1043.655,495.153 1045.398,494.705 1047.141,494.293 1048.884,493.900 1050.627,494.198 1052.370,494.994 1054.113,495.091 1055.856,495.116 1057.599,494.285 1059.342,495.397 1061.085,495.684 1062.828,494.588 1064.571,494.196 1066.315,495.702 1068.058,495.004 1069.801,494.896 1071.544,494.654 1073.287,495.319 1075.030,494.695 1076.773,494.546 1078.516,495.380 1080.259,494.578 1082.002,495.022 1083.745,495.194 1085.488,495.321 1087.231,495.894 1088.974,495.928 1090.717,495.926 1092.460,495.190 1094.203,494.782 1095.946,495.346 1097.689,495.102 1099.432,495.272 1101.175,495.388 1102.918,495.817 1104.661,495.150 1106.404,495.280 1108.147,495.941 1109.890,494.643 1111.633,494.875 1113.376,495.047 1115.119,494.835 1116.862,495.395 1118.605,495.111 1120.348,495.082 1122.091,496.195 1123.834,496.867 1125.577,495.627 1127.320,495.357 1129.063,496.032 1130.806,495.945 1132.549,496.087 1134.292,496.095 1136.035,494.708 1137.778,495.757 1139.521,495.049 1141.264,496.321 1143.007,495.940 1144.750,495.527 1146.493,495.387 1148.236,496.084 1149.979,495.486 1151.722,494.435 1153.465,495.968 1155.208,495.551 1156.951,495.942 1158.694,497.132 1160.437,496.561 1162.180,496.507 1163.923,497.774 1165.666,496.548 1167.409,495.397 1169.152,497.011 1170.895,496.326 1172.638,496.337 1174.382,496.484 1176.125,496.278 1177.868,495.607 1179.611,495.546 1181.354,496.268 1183.097,496.505 1184.840,496.692 1186.583,496.680 1188.326,496.020 1190.069,495.813 1191.812,497.068 1193.555,496.479 1195.298,496.345 1197.041,495.445 1198.784,495.186 1200.527,496.476 1202.270,497.228 1204.013,496.416 1205.756,496.867 1207.499,497.080 1209.242,497.254 1210.985,496.538 1212.728,496.651 1214.471,496.360 1216.214,497.029 1217.957,496.414 1219.700,496.404 1221.443,497.230 1223.186,496.591 1224.929,497.608 1226.672,497.185 1228.415,496.876 1230.158,497.554 1231.901,497.171 1233.644,495.798 1235.387,497.017 1237.130,497.831 1238.873,497.858 1240.616,496.851 1242.359,497.571 1244.102,496.585 1245.845,496.854 1247.588,496.502 1249.331,496.704 1251.074,497.239 1252.817,496.701 1254.560,497.561 1256.303,497.834 1258.046,497.401 1259.789,497.128 1261.532,497.765 1263.275,495.977 1265.018,496.754 1266.761,497.296 1268.504,497.874 1270.247,497.782 1271.990,497.241 1273.733,496.916 "/>
<g>
</g>
</g>
<g id="ID000011" clip-path="url(#ID000009)" >
      <polygon fill="#a6c7ff" fill-opacity="1.00" stroke="none" stroke-width="0.5pt" stroke-opacity="1.00" stroke-dasharray="none" points="525.980,121.603 527.723,159.978 529.466,176.898 531.209,250.692 532.952,205.436 534.695,246.165 536.438,292.529 538.181,274.417 539.924,190.999 541.667,290.733 543.410,313.698 545.153,321.528 546.896,340.558 548.639,363.966 550.382,390.660 552.125,387.447 553.868,383.405 555.611,392.935 557.354,391.280 559.097,384.518 560.840,400.673 562.583,409.427 564.326,406.277 566.069,417.885 567.812,409.663 569.555,407.004 571.298,336.299 573.041,410.456 574.784,420.631 576.527,415.980 578.270,412.822 580.013,422.529 581.756,423.672 583.499,426.354 585.242,438.384 586.985,438.236 588.728,439.920 590.471,438.999 592.214,442.245 593.957,440.910 595.700,447.600 597.443,447.144 599.186,449.272 600.929,442.328 602.672,418.225 604.415,443.067 606.158,443.014 607.901,447.026 609.644,450.081 611.387,450.367 613.130,457.160 614.873,456.292 616.616,454.989 618.359,462.090 620.102,458.432 621.845,463.101 623.588,464.085 625.331,462.094 627.074,465.433 628.817,463.918 630.560,462.662 632.304,459.514 634.047,447.581 635.790,463.993 637.533,468.465 639.276,467.305 641.019,466.826 642.762,461.804 644.505,464.347 646.248,469.219 647.991,468.167 649.734,470.830 651.477,472.181 653.220,471.733 654.963,469.469 656.706,472.860 658.449,472.180 660.192,471.600 661.935,473.056 663.678,449.932 665.421,312.146 667.164,463.158 668.907,474.696 670.650,475.929 672.393,474.278 674.136,475.310 675.879,475.608 677.622,476.890 679.365,475.270 681.108,476.888 682.851,477.014 684.594,474.660 686.337,478.368 688.080,477.741 689.823,477.463 691.566,476.089 693.309,474.372 695.052,474.640 696.795,467.488 698.538,474.384 700.281,475.131 702.024,475.799 703.767,474.072 705.510,475.716 707.253,478.386 708.996,474.397 710.739,476.934 712.482,476.091 714.225,478.689 715.968,476.500 717.711,475.108 719.454,477.442 721.197,476.413 722.940,477.808 724.683,475.858 726.426,473.618 728.169,461.631 729.912,472.621 731.655,473.266 733.398,474.801 735.141,477.346 736.884,476.440 738.627,474.552 740.371,477.590 742.114,475.375 743.857,476.663 745.600,473.612 747.343,473.315 749.086,473.978 750.829,473.771 752.572,469.513 754.315,472.279 756.058,471.026 757.801,470.567 759.544,460.688 761.287,469.888 763.030,466.925 764.773,464.445 766.516,461.285 768.259,464.398 770.002,465.784 771.745,460.741 773.488,466.722 775.231,470.181 776.974,465.865 778.717,464.827 780.460,467.010 782.203,467.798 783.946,472.125 785.689,472.685 787.432,472.215 789.175,471.429 790.918,467.956 792.661,469.706 794.404,471.980 796.147,472.930 797.890,472.817 799.633,473.604 801.376,475.218 803.119,480.350 804.862,480.437 806.605,481.407 808.348,481.547 810.091,480.949 811.834,482.843 813.577,482.101 815.320,481.150 817.063,483.440 818.806,482.640 820.549,480.078 822.292,458.625 824.035,481.402 825.778,483.713 827.521,482.670 829.264,484.475 831.007,485.684 832.750,485.169 834.493,484.470 836.236,484.820 837.979,487.149 839.722,487.216 841.465,486.047 843.208,487.711 844.951,486.561 846.694,488.268 848.438,488.341 850.181,487.966 851.924,488.335 853.667,486.930 855.410,489.226 857.153,488.278 858.896,488.789 860.639,489.441 862.382,487.750 864.125,488.975 865.868,488.457 867.611,489.705 869.354,489.190 871.097,489.801 872.840,489.288 874.583,490.707 876.326,490.265 878.069,489.687 879.812,489.852 881.555,490.039 883.298,490.445 885.041,490.987 886.784,491.107 888.527,490.135 890.270,491.685 892.013,490.894 893.756,491.463 895.499,490.976 897.242,491.543 898.985,491.842 900.728,490.812 902.471,491.050 904.214,491.558 905.957,491.641 907.700,492.064 909.443,492.051 911.186,490.896 912.929,490.986 914.672,491.810 916.415,491.676 918.158,492.515 919.901,491.521 921.644,492.569 923.387,492.489 925.130,492.107 926.873,493.162 928.616,493.241 930.359,491.923 932.102,492.395 933.845,493.517 935.588,492.951 937.331,492.532 939.074,492.421 940.817,492.354 942.560,493.010 944.303,493.128 946.046,492.776 947.789,492.635 949.532,493.988 951.275,493.510 953.018,493.395 954.761,493.688 956.504,493.068 958.248,493.429 959.991,491.939 961.734,494.268 963.477,493.477 965.220,494.353 966.963,494.126 968.706,493.406 970.449,494.165 972.192,493.703 973.935,494.720 975.678,494.664 977.421,494.708 979.164,490.544 980.907,493.141 982.650,493.620 984.393,493.969 986.136,494.308 987.879,493.622 989.622,494.411 991.365,494.506 993.108,494.422 994.851,494.804 996.594,494.827 998.337,494.504 1000.080,495.406 1001.823,495.319 1003.566,495.000 1005.309,495.143 1007.052,495.446 1008.795,495.538 1010.538,494.362 1012.281,495.206 1014.024,495.158 1015.767,495.275 1017.510,494.575 1019.253,495.492 1020.996,495.502 1022.739,495.764 1024.482,495.279 1026.225,495.994 1027.968,495.904 1029.711,495.284 1031.454,495.344 1033.197,495.950 1034.940,495.985 1036.683,495.139 1038.426,495.813 1040.169,495.722 1041.912,495.934 1043.655,496.096 1045.398,495.756 1047.141,495.639 1048.884,495.663 1050.627,495.472 1052.370,496.055 1054.113,496.195 1055.856,496.370 1057.599,495.523 1059.342,496.503 1061.085,496.715 1062.828,496.114 1064.571,496.135 1066.315,496.669 1068.058,495.950 1069.801,496.060 1071.544,496.347 1073.287,496.399 1075.030,496.255 1076.773,495.950 1078.516,496.413 1080.259,495.847 1082.002,496.042 1083.745,496.267 1085.488,496.278 1087.231,496.735 1088.974,497.050 1090.717,496.831 1092.460,496.237 1094.203,496.209 1095.946,496.756 1097.689,496.298 1099.432,496.496 1101.175,496.673 1102.918,496.919 1104.661,496.815 1106.404,496.739 1108.147,497.152 1109.890,496.566 1111.633,496.640 1113.376,496.655 1115.119,496.835 1116.862,496.898 1118.605,496.549 1120.348,497.068 1122.091,497.243 1123.834,497.874 1125.577,496.844 1127.320,497.070 1129.063,497.343 1130.806,497.124 1132.549,497.310 1134.292,497.479 1136.035,496.734 1137.778,497.384 1139.521,496.822 1141.264,497.582 1143.007,497.335 1144.750,497.545 1146.493,496.909 1148.236,497.344 1149.979,497.353 1151.722,496.936 1153.465,497.544 1155.208,497.220 1156.951,497.560 1158.694,497.949 1160.437,497.614 1162.180,497.572 1163.923,498.492 1165.666,498.036 1167.409,497.604 1169.152,497.896 1170.895,498.088 1172.638,497.822 1174.382,497.776 1176.125,497.810 1177.868,497.434 1179.611,497.538 1181.354,497.890 1183.097,497.985 1184.840,498.118 1186.583,498.026 1188.326,497.905 1190.069,497.371 1191.812,498.319 1193.555,498.081 1195.298,498.044 1197.041,498.141 1198.784,498.072 1200.527,498.387 1202.270,498.300 1204.013,498.113 1205.756,498.103 1207.499,498.635 1209.242,498.383 1210.985,498.706 1212.728,498.239 1214.471,498.205 1216.214,498.223 1217.957,498.018 1219.700,497.927 1221.443,498.454 1223.186,498.220 1224.929,498.947 1226.672,498.661 1228.415,498.250 1230.158,498.629 1231.901,498.700 1233.644,498.303 1235.387,498.699 1237.130,499.013 1238.873,498.885 1240.616,498.396 1242.359,498.670 1244.102,498.763 1245.845,498.435 1247.588,498.686 1249.331,498.957 1251.074,498.852 1252.817,498.844 1254.560,498.847 1256.303,499.065 1258.046,498.875 1259.789,498.733 1261.532,498.677 1263.275,498.200 1265.018,498.474 1266.761,498.788 1268.504,498.951 1270.247,498.655 1271.990,498.664 1273.733,498.650 1273.733,495.181 1271.990,495.819 1270.247,496.910 1268.504,496.798 1266.761,495.805 1265.018,495.033 1263.275,493.755 1261.532,496.853 1259.789,495.522 1258.046,495.927 1256.303,496.603 1254.560,496.275 1252.817,494.557 1251.074,495.625 1249.331,494.452 1247.588,494.318 1245.845,495.273 1244.102,494.407 1242.359,496.472 1240.616,495.306 1238.873,496.830 1237.130,496.649 1235.387,495.334 1233.644,493.293 1231.901,495.642 1230.158,496.480 1228.415,495.502 1226.672,495.709 1224.929,496.269 1223.186,494.962 1221.443,496.006 1219.700,494.881 1217.957,494.809 1216.214,495.835 1214.471,494.515 1212.728,495.063 1210.985,494.369 1209.242,496.124 1207.499,495.524 1205.756,495.630 1204.013,494.719 1202.270,496.156 1200.527,494.564 1198.784,492.299 1197.041,492.749 1195.298,494.646 1193.555,494.878 1191.812,495.816 1190.069,494.255 1188.326,494.134 1186.583,495.334 1184.840,495.266 1183.097,495.025 1181.354,494.645 1179.611,493.554 1177.868,493.780 1176.125,494.747 1174.382,495.192 1172.638,494.853 1170.895,494.564 1169.152,496.125 1167.409,493.189 1165.666,495.059 1163.923,497.056 1162.180,495.443 1160.437,495.509 1158.694,496.315 1156.951,494.324 1155.208,493.882 1153.465,494.392 1151.722,491.934 1149.979,493.619 1148.236,494.824 1146.493,493.866 1144.750,493.509 1143.007,494.545 1141.264,495.060 1139.521,493.276 1137.778,494.131 1136.035,492.682 1134.292,494.711 1132.549,494.864 1130.806,494.766 1129.063,494.722 1127.320,493.643 1125.577,494.410 1123.834,495.859 1122.091,495.148 1120.348,493.095 1118.605,493.673 1116.862,493.892 1115.119,492.835 1113.376,493.440 1111.633,493.110 1109.890,492.720 1108.147,494.730 1106.404,493.822 1104.661,493.485 1102.918,494.715 1101.175,494.103 1099.432,494.047 1097.689,493.906 1095.946,493.935 1094.203,493.354 1092.460,494.144 1090.717,495.022 1088.974,494.806 1087.231,495.054 1085.488,494.364 1083.745,494.122 1082.002,494.001 1080.259,493.309 1078.516,494.346 1076.773,493.143 1075.030,493.134 1073.287,494.238 1071.544,492.960 1069.801,493.732 1068.058,494.059 1066.315,494.735 1064.571,492.258 1062.828,493.061 1061.085,494.653 1059.342,494.291 1057.599,493.047 1055.856,493.863 1054.113,493.988 1052.370,493.933 1050.627,492.925 1048.884,492.137 1047.141,492.946 1045.398,493.654 1043.655,494.210 1041.912,494.276 1040.169,493.666 1038.426,494.274 1036.683,493.308 1034.940,494.139 1033.197,493.853 1031.454,492.283 1029.711,493.011 1027.968,493.719 1026.225,492.468 1024.482,493.184 1022.739,492.179 1020.996,492.533 1019.253,492.762 1017.510,491.830 1015.767,493.234 1014.024,491.971 1012.281,492.289 1010.538,491.750 1008.795,492.803 1007.052,492.913 1005.309,492.667 1003.566,492.491 1001.823,492.940 1000.080,493.798 998.337,491.176 996.594,491.744 994.851,492.138 993.108,491.748 991.365,491.658 989.622,492.166 987.879,489.913 986.136,491.587 984.393,488.952 982.650,491.239 980.907,489.667 979.164,485.015 977.421,491.616 975.678,492.022 973.935,490.989 972.192,490.101 970.449,490.269 968.706,491.043 966.963,491.824 965.220,490.948 963.477,490.496 961.734,490.940 959.991,487.692 958.248,490.634 956.504,489.164 954.761,489.655 953.018,487.924 951.275,490.379 949.532,491.189 947.789,488.443 946.046,489.585 944.303,489.352 942.560,489.510 940.817,488.106 939.074,488.806 937.331,490.291 935.588,488.613 933.845,489.889 932.102,490.435 930.359,487.577 928.616,489.732 926.873,488.597 925.130,488.893 923.387,489.679 921.644,490.060 919.901,488.238 918.158,488.551 916.415,488.071 914.672,487.996 912.929,487.775 911.186,486.724 909.443,487.220 907.700,488.788 905.957,488.591 904.214,486.728 902.471,483.828 900.728,486.716 898.985,488.522 897.242,487.156 895.499,487.210 893.756,487.951 892.013,487.442 890.270,488.464 888.527,486.501 886.784,488.054 885.041,488.775 883.298,487.106 881.555,484.491 879.812,485.871 878.069,485.497 876.326,486.402 874.583,487.275 872.840,485.243 871.097,487.122 869.354,485.809 867.611,486.359 865.868,484.381 864.125,484.970 862.382,483.369 860.639,485.020 858.896,485.004 857.153,484.670 855.410,486.169 853.667,481.912 851.924,485.723 850.181,484.689 848.438,484.840 846.694,484.999 844.951,482.408 843.208,484.072 841.465,482.348 839.722,480.906 837.979,483.539 836.236,480.543 834.493,480.854 832.750,480.925 831.007,481.071 829.264,479.333 827.521,477.793 825.778,477.613 824.035,476.280 822.292,436.485 820.549,474.213 818.806,478.065 817.063,478.718 815.320,476.128 813.577,476.786 811.834,476.820 810.091,472.859 808.348,475.933 806.605,475.304 804.862,472.759 803.119,474.284 801.376,466.738 799.633,464.240 797.890,461.658 796.147,452.223 794.404,461.366 792.661,455.403 790.918,458.264 789.175,460.358 787.432,463.515 785.689,464.757 783.946,461.682 782.203,442.133 780.460,442.693 778.717,448.462 776.974,450.583 775.231,441.339 773.488,436.673 771.745,445.653 770.002,454.867 768.259,454.114 766.516,445.684 764.773,451.104 763.030,456.395 761.287,462.404 759.544,448.366 757.801,458.981 756.058,461.622 754.315,462.356 752.572,459.300 750.829,463.082 749.086,463.388 747.343,454.623 745.600,451.847 743.857,451.711 742.114,461.538 740.371,453.998 738.627,452.900 736.884,461.161 735.141,466.057 733.398,461.513 731.655,462.031 729.912,464.960 728.169,453.702 726.426,468.035 724.683,469.511 722.940,473.056 721.197,471.726 719.454,472.952 717.711,469.960 715.968,471.020 714.225,473.234 712.482,470.665 710.739,470.933 708.996,469.179 707.253,472.783 705.510,470.994 703.767,470.649 702.024,473.014 700.281,471.174 698.538,470.475 696.795,462.108 695.052,470.992 693.309,470.924 691.566,472.870 689.823,474.674 688.080,474.338 686.337,475.442 684.594,470.757 682.851,473.265 681.108,473.170 679.365,471.678 677.622,473.522 675.879,472.646 674.136,472.104 672.393,469.830 670.650,473.369 668.907,470.650 667.164,458.966 665.421,235.506 663.678,439.213 661.935,469.576 660.192,467.849 658.449,469.512 656.706,469.267 654.963,464.732 653.220,466.635 651.477,467.998 649.734,466.839 647.991,464.854 646.248,465.104 644.505,455.141 642.762,445.431 641.019,461.541 639.276,461.059 637.533,463.553 635.790,458.909 634.047,435.949 632.304,452.484 630.560,456.868 628.817,458.388 627.074,461.657 625.331,456.357 623.588,460.278 621.845,456.661 620.102,452.152 618.359,455.056 616.616,447.982 614.873,450.626 613.130,449.985 611.387,442.070 609.644,440.334 607.901,435.946 606.158,434.738 604.415,433.823 602.672,403.899 600.929,433.109 599.186,441.464 597.443,436.850 595.700,440.388 593.957,431.463 592.214,433.853 590.471,429.164 588.728,431.072 586.985,427.883 585.242,427.514 583.499,415.548 581.756,412.139 580.013,409.780 578.270,397.714 576.527,402.663 574.784,405.158 573.041,398.727 571.298,305.473 569.555,392.349 567.812,390.465 566.069,402.238 564.326,387.103 562.583,396.324 560.840,383.129 559.097,357.712 557.354,372.625 555.611,376.221 553.868,362.713 552.125,362.918 550.382,370.849 548.639,326.904 546.896,312.539 545.153,277.291 543.410,280.377 541.667,258.338 539.924,124.693 538.181,228.517 536.438,246.678 534.695,168.543 532.952,111.656 531.209,198.501 529.466,94.120 527.723,75.638 525.980,-15.048 "/>
</g>
<g id="ID000012" clip-path="url(#ID000009)" >
      <polyline fill="none" stroke="#5394ff" stroke-width="1.0pt" stroke-dasharray="none" points="525.980,53.277 527.723,117.808 529.466,135.509 531.209,224.597 532.952,158.546 534.695,207.354 536.438,269.604 538.181,251.467 539.924,157.846 541.667,274.535 543.410,297.038 545.153,299.409 546.896,326.548 548.639,345.435 550.382,380.755 552.125,375.182 553.868,373.059 555.611,384.578 557.354,381.953 559.097,371.115 560.840,391.901 562.583,402.876 564.326,396.690 566.069,410.061 567.812,400.064 569.555,399.677 571.298,320.886 573.041,404.592 574.784,412.895 576.527,409.321 578.270,405.268 580.013,416.155 581.756,417.905 583.499,420.951 585.242,432.949 586.985,433.059 588.728,435.496 590.471,434.081 592.214,438.049 593.957,436.186 595.700,443.994 597.443,441.997 599.186,445.368 600.929,437.719 602.672,411.062 604.415,438.445 606.158,438.876 607.901,441.486 609.644,445.208 611.387,446.218 613.130,453.573 614.873,453.459 616.616,451.485 618.359,458.573 620.102,455.292 621.845,459.881 623.588,462.181 625.331,459.226 627.074,463.545 628.817,461.153 630.560,459.765 632.304,455.999 634.047,441.765 635.790,461.451 637.533,466.009 639.276,464.182 641.019,464.184 642.762,453.618 644.505,459.744 646.248,467.161 647.991,466.511 649.734,468.835 651.477,470.090 653.220,469.184 654.963,467.101 656.706,471.063 658.449,470.846 660.192,469.724 661.935,471.316 663.678,444.572 665.421,273.826 667.164,461.062 668.907,472.673 670.650,474.649 672.393,472.054 674.136,473.707 675.879,474.127 677.622,475.206 679.365,473.474 681.108,475.029 682.851,475.140 684.594,472.709 686.337,476.905 688.080,476.039 689.823,476.069 691.566,474.480 693.309,472.648 695.052,472.816 696.795,464.798 698.538,472.429 700.281,473.152 702.024,474.406 703.767,472.360 705.510,473.355 707.253,475.584 708.996,471.788 710.739,473.934 712.482,473.378 714.225,475.961 715.968,473.760 717.711,472.534 719.454,475.197 721.197,474.069 722.940,475.432 724.683,472.685 726.426,470.826 728.169,457.666 729.912,468.791 731.655,467.648 733.398,468.157 735.141,471.701 736.884,468.801 738.627,463.726 740.371,465.794 742.114,468.457 743.857,464.187 745.600,462.729 747.343,463.969 749.086,468.683 750.829,468.426 752.572,464.407 754.315,467.318 756.058,466.324 757.801,464.774 759.544,454.527 761.287,466.146 763.030,461.660 764.773,457.774 766.516,453.485 768.259,459.256 770.002,460.325 771.745,453.197 773.488,451.698 775.231,455.760 776.974,458.224 778.717,456.644 780.460,454.852 782.203,454.966 783.946,466.903 785.689,468.721 787.432,467.865 789.175,465.893 790.918,463.110 792.661,462.554 794.404,466.673 796.147,462.576 797.890,467.238 799.633,468.922 801.376,470.978 803.119,477.317 804.862,476.598 806.605,478.355 808.348,478.740 810.091,476.904 811.834,479.831 813.577,479.443 815.320,478.639 817.063,481.079 818.806,480.352 820.549,477.146 822.292,447.555 824.035,478.841 825.778,480.663 827.521,480.232 829.264,481.904 831.007,483.377 832.750,483.047 834.493,482.662 836.236,482.681 837.979,485.344 839.722,484.061 841.465,484.197 843.208,485.892 844.951,484.484 846.694,486.633 848.438,486.590 850.181,486.328 851.924,487.029 853.667,484.421 855.410,487.698 857.153,486.474 858.896,486.897 860.639,487.230 862.382,485.560 864.125,486.972 865.868,486.419 867.611,488.032 869.354,487.499 871.097,488.461 872.840,487.266 874.583,488.991 876.326,488.334 878.069,487.592 879.812,487.861 881.555,487.265 883.298,488.775 885.041,489.881 886.784,489.581 888.527,488.318 890.270,490.075 892.013,489.168 893.756,489.707 895.499,489.093 897.242,489.349 898.985,490.182 900.728,488.764 902.471,487.439 904.214,489.143 905.957,490.116 907.700,490.426 909.443,489.636 911.186,488.810 912.929,489.380 914.672,489.903 916.415,489.873 918.158,490.533 919.901,489.879 921.644,491.314 923.387,491.084 925.130,490.500 926.873,490.880 928.616,491.487 930.359,489.750 932.102,491.415 933.845,491.703 935.588,490.782 937.331,491.412 939.074,490.613 940.817,490.230 942.560,491.260 944.303,491.240 946.046,491.180 947.789,490.539 949.532,492.589 951.275,491.944 953.018,490.659 954.761,491.671 956.504,491.116 958.248,492.032 959.991,489.816 961.734,492.604 963.477,491.987 965.220,492.651 966.963,492.975 968.706,492.224 970.449,492.217 972.192,491.902 973.935,492.855 975.678,493.343 977.421,493.162 979.164,487.780 980.907,491.404 982.650,492.429 984.393,491.461 986.136,492.947 987.879,491.767 989.622,493.288 991.365,493.082 993.108,493.085 994.851,493.471 996.594,493.285 998.337,492.840 1000.080,494.602 1001.823,494.129 1003.566,493.745 1005.309,493.905 1007.052,494.179 1008.795,494.171 1010.538,493.056 1012.281,493.747 1014.024,493.564 1015.767,494.254 1017.510,493.203 1019.253,494.127 1020.996,494.018 1022.739,493.972 1024.482,494.231 1026.225,494.231 1027.968,494.811 1029.711,494.147 1031.454,493.814 1033.197,494.902 1034.940,495.062 1036.683,494.223 1038.426,495.044 1040.169,494.694 1041.912,495.105 1043.655,495.153 1045.398,494.705 1047.141,494.293 1048.884,493.900 1050.627,494.198 1052.370,494.994 1054.113,495.091 1055.856,495.116 1057.599,494.285 1059.342,495.397 1061.085,495.684 1062.828,494.588 1064.571,494.196 1066.315,495.702 1068.058,495.004 1069.801,494.896 1071.544,494.654 1073.287,495.319 1075.030,494.695 1076.773,494.546 1078.516,495.380 1080.259,494.578 1082.002,495.022 1083.745,495.194 1085.488,495.321 1087.231,495.894 1088.974,495.928 1090.717,495.926 1092.460,495.190 1094.203,494.782 1095.946,495.346 1097.689,495.102 1099.432,495.272 1101.175,495.388 1102.918,495.817 1104.661,495.150 1106.404,495.280 1108.147,495.941 1109.890,494.643 1111.633,494.875 1113.376,495.047 1115.119,494.835 1116.862,495.395 1118.605,495.111 1120.348,495.082 1122.091,496.195 1123.834,496.867 1125.577,495.627 1127.320,495.357 1129.063,496.032 1130.806,495.945 1132.549,496.087 1134.292,496.095 1136.035,494.708 1137.778,495.757 1139.521,495.049 1141.264,496.321 1143.007,495.940 1144.750,495.527 1146.493,495.387 1148.236,496.084 1149.979,495.486 1151.722,494.435 1153.465,495.968 1155.208,495.551 1156.951,495.942 1158.694,497.132 1160.437,496.561 1162.180,496.507 1163.923,497.774 1165.666,496.548 1167.409,495.397 1169.152,497.011 1170.895,496.326 1172.638,496.337 1174.382,496.484 1176.125,496.278 1177.868,495.607 1179.611,495.546 1181.354,496.268 1183.097,496.505 1184.840,496.692 1186.583,496.680 1188.326,496.020 1190.069,495.813 1191.812,497.068 1193.555,496.479 1195.298,496.345 1197.041,495.445 1198.784,495.186 1200.527,496.476 1202.270,497.228 1204.013,496.416 1205.756,496.867 1207.499,497.080 1209.242,497.254 1210.985,496.538 1212.728,496.651 1214.471,496.360 1216.214,497.029 1217.957,496.414 1219.700,496.404 1221.443,497.230 1223.186,496.591 1224.929,497.608 1226.672,497.185 1228.415,496.876 1230.158,497.554 1231.901,497.171 1233.644,495.798 1235.387,497.017 1237.130,497.831 1238.873,497.858 1240.616,496.851 1242.359,497.571 1244.102,496.585 1245.845,496.854 1247.588,496.502 1249.331,496.704 1251.074,497.239 1252.817,496.701 1254.560,497.561 1256.303,497.834 1258.046,497.401 1259.789,497.128 1261.532,497.765 1263.275,495.977 1265.018,496.754 1266.761,497.296 1268.504,497.874 1270.247,497.782 1271.990,497.241 1273.733,496.916 "/>
<g>
</g>
</g>
    </g>
    <g>
      <polyline fill="none" stroke="#262626" stroke-width="0.5pt" stroke-dasharray="none" points="539.924,502.461 539.924,498.131 "/>
      <polyline fill="none" stroke="#262626" stroke-width="0.5pt" stroke-dasharray="none" points="571.298,502.461 571.298,498.131 "/>
      <polyline fill="none" stroke="#262626" stroke-width="0.5pt" stroke-dasharray="none" points="602.672,502.461 602.672,498.131 "/>
      <polyline fill="none" stroke="#262626" stroke-width="0.5pt" stroke-dasharray="none" points="634.047,502.461 634.047,498.131 "/>
      <polyline fill="none" stroke="#262626" stroke-width="0.5pt" stroke-dasharray="none" points="665.421,502.461 665.421,498.131 "/>
      <polyline fill="none" stroke="#262626" stroke-width="0.5pt" stroke-dasharray="none" points="696.795,502.461 696.795,498.131 "/>
      <polyline fill="none" stroke="#262626" stroke-width="0.5pt" stroke-dasharray="none" points="728.169,502.461 728.169,498.131 "/>
      <polyline fill="none" stroke="#262626" stroke-width="0.5pt" stroke-dasharray="none" points="759.544,502.461 759.544,498.131 "/>
      <polyline fill="none" stroke="#262626" stroke-width="0.5pt" stroke-dasharray="none" points="790.918,502.461 790.918,498.131 "/>
      <polyline fill="none" stroke="#262626" stroke-width="0.5pt" stroke-dasharray="none" points="822.292,502.461 822.292,498.131 "/>
      <polyline fill="none" stroke="#262626" stroke-width="0.5pt" stroke-dasharray="none" points="534.695,502.461 848.438,502.461 "/>
  <g transform="translate(539.924,522.184)">
    <g transform="rotate(-0.0)">
      <text x="0.000" y="0.000" font-family="Helvetica" text-anchor="middle" font-size="9pt" fill="#262626" >1.2</text>
    </g>
  </g>
  <g transform="translate(571.298,522.184)">
    <g transform="rotate(-0.0)">
      <text x="0.000" y="0.000" font-family="Helvetica" text-anchor="middle" font-size="9pt" fill="#262626" >2.4</text>
    </g>
  </g>
  <g transform="translate(602.672,522.184)">
    <g transform="rotate(-0.0)">
      <text x="0.000" y="0.000" font-family="Helvetica" text-anchor="middle" font-size="9pt" fill="#262626" >3.6</text>
    </g>
  </g>
  <g transform="translate(634.047,522.184)">
    <g transform="rotate(-0.0)">
      <text x="0.000" y="0.000" font-family="Helvetica" text-anchor="middle" font-size="9pt" fill="#262626" >4.8</text>
    </g>
  </g>
  <g transform="translate(665.421,522.184)">
    <g transform="rotate(-0.0)">
      <text x="0.000" y="0.000" font-family="Helvetica" text-anchor="middle" font-size="9pt" fill="#262626" >6</text>
    </g>
  </g>
  <g transform="translate(696.795,522.184)">
    <g transform="rotate(-0.0)">
      <text x="0.000" y="0.000" font-family="Helvetica" text-anchor="middle" font-size="9pt" fill="#262626" >7.2</text>
    </g>
  </g>
  <g transform="translate(728.169,522.184)">
    <g transform="rotate(-0.0)">
      <text x="0.000" y="0.000" font-family="Helvetica" text-anchor="middle" font-size="9pt" fill="#262626" >8.4</text>
    </g>
  </g>
  <g transform="translate(759.544,522.184)">
    <g transform="rotate(-0.0)">
      <text x="0.000" y="0.000" font-family="Helvetica" text-anchor="middle" font-size="9pt" fill="#262626" >9.6</text>
    </g>
  </g>
  <g transform="translate(790.918,522.184)">
    <g transform="rotate(-0.0)">
      <text x="0.000" y="0.000" font-family="Helvetica" text-anchor="middle" font-size="9pt" fill="#262626" >10.8</text>
    </g>
  </g>
  <g transform="translate(822.292,522.184)">
    <g transform="rotate(-0.0)">
      <text x="0.000" y="0.000" font-family="Helvetica" text-anchor="middle" font-size="9pt" fill="#262626" >12</text>
    </g>
  </g>
      <polyline fill="none" stroke="#262626" stroke-width="0.5pt" stroke-dasharray="none" points="534.695,502.461 539.025,502.461 "/>
      <polyline fill="none" stroke="#262626" stroke-width="0.5pt" stroke-dasharray="none" points="534.695,440.599 539.025,440.599 "/>
      <polyline fill="none" stroke="#262626" stroke-width="0.5pt" stroke-dasharray="none" points="534.695,378.736 539.025,378.736 "/>
      <polyline fill="none" stroke="#262626" stroke-width="0.5pt" stroke-dasharray="none" points="534.695,316.874 539.025,316.874 "/>
      <polyline fill="none" stroke="#262626" stroke-width="0.5pt" stroke-dasharray="none" points="534.695,255.012 539.025,255.012 "/>
      <polyline fill="none" stroke="#262626" stroke-width="0.5pt" stroke-dasharray="none" points="534.695,193.149 539.025,193.149 "/>
      <polyline fill="none" stroke="#262626" stroke-width="0.5pt" stroke-dasharray="none" points="534.695,131.287 539.025,131.287 "/>
      <polyline fill="none" stroke="#262626" stroke-width="0.5pt" stroke-dasharray="none" points="534.695,69.425 539.025,69.425 "/>
      <polyline fill="none" stroke="#262626" stroke-width="0.5pt" stroke-dasharray="none" points="534.695,502.461 534.695,69.425 "/>
  <g transform="translate(528.420,506.680)">
    <g transform="rotate(-0.0)">
      <text x="0.000" y="0.000" font-family="Helvetica" text-anchor="end" font-size="9pt" fill="#262626" >0</text>
    </g>
  </g>
  <g transform="translate(528.420,444.817)">
    <g transform="rotate(-0.0)">
      <text x="0.000" y="0.000" font-family="Helvetica" text-anchor="end" font-size="9pt" fill="#262626" >2</text>
    </g>
  </g>
  <g transform="translate(528.420,382.955)">
    <g transform="rotate(-0.0)">
      <text x="0.000" y="0.000" font-family="Helvetica" text-anchor="end" font-size="9pt" fill="#262626" >4</text>
    </g>
  </g>
  <g transform="translate(528.420,321.093)">
    <g transform="rotate(-0.0)">
      <text x="0.000" y="0.000" font-family="Helvetica" text-anchor="end" font-size="9pt" fill="#262626" >6</text>
    </g>
  </g>
  <g transform="translate(528.420,259.230)">
    <g transform="rotate(-0.0)">
      <text x="0.000" y="0.000" font-family="Helvetica" text-anchor="end" font-size="9pt" fill="#262626" >8</text>
    </g>
  </g>
  <g transform="translate(528.420,197.368)">
    <g transform="rotate(-0.0)">
      <text x="0.000" y="0.000" font-family="Helvetica" text-anchor="end" font-size="9pt" fill="#262626" >10</text>
    </g>
  </g>
  <g transform="translate(528.420,135.506)">
    <g transform="rotate(-0.0)">
      <text x="0.000" y="0.000" font-family="Helvetica" text-anchor="end" font-size="9pt" fill="#262626" >12</text>
    </g>
  </g>
  <g transform="translate(528.420,73.643)">
    <g transform="rotate(-0.0)">
      <text x="0.000" y="0.000" font-family="Helvetica" text-anchor="end" font-size="9pt" fill="#262626" >14</text>
    </g>
  </g>
      <polyline fill="none" stroke="#262626" stroke-width="0.5pt" stroke-dasharray="none" points="534.695,502.461 534.695,498.131 "/>
      <polyline fill="none" stroke="#262626" stroke-width="0.5pt" stroke-dasharray="none" points="534.695,502.461 534.695,498.131 "/>
      <polyline fill="none" stroke="#262626" stroke-width="0.5pt" stroke-dasharray="none" points="534.695,502.461 534.695,498.131 "/>
      <polyline fill="none" stroke="#262626" stroke-width="0.5pt" stroke-dasharray="none" points="534.695,502.461 534.695,502.461 "/>
    </g>
  </g>
  </g>
</svg>
