<?xml version="1.0" encoding="utf-8" standalone="no"?><!DOCTYPE svg PUBLIC "-//W3C//DTD SVG 1.1//EN" "http://www.w3.org/Graphics/SVG/1.1/DTD/svg11.dtd">
<svg preserveAspectRatio="xMinYMin meet" width="100%" height="100%" viewBox="0 0 937.500 562.500"  version="1.1" xmlns="http://www.w3.org/2000/svg" xmlns:xlink="http://www.w3.org/1999/xlink">
  <desc>Matlab Figure Converted by PLOT2SVG written by Juerg Schwizer</desc>
  <g id="topgroup">
  <rect x="0" y="0" width="937.500" height="562.500" fill="#ffffff" stroke="none" />
  <g id ="ID000000">
  <clipPath id="ID000001">
    <rect x="121.875" y="69.425" width="313.743" height="433.037"/>
  </clipPath>
      <polygon fill="#ffffff" fill-opacity="1.00" stroke="none" stroke-width="0.5pt" stroke-opacity="1.00" stroke-dasharray="none" points="121.875,502.461 435.618,502.461 435.618,69.425 121.875,69.425 "/>
      <polygon fill="#ffffff" fill-opacity="1.00" stroke="none" stroke-width="0.5pt" stroke-opacity="1.00" stroke-dasharray="none" points="121.875,69.425 435.618,69.425 435.618,69.425 121.875,69.425 "/>
      <polygon fill="#ffffff" fill-opacity="1.00" stroke="none" stroke-width="0.5pt" stroke-opacity="1.00" stroke-dasharray="none" points="121.875,502.461 121.875,502.461 121.875,69.425 121.875,69.425 "/>
    <g>
<g id="ID000002" clip-path="url(#ID000001)" >
      <polyline fill="none" stroke="#5394ff" stroke-width="1.0pt" stroke-dasharray="none" points="113.160,-25.057 114.903,43.268 116.646,80.753 118.389,132.810 120.132,161.204 121.875,202.512 123.618,231.252 125.361,235.194 127.104,110.915 128.847,257.254 130.590,293.134 132.333,298.083 134.076,294.626 135.819,330.618 137.562,346.963 139.305,362.764 141.048,354.970 142.791,365.168 144.534,368.050 146.277,361.134 148.020,376.438 149.763,382.287 151.506,375.699 153.249,391.795 154.992,387.523 156.735,369.567 158.478,223.702 160.221,372.000 161.964,405.920 163.707,406.096 165.450,398.613 167.193,411.151 168.936,412.146 170.679,413.722 172.422,415.967 174.165,416.419 175.908,430.710 177.652,426.997 179.395,422.501 181.138,428.435 182.881,428.805 184.624,430.327 186.367,430.266 188.110,421.536 189.853,372.984 191.596,426.675 193.339,434.974 195.082,445.423 196.825,444.142 198.568,446.438 200.311,447.614 202.054,442.593 203.797,451.146 205.540,450.594 207.283,447.322 209.026,447.115 210.769,454.298 212.512,449.820 214.255,456.176 215.998,450.575 217.741,460.041 219.484,451.579 221.227,438.029 222.970,460.188 224.713,457.735 226.456,459.112 228.199,460.005 229.942,455.119 231.685,458.230 233.428,456.383 235.171,460.910 236.914,465.657 238.657,463.495 240.400,465.259 242.143,462.760 243.886,464.505 245.629,466.596 247.372,466.489 249.115,464.709 250.858,431.160 252.601,144.216 254.344,452.143 256.087,466.594 257.830,470.170 259.573,467.785 261.316,468.627 263.059,470.326 264.802,469.281 266.545,467.562 268.288,468.004 270.031,471.868 271.774,470.513 273.517,467.607 275.260,469.734 277.003,470.141 278.746,470.203 280.489,471.936 282.232,470.430 283.975,451.311 285.719,470.368 287.462,472.250 289.205,470.890 290.948,474.858 292.691,472.916 294.434,471.982 296.177,472.287 297.920,471.035 299.663,474.872 301.406,471.949 303.149,470.828 304.892,473.093 306.635,469.281 308.378,470.437 310.121,472.363 311.864,470.915 313.607,471.437 315.350,451.229 317.093,466.695 318.836,469.834 320.579,467.410 322.322,469.689 324.065,468.950 325.808,469.294 327.551,466.868 329.294,463.477 331.037,468.455 332.780,463.282 334.523,463.567 336.266,463.069 338.009,463.629 339.752,464.540 341.495,463.136 343.238,464.633 344.981,460.459 346.724,446.201 348.467,458.203 350.210,451.246 351.953,457.699 353.696,446.345 355.439,452.504 357.182,449.238 358.925,445.104 360.668,447.831 362.411,444.054 364.154,451.001 365.897,453.205 367.640,428.968 369.383,434.685 371.126,451.109 372.869,457.705 374.612,453.664 376.355,441.955 378.098,419.719 379.841,440.772 381.584,447.861 383.327,458.030 385.070,450.596 386.813,461.715 388.556,461.078 390.299,445.858 392.042,458.004 393.786,467.070 395.529,465.235 397.272,457.352 399.015,466.877 400.758,467.335 402.501,469.799 404.244,472.579 405.987,473.027 407.730,469.234 409.473,445.627 411.216,477.512 412.959,479.474 414.702,478.659 416.445,478.467 418.188,477.798 419.931,480.212 421.674,479.339 423.417,477.110 425.160,478.832 426.903,479.560 428.646,481.074 430.389,482.182 432.132,480.372 433.875,483.447 435.618,481.471 437.361,482.116 439.104,483.682 440.847,477.849 442.590,481.867 444.333,483.951 446.076,482.533 447.819,486.364 449.562,481.516 451.305,484.938 453.048,487.501 454.791,482.927 456.534,484.746 458.277,481.715 460.020,482.312 461.763,484.641 463.506,488.673 465.249,486.693 466.992,482.380 468.735,482.340 470.478,480.844 472.221,484.413 473.964,483.688 475.707,484.769 477.450,481.870 479.193,484.593 480.936,485.907 482.679,484.352 484.422,487.609 486.165,487.201 487.908,484.663 489.651,486.252 491.394,487.511 493.137,488.544 494.880,485.026 496.623,487.260 498.366,486.704 500.109,488.247 501.853,486.078 503.596,486.494 505.339,489.513 507.082,486.434 508.825,487.269 510.568,488.649 512.311,488.084 514.054,486.092 515.797,488.836 517.540,486.803 519.283,485.219 521.026,486.149 522.769,488.020 524.512,488.664 526.255,486.583 527.998,488.648 529.741,490.216 531.484,489.886 533.227,489.401 534.970,488.320 536.713,487.749 538.456,487.934 540.199,490.233 541.942,488.043 543.685,488.373 545.428,490.905 547.171,486.841 548.914,488.889 550.657,491.727 552.400,491.091 554.143,489.351 555.886,489.636 557.629,490.763 559.372,489.796 561.115,490.617 562.858,490.770 564.601,490.062 566.344,485.442 568.087,490.888 569.830,492.306 571.573,492.547 573.316,490.007 575.059,490.728 576.802,491.699 578.545,491.835 580.288,491.854 582.031,492.203 583.774,492.386 585.517,491.631 587.260,492.556 589.003,491.354 590.746,489.759 592.489,491.401 594.232,491.155 595.975,491.999 597.718,491.976 599.461,492.690 601.204,491.507 602.947,491.824 604.690,492.568 606.433,492.366 608.176,493.040 609.920,491.869 611.663,493.269 613.406,492.199 615.149,492.391 616.892,492.920 618.635,493.422 620.378,492.757 622.121,492.502 623.864,492.566 625.607,491.494 627.350,491.521 629.093,492.116 630.836,491.746 632.579,491.733 634.322,489.857 636.065,491.106 637.808,491.881 639.551,493.344 641.294,492.686 643.037,493.404 644.780,491.955 646.523,491.853 648.266,493.646 650.009,493.521 651.752,493.004 653.495,494.009 655.238,493.600 656.981,494.192 658.724,493.379 660.467,493.392 662.210,494.112 663.953,492.646 665.696,492.940 667.439,492.204 669.182,491.471 670.925,491.902 672.668,492.607 674.411,492.170 676.154,493.965 677.897,494.182 679.640,493.977 681.383,493.444 683.126,494.415 684.869,493.621 686.612,493.475 688.355,492.588 690.098,494.079 691.841,493.916 693.584,494.568 695.327,493.543 697.070,492.240 698.813,492.773 700.556,492.347 702.299,491.431 704.042,491.482 705.785,493.016 707.528,494.103 709.271,493.712 711.014,495.041 712.757,492.407 714.500,492.780 716.243,493.731 717.987,495.071 719.730,492.998 721.473,493.019 723.216,492.533 724.959,491.958 726.702,488.548 728.445,494.293 730.188,494.619 731.931,494.292 733.674,494.653 735.417,495.188 737.160,493.770 738.903,492.743 740.646,493.603 742.389,493.195 744.132,491.559 745.875,494.620 747.618,489.494 749.361,492.486 751.104,494.977 752.847,492.523 754.590,492.274 756.333,493.662 758.076,493.001 759.819,490.682 761.562,492.687 763.305,492.465 765.048,493.663 766.791,491.744 768.534,491.800 770.277,493.163 772.020,495.133 773.763,493.119 775.506,493.013 777.249,492.737 778.992,492.826 780.735,493.769 782.478,492.194 784.221,493.445 785.964,493.984 787.707,491.890 789.450,490.284 791.193,491.678 792.936,492.730 794.679,492.712 796.422,492.973 798.165,491.121 799.908,491.804 801.651,494.763 803.394,494.178 805.137,491.044 806.880,493.739 808.623,496.119 810.366,495.453 812.109,494.582 813.852,495.362 815.595,493.405 817.338,493.908 819.081,493.084 820.824,491.320 822.567,495.214 824.310,492.636 826.054,493.449 827.797,492.060 829.540,492.548 831.283,490.777 833.026,492.669 834.769,493.966 836.512,493.541 838.255,495.028 839.998,493.420 841.741,496.089 843.484,496.640 845.227,492.263 846.970,494.351 848.713,495.420 850.456,492.990 852.199,492.983 853.942,493.696 855.685,495.729 857.428,494.811 859.171,491.700 860.914,492.043 "/>
<g>
</g>
</g>
<g id="ID000003" clip-path="url(#ID000001)" >
      <polygon fill="#5394ff" fill-opacity="0.20" stroke="none" stroke-width="0.5pt" stroke-opacity="1.00" stroke-dasharray="none" points="113.160,67.549 114.903,106.727 116.646,142.659 118.389,175.898 120.132,200.538 121.875,231.598 123.618,253.379 125.361,259.656 127.104,144.219 128.847,274.215 130.590,310.570 132.333,317.217 134.076,313.370 135.819,345.844 137.562,357.878 139.305,371.437 141.048,368.207 142.791,378.027 144.534,377.243 146.277,372.922 148.020,384.834 149.763,389.720 151.506,385.775 153.249,402.235 154.992,396.337 156.735,377.881 158.478,242.523 160.221,381.603 161.964,414.059 163.707,412.966 165.450,407.121 167.193,418.445 168.936,418.339 170.679,420.440 172.422,421.587 174.165,422.553 175.908,435.153 177.652,432.098 179.395,427.969 181.138,433.302 182.881,432.875 184.624,435.303 186.367,434.570 188.110,427.662 189.853,381.795 191.596,431.303 193.339,440.231 195.082,448.208 196.825,447.897 198.568,449.567 200.311,451.657 202.054,446.393 203.797,454.455 205.540,453.563 207.283,451.192 209.026,451.133 210.769,456.768 212.512,452.737 214.255,459.590 215.998,453.053 217.741,462.581 219.484,454.615 221.227,442.926 222.970,462.802 224.713,461.368 226.456,462.202 228.199,462.044 229.942,459.800 231.685,461.757 233.428,458.542 235.171,463.028 236.914,467.885 238.657,466.319 240.400,468.143 242.143,465.057 243.886,466.534 245.629,468.352 247.372,468.326 249.115,466.715 250.858,437.859 252.601,202.247 254.344,455.501 256.087,468.437 257.830,472.060 259.573,469.982 261.316,470.417 263.059,471.949 264.802,471.098 266.545,469.992 268.288,470.082 270.031,473.654 271.774,472.412 273.517,469.763 275.260,471.456 277.003,472.274 278.746,472.046 280.489,473.705 282.232,472.383 283.975,454.787 285.719,472.753 287.462,474.646 289.205,473.409 290.948,476.670 292.691,475.176 294.434,475.130 296.177,475.052 297.920,473.852 299.663,477.212 301.406,475.187 303.149,473.858 304.892,475.598 306.635,472.457 308.378,474.984 310.121,475.182 311.864,474.120 313.607,474.565 315.350,455.723 317.093,471.522 318.836,474.012 320.579,472.025 322.322,473.825 324.065,473.124 325.808,473.132 327.551,473.606 329.294,472.091 331.037,472.406 332.780,468.752 334.523,469.756 336.266,469.296 338.009,470.162 339.752,468.770 341.495,467.874 343.238,470.331 344.981,465.474 346.724,451.609 348.467,463.626 350.210,458.445 351.953,464.091 353.696,455.055 355.439,458.845 357.182,458.056 358.925,453.288 360.668,455.690 362.411,451.695 364.154,458.828 365.897,459.819 367.640,453.683 369.383,455.410 371.126,460.347 372.869,464.225 374.612,462.829 376.355,457.839 378.098,449.966 379.841,460.091 381.584,463.512 383.327,466.276 385.070,463.973 386.813,470.420 388.556,469.660 390.299,469.405 392.042,472.317 393.786,471.492 395.529,476.530 397.272,473.357 399.015,474.346 400.758,474.602 402.501,476.922 404.244,477.932 405.987,477.442 407.730,473.458 409.473,452.520 411.216,480.393 412.959,482.117 414.702,481.882 416.445,481.329 418.188,481.576 419.931,482.665 421.674,482.285 423.417,480.741 425.160,481.789 426.903,483.204 428.646,483.658 430.389,485.514 432.132,484.349 433.875,485.829 435.618,484.760 437.361,485.022 439.104,485.861 440.847,481.749 442.590,485.525 444.333,488.019 446.076,486.517 447.819,488.450 449.562,485.753 451.305,488.450 453.048,489.285 454.791,487.042 456.534,487.727 458.277,486.706 460.020,488.651 461.763,488.765 463.506,490.484 465.249,489.187 466.992,488.368 468.735,487.276 470.478,487.699 472.221,488.562 473.964,487.484 475.707,489.770 477.450,488.603 479.193,488.069 480.936,489.719 482.679,488.651 484.422,490.617 486.165,490.430 487.908,489.398 489.651,489.872 491.394,490.308 493.137,491.056 494.880,489.852 496.623,490.710 498.366,490.962 500.109,490.779 501.853,490.154 503.596,490.042 505.339,491.847 507.082,491.508 508.825,490.718 510.568,491.734 512.311,491.344 514.054,491.203 515.797,491.480 517.540,490.777 519.283,490.705 521.026,492.209 522.769,491.775 524.512,491.305 526.255,491.375 527.998,492.023 529.741,492.703 531.484,492.388 533.227,492.291 534.970,490.943 536.713,491.147 538.456,492.323 540.199,493.208 541.942,492.986 543.685,492.589 545.428,492.560 547.171,491.011 548.914,491.945 550.657,493.059 552.400,492.606 554.143,491.994 555.886,492.461 557.629,493.169 559.372,492.286 561.115,492.303 562.858,493.226 564.601,492.123 566.344,488.456 568.087,492.742 569.830,493.734 571.573,494.131 573.316,492.547 575.059,493.110 576.802,493.593 578.545,493.741 580.288,493.725 582.031,493.599 583.774,493.886 585.517,493.541 587.260,494.167 589.003,493.383 590.746,492.539 592.489,493.628 594.232,493.848 595.975,493.968 597.718,494.025 599.461,494.436 601.204,493.870 602.947,493.510 604.690,494.764 606.433,494.214 608.176,494.902 609.920,493.781 611.663,494.529 613.406,494.789 615.149,494.700 616.892,494.626 618.635,494.867 620.378,494.651 622.121,494.187 623.864,494.307 625.607,493.969 627.350,494.212 629.093,494.241 630.836,494.067 632.579,494.121 634.322,492.741 636.065,493.898 637.808,494.380 639.551,495.191 641.294,494.554 643.037,494.785 644.780,494.836 646.523,494.267 648.266,495.037 650.009,495.390 651.752,495.060 653.495,495.336 655.238,494.885 656.981,495.262 658.724,494.534 660.467,494.621 662.210,495.331 663.953,494.503 665.696,494.600 667.439,494.330 669.182,493.801 670.925,494.533 672.668,495.047 674.411,494.722 676.154,495.899 677.897,495.795 679.640,495.564 681.383,495.187 683.126,496.053 684.869,495.440 686.612,495.713 688.355,495.713 690.098,495.852 691.841,495.150 693.584,496.196 695.327,495.542 697.070,495.056 698.813,495.655 700.556,495.403 702.299,495.077 704.042,494.390 705.785,495.188 707.528,496.193 709.271,495.750 711.014,496.689 712.757,495.125 714.500,495.488 716.243,495.572 717.987,496.559 719.730,495.576 721.473,495.628 723.216,494.681 724.959,495.559 726.702,493.841 728.445,496.554 730.188,497.196 731.931,496.898 733.674,496.867 735.417,496.691 737.160,496.095 738.903,495.852 740.646,496.095 742.389,495.822 744.132,495.999 745.875,496.434 747.618,494.817 749.361,495.849 751.104,497.392 752.847,495.824 754.590,495.533 756.333,496.618 758.076,495.984 759.819,494.713 761.562,495.905 763.305,496.324 765.048,496.831 766.791,496.225 768.534,495.321 770.277,496.695 772.020,497.175 773.763,495.971 775.506,496.535 777.249,496.018 778.992,496.924 780.735,497.183 782.478,496.153 784.221,496.836 785.964,497.026 787.707,496.595 789.450,495.671 791.193,496.529 792.936,496.455 794.679,496.457 796.422,496.652 798.165,495.648 799.908,496.199 801.651,497.427 803.394,497.291 805.137,495.390 806.880,496.878 808.623,498.176 810.366,497.848 812.109,497.790 813.852,497.682 815.595,496.421 817.338,497.171 819.081,496.599 820.824,495.664 822.567,497.426 824.310,497.307 826.054,497.602 827.797,496.629 829.540,497.284 831.283,497.107 833.026,496.594 834.769,496.889 836.512,497.742 838.255,497.760 839.998,497.312 841.741,498.130 843.484,498.123 845.227,496.613 846.970,497.508 848.713,497.753 850.456,497.283 852.199,496.855 853.942,497.613 855.685,497.962 857.428,497.010 859.171,497.158 860.914,496.895 860.914,487.191 859.171,486.243 857.428,492.612 855.685,493.496 853.942,489.779 852.199,489.112 850.456,488.698 848.713,493.087 846.970,491.194 845.227,487.912 843.484,495.157 841.741,494.048 839.998,489.527 838.255,492.295 836.512,489.339 834.769,491.044 833.026,488.744 831.283,484.448 829.540,487.813 827.797,487.492 826.054,489.295 824.310,487.965 822.567,493.002 820.824,486.977 819.081,489.570 817.338,490.644 815.595,490.389 813.852,493.042 812.109,491.375 810.366,493.059 808.623,494.061 806.880,490.600 805.137,486.698 803.394,491.066 801.651,492.098 799.908,487.408 798.165,486.594 796.422,489.295 794.679,488.967 792.936,489.004 791.193,486.828 789.450,484.897 787.707,487.185 785.964,490.943 784.221,490.055 782.478,488.234 780.735,490.356 778.992,488.728 777.249,489.457 775.506,489.490 773.763,490.267 772.020,493.090 770.277,489.632 768.534,488.278 766.791,487.263 765.048,490.495 763.305,488.606 761.562,489.470 759.819,486.651 758.076,490.019 756.333,490.705 754.590,489.015 752.847,489.222 751.104,492.561 749.361,489.124 747.618,484.171 745.875,492.805 744.132,487.120 742.389,490.568 740.646,491.112 738.903,489.633 737.160,491.444 735.417,493.685 733.674,492.439 731.931,491.687 730.188,492.041 728.445,492.031 726.702,483.254 724.959,488.356 723.216,490.386 721.473,490.409 719.730,490.420 717.987,493.584 716.243,491.890 714.500,490.071 712.757,489.689 711.014,493.394 709.271,491.675 707.528,492.012 705.785,490.843 704.042,488.575 702.299,487.786 700.556,489.292 698.813,489.892 697.070,489.424 695.327,491.544 693.584,492.940 691.841,492.681 690.098,492.307 688.355,489.463 686.612,491.238 684.869,491.803 683.126,492.777 681.383,491.702 679.640,492.390 677.897,492.568 676.154,492.031 674.411,489.618 672.668,490.166 670.925,489.271 669.182,489.141 667.439,490.077 665.696,491.279 663.953,490.789 662.210,492.893 660.467,492.162 658.724,492.223 656.981,493.122 655.238,492.316 653.495,492.682 651.752,490.948 650.009,491.652 648.266,492.254 646.523,489.439 644.780,489.074 643.037,492.023 641.294,490.817 639.551,491.497 637.808,489.382 636.065,488.313 634.322,486.973 632.579,489.345 630.836,489.425 629.093,489.991 627.350,488.830 625.607,489.018 623.864,490.824 622.121,490.816 620.378,490.863 618.635,491.977 616.892,491.214 615.149,490.082 613.406,489.609 611.663,492.009 609.920,489.956 608.176,491.178 606.433,490.518 604.690,490.371 602.947,490.137 601.204,489.144 599.461,490.944 597.718,489.928 595.975,490.029 594.232,488.461 592.489,489.175 590.746,486.978 589.003,489.324 587.260,490.945 585.517,489.720 583.774,490.885 582.031,490.807 580.288,489.982 578.545,489.929 576.802,489.805 575.059,488.347 573.316,487.466 571.573,490.962 569.830,490.878 568.087,489.034 566.344,482.429 564.601,488.001 562.858,488.314 561.115,488.932 559.372,487.306 557.629,488.357 555.886,486.810 554.143,486.708 552.400,489.575 550.657,490.395 548.914,485.834 547.171,482.670 545.428,489.250 543.685,484.157 541.942,483.100 540.199,487.257 538.456,483.545 536.713,484.351 534.970,485.697 533.227,486.510 531.484,487.384 529.741,487.728 527.998,485.274 526.255,481.790 524.512,486.022 522.769,484.266 521.026,480.089 519.283,479.734 517.540,482.829 515.797,486.193 514.054,480.981 512.311,484.825 510.568,485.563 508.825,483.820 507.082,481.360 505.339,487.179 503.596,482.947 501.853,482.002 500.109,485.715 498.366,482.446 496.623,483.810 494.880,480.199 493.137,486.032 491.394,484.713 489.651,482.632 487.908,479.929 486.165,483.972 484.422,484.600 482.679,480.054 480.936,482.096 479.193,481.116 477.450,475.137 475.707,479.767 473.964,479.892 472.221,480.264 470.478,473.989 468.735,477.403 466.992,476.391 465.249,484.199 463.506,486.862 461.763,480.516 460.020,475.973 458.277,476.723 456.534,481.766 454.791,478.812 453.048,485.717 451.305,481.427 449.562,477.279 447.819,484.277 446.076,478.549 444.333,479.882 442.590,478.209 440.847,473.949 439.104,481.504 437.361,479.210 435.618,478.182 433.875,481.065 432.132,476.395 430.389,478.850 428.646,478.489 426.903,475.917 425.160,475.874 423.417,473.480 421.674,476.393 419.931,477.760 418.188,474.019 416.445,475.604 414.702,475.436 412.959,476.830 411.216,474.630 409.473,438.734 407.730,465.010 405.987,468.612 404.244,467.226 402.501,462.677 400.758,460.069 399.015,459.409 397.272,441.346 395.529,453.941 393.786,462.648 392.042,443.691 390.299,422.311 388.556,452.496 386.813,453.010 385.070,437.219 383.327,449.784 381.584,432.211 379.841,421.452 378.098,389.472 376.355,426.071 374.612,444.500 372.869,451.185 371.126,441.870 369.383,413.960 367.640,404.253 365.897,446.592 364.154,443.173 362.411,436.413 360.668,439.972 358.925,436.919 357.182,440.420 355.439,446.162 353.696,437.635 351.953,451.307 350.210,444.046 348.467,452.781 346.724,440.793 344.981,455.445 343.238,458.935 341.495,458.397 339.752,460.310 338.009,457.096 336.266,456.842 334.523,457.378 332.780,457.812 331.037,464.504 329.294,454.863 327.551,460.130 325.808,465.455 324.065,464.776 322.322,465.553 320.579,462.796 318.836,465.656 317.093,461.869 315.350,446.735 313.607,468.308 311.864,467.709 310.121,469.545 308.378,465.890 306.635,466.105 304.892,470.588 303.149,467.797 301.406,468.711 299.663,472.531 297.920,468.218 296.177,469.522 294.434,468.835 292.691,470.656 290.948,473.046 289.205,468.372 287.462,469.854 285.719,467.983 283.975,447.835 282.232,468.477 280.489,470.167 278.746,468.359 277.003,468.008 275.260,468.012 273.517,465.451 271.774,468.613 270.031,470.081 268.288,465.926 266.545,465.132 264.802,467.464 263.059,468.702 261.316,466.837 259.573,465.588 257.830,468.280 256.087,464.752 254.344,448.785 252.601,86.184 250.858,424.461 249.115,462.702 247.372,464.652 245.629,464.841 243.886,462.475 242.143,460.462 240.400,462.375 238.657,460.672 236.914,463.429 235.171,458.792 233.428,454.225 231.685,454.704 229.942,450.439 228.199,457.965 226.456,456.022 224.713,454.101 222.970,457.575 221.227,433.131 219.484,448.543 217.741,457.502 215.998,448.098 214.255,452.762 212.512,446.903 210.769,451.829 209.026,443.097 207.283,443.453 205.540,447.624 203.797,447.838 202.054,438.792 200.311,443.570 198.568,443.308 196.825,440.387 195.082,442.638 193.339,429.716 191.596,422.047 189.853,364.174 188.110,415.409 186.367,425.963 184.624,425.351 182.881,424.734 181.138,423.568 179.395,417.034 177.652,421.895 175.908,426.268 174.165,410.285 172.422,410.347 170.679,407.004 168.936,405.953 167.193,403.857 165.450,390.106 163.707,399.227 161.964,397.781 160.221,362.398 158.478,204.881 156.735,361.252 154.992,378.709 153.249,381.355 151.506,365.622 149.763,374.854 148.020,368.042 146.277,349.346 144.534,358.858 142.791,352.309 141.048,341.733 139.305,354.091 137.562,336.048 135.819,315.392 134.076,275.883 132.333,278.949 130.590,275.697 128.847,240.292 127.104,77.611 125.361,210.732 123.618,209.125 121.875,173.426 120.132,121.871 118.389,89.722 116.646,18.846 114.903,-20.191 113.160,-117.662 "/>
</g>
    </g>
    <g>
      <polyline fill="none" stroke="#262626" stroke-width="0.5pt" stroke-dasharray="none" points="127.104,502.461 127.104,498.131 "/>
      <polyline fill="none" stroke="#262626" stroke-width="0.5pt" stroke-dasharray="none" points="158.478,502.461 158.478,498.131 "/>
      <polyline fill="none" stroke="#262626" stroke-width="0.5pt" stroke-dasharray="none" points="189.853,502.461 189.853,498.131 "/>
      <polyline fill="none" stroke="#262626" stroke-width="0.5pt" stroke-dasharray="none" points="221.227,502.461 221.227,498.131 "/>
      <polyline fill="none" stroke="#262626" stroke-width="0.5pt" stroke-dasharray="none" points="252.601,502.461 252.601,498.131 "/>
      <polyline fill="none" stroke="#262626" stroke-width="0.5pt" stroke-dasharray="none" points="283.975,502.461 283.975,498.131 "/>
      <polyline fill="none" stroke="#262626" stroke-width="0.5pt" stroke-dasharray="none" points="315.350,502.461 315.350,498.131 "/>
      <polyline fill="none" stroke="#262626" stroke-width="0.5pt" stroke-dasharray="none" points="346.724,502.461 346.724,498.131 "/>
      <polyline fill="none" stroke="#262626" stroke-width="0.5pt" stroke-dasharray="none" points="378.098,502.461 378.098,498.131 "/>
      <polyline fill="none" stroke="#262626" stroke-width="0.5pt" stroke-dasharray="none" points="409.473,502.461 409.473,498.131 "/>
      <polyline fill="none" stroke="#262626" stroke-width="0.5pt" stroke-dasharray="none" points="121.875,502.461 435.618,502.461 "/>
  <g transform="translate(127.104,522.184)">
    <g transform="rotate(-0.0)">
      <text x="0.000" y="0.000" font-family="Helvetica" text-anchor="middle" font-size="9pt" fill="#262626" >1.2</text>
    </g>
  </g>
  <g transform="translate(158.478,522.184)">
    <g transform="rotate(-0.0)">
      <text x="0.000" y="0.000" font-family="Helvetica" text-anchor="middle" font-size="9pt" fill="#262626" >2.4</text>
    </g>
  </g>
  <g transform="translate(189.853,522.184)">
    <g transform="rotate(-0.0)">
      <text x="0.000" y="0.000" font-family="Helvetica" text-anchor="middle" font-size="9pt" fill="#262626" >3.6</text>
    </g>
  </g>
  <g transform="translate(221.227,522.184)">
    <g transform="rotate(-0.0)">
      <text x="0.000" y="0.000" font-family="Helvetica" text-anchor="middle" font-size="9pt" fill="#262626" >4.8</text>
    </g>
  </g>
  <g transform="translate(252.601,522.184)">
    <g transform="rotate(-0.0)">
      <text x="0.000" y="0.000" font-family="Helvetica" text-anchor="middle" font-size="9pt" fill="#262626" >6</text>
    </g>
  </g>
  <g transform="translate(283.975,522.184)">
    <g transform="rotate(-0.0)">
      <text x="0.000" y="0.000" font-family="Helvetica" text-anchor="middle" font-size="9pt" fill="#262626" >7.2</text>
    </g>
  </g>
  <g transform="translate(315.350,522.184)">
    <g transform="rotate(-0.0)">
      <text x="0.000" y="0.000" font-family="Helvetica" text-anchor="middle" font-size="9pt" fill="#262626" >8.4</text>
    </g>
  </g>
  <g transform="translate(346.724,522.184)">
    <g transform="rotate(-0.0)">
      <text x="0.000" y="0.000" font-family="Helvetica" text-anchor="middle" font-size="9pt" fill="#262626" >9.6</text>
    </g>
  </g>
  <g transform="translate(378.098,522.184)">
    <g transform="rotate(-0.0)">
      <text x="0.000" y="0.000" font-family="Helvetica" text-anchor="middle" font-size="9pt" fill="#262626" >10.8</text>
    </g>
  </g>
  <g transform="translate(409.473,522.184)">
    <g transform="rotate(-0.0)">
      <text x="0.000" y="0.000" font-family="Helvetica" text-anchor="middle" font-size="9pt" fill="#262626" >12</text>
    </g>
  </g>
      <polyline fill="none" stroke="#262626" stroke-width="0.5pt" stroke-dasharray="none" points="121.875,502.461 126.205,502.461 "/>
      <polyline fill="none" stroke="#262626" stroke-width="0.5pt" stroke-dasharray="none" points="121.875,430.288 126.205,430.288 "/>
      <polyline fill="none" stroke="#262626" stroke-width="0.5pt" stroke-dasharray="none" points="121.875,358.116 126.205,358.116 "/>
      <polyline fill="none" stroke="#262626" stroke-width="0.5pt" stroke-dasharray="none" points="121.875,285.943 126.205,285.943 "/>
      <polyline fill="none" stroke="#262626" stroke-width="0.5pt" stroke-dasharray="none" points="121.875,213.770 126.205,213.770 "/>
      <polyline fill="none" stroke="#262626" stroke-width="0.5pt" stroke-dasharray="none" points="121.875,141.597 126.205,141.597 "/>
      <polyline fill="none" stroke="#262626" stroke-width="0.5pt" stroke-dasharray="none" points="121.875,69.425 126.205,69.425 "/>
      <polyline fill="none" stroke="#262626" stroke-width="0.5pt" stroke-dasharray="none" points="121.875,502.461 121.875,69.425 "/>
  <g transform="translate(115.600,506.680)">
    <g transform="rotate(-0.0)">
      <text x="0.000" y="0.000" font-family="Helvetica" text-anchor="end" font-size="9pt" fill="#262626" >0</text>
    </g>
  </g>
  <g transform="translate(115.600,434.507)">
    <g transform="rotate(-0.0)">
      <text x="0.000" y="0.000" font-family="Helvetica" text-anchor="end" font-size="9pt" fill="#262626" >2</text>
    </g>
  </g>
  <g transform="translate(115.600,362.334)">
    <g transform="rotate(-0.0)">
      <text x="0.000" y="0.000" font-family="Helvetica" text-anchor="end" font-size="9pt" fill="#262626" >4</text>
    </g>
  </g>
  <g transform="translate(115.600,290.162)">
    <g transform="rotate(-0.0)">
      <text x="0.000" y="0.000" font-family="Helvetica" text-anchor="end" font-size="9pt" fill="#262626" >6</text>
    </g>
  </g>
  <g transform="translate(115.600,217.989)">
    <g transform="rotate(-0.0)">
      <text x="0.000" y="0.000" font-family="Helvetica" text-anchor="end" font-size="9pt" fill="#262626" >8</text>
    </g>
  </g>
  <g transform="translate(115.600,145.816)">
    <g transform="rotate(-0.0)">
      <text x="0.000" y="0.000" font-family="Helvetica" text-anchor="end" font-size="9pt" fill="#262626" >10</text>
    </g>
  </g>
  <g transform="translate(115.600,73.643)">
    <g transform="rotate(-0.0)">
      <text x="0.000" y="0.000" font-family="Helvetica" text-anchor="end" font-size="9pt" fill="#262626" >12</text>
    </g>
  </g>
      <polyline fill="none" stroke="#262626" stroke-width="0.5pt" stroke-dasharray="none" points="121.875,502.461 121.875,502.461 "/>
    </g>
  </g>
  <g id ="ID000004">
  <clipPath id="ID000005">
    <rect x="0.000" y="-562.500" width="937.500" height="562.500"/>
  </clipPath>
    <g>
<g id="ID000006" >
  <g transform="translate(468.750,34.031)">
    <g transform="rotate(-0.0)">
      <text x="0.000" y="0.000" font-family="Helvetica" text-anchor="middle" font-size="13pt" fill="#000000" >Signal-to-Noise Ratio Spectrum</text>
    </g>
  </g>
</g>
    </g>
  </g>
  <g id ="ID000007">
  <clipPath id="ID000008">
    <rect x="534.695" y="69.425" width="313.743" height="433.037"/>
  </clipPath>
      <polygon fill="#ffffff" fill-opacity="1.00" stroke="none" stroke-width="0.5pt" stroke-opacity="1.00" stroke-dasharray="none" points="534.695,502.461 848.438,502.461 848.438,69.425 534.695,69.425 "/>
      <polygon fill="#ffffff" fill-opacity="1.00" stroke="none" stroke-width="0.5pt" stroke-opacity="1.00" stroke-dasharray="none" points="534.695,69.425 848.438,69.425 848.438,69.425 534.695,69.425 "/>
      <polygon fill="#ffffff" fill-opacity="1.00" stroke="none" stroke-width="0.5pt" stroke-opacity="1.00" stroke-dasharray="none" points="534.695,502.461 534.695,502.461 534.695,69.425 534.695,69.425 "/>
    <g>
<g id="ID000009" clip-path="url(#ID000008)" >
      <polyline fill="none" stroke="#5394ff" stroke-width="1.0pt" stroke-dasharray="none" points="525.980,59.127 527.723,117.626 529.466,138.242 531.209,204.648 532.952,155.652 534.695,208.056 536.438,268.959 538.181,256.033 539.924,156.908 541.667,275.303 543.410,295.286 545.153,302.699 546.896,323.237 548.639,347.982 550.382,381.425 552.125,375.406 553.868,370.635 555.611,385.077 557.354,380.758 559.097,370.725 560.840,388.503 562.583,402.398 564.326,397.544 566.069,411.516 567.812,400.068 569.555,397.527 571.298,323.504 573.041,405.282 574.784,413.391 576.527,408.303 578.270,405.603 580.013,416.985 581.756,417.086 583.499,420.749 585.242,430.123 586.985,431.663 588.728,436.216 590.471,434.607 592.214,437.718 593.957,436.017 595.700,443.687 597.443,441.750 599.186,445.004 600.929,438.716 602.672,411.443 604.415,439.359 606.158,439.573 607.901,442.457 609.644,445.335 611.387,446.297 613.130,453.912 614.873,454.137 616.616,451.536 618.359,458.260 620.102,455.414 621.845,459.822 623.588,462.416 625.331,459.846 627.074,463.950 628.817,461.351 630.560,460.374 632.304,456.182 634.047,442.370 635.790,461.448 637.533,466.632 639.276,464.605 641.019,462.667 642.762,454.275 644.505,459.852 646.248,467.252 647.991,466.981 649.734,469.203 651.477,469.785 653.220,469.560 654.963,467.309 656.706,471.106 658.449,470.953 660.192,469.853 661.935,471.367 663.678,445.819 665.421,279.669 667.164,461.848 668.907,473.143 670.650,474.433 672.393,472.525 674.136,474.057 675.879,474.236 677.622,474.798 679.365,473.721 681.108,474.815 682.851,473.880 684.594,471.624 686.337,476.538 688.080,476.498 689.823,475.854 691.566,474.308 693.309,472.712 695.052,472.463 696.795,465.641 698.538,472.161 700.281,472.536 702.024,475.003 703.767,472.825 705.510,473.732 707.253,475.592 708.996,471.754 710.739,474.167 712.482,473.832 714.225,476.165 715.968,474.024 717.711,472.001 719.454,474.662 721.197,474.181 722.940,475.681 724.683,472.534 726.426,471.514 728.169,458.692 729.912,469.298 731.655,468.386 733.398,468.688 735.141,471.682 736.884,468.932 738.627,463.889 740.371,466.558 742.114,469.303 743.857,464.874 745.600,463.376 747.343,464.588 749.086,468.759 750.829,469.066 752.572,464.981 754.315,467.413 756.058,466.810 757.801,464.953 759.544,455.679 761.287,466.564 763.030,461.716 764.773,457.737 766.516,454.590 768.259,459.491 770.002,458.329 771.745,453.850 773.488,450.954 775.231,455.734 776.974,458.079 778.717,457.454 780.460,455.178 782.203,451.328 783.946,466.139 785.689,467.624 787.432,468.098 789.175,463.312 790.918,460.710 792.661,460.075 794.404,465.854 796.147,462.469 797.890,465.850 799.633,465.548 801.376,467.710 803.119,473.700 804.862,476.822 806.605,477.841 808.348,475.533 810.091,474.428 811.834,479.497 813.577,477.235 815.320,474.950 817.063,477.896 818.806,479.075 820.549,474.600 822.292,448.249 824.035,478.559 825.778,480.589 827.521,479.311 829.264,481.575 831.007,483.291 832.750,482.158 834.493,482.650 836.236,482.930 837.979,485.454 839.722,484.050 841.465,484.545 843.208,485.891 844.951,484.119 846.694,486.430 848.438,486.714 850.181,486.300 851.924,486.771 853.667,484.249 855.410,487.436 857.153,486.195 858.896,487.210 860.639,487.374 862.382,485.850 864.125,487.047 865.868,486.045 867.611,487.929 869.354,487.232 871.097,488.001 872.840,486.993 874.583,488.298 876.326,487.846 878.069,487.229 879.812,487.830 881.555,487.447 883.298,488.650 885.041,489.849 886.784,489.660 888.527,488.380 890.270,489.896 892.013,489.136 893.756,489.361 895.499,488.925 897.242,489.358 898.985,490.277 900.728,488.915 902.471,487.713 904.214,489.065 905.957,489.765 907.700,490.146 909.443,489.072 911.186,488.851 912.929,489.550 914.672,489.945 916.415,489.497 918.158,490.406 919.901,490.034 921.644,490.765 923.387,490.813 925.130,490.332 926.873,490.498 928.616,491.239 930.359,489.582 932.102,491.257 933.845,490.716 935.588,489.770 937.331,490.593 939.074,489.936 940.817,489.771 942.560,490.903 944.303,490.926 946.046,490.462 947.789,489.873 949.532,491.828 951.275,491.348 953.018,490.049 954.761,490.922 956.504,490.693 958.248,490.300 959.991,489.875 961.734,491.840 963.477,491.315 965.220,491.430 966.963,491.967 968.706,491.655 970.449,491.304 972.192,491.452 973.935,492.101 975.678,493.090 977.421,492.406 979.164,486.968 980.907,490.787 982.650,492.185 984.393,490.178 986.136,492.116 987.879,491.007 989.622,492.965 991.365,492.745 993.108,492.826 994.851,493.251 996.594,492.969 998.337,492.758 1000.080,494.516 1001.823,493.663 1003.566,493.221 1005.309,493.517 1007.052,493.574 1008.795,493.202 1010.538,492.272 1012.281,493.469 1014.024,492.858 1015.767,492.832 1017.510,492.627 1019.253,493.965 1020.996,493.467 1022.739,493.476 1024.482,493.260 1026.225,493.291 1027.968,493.227 1029.711,492.313 1031.454,493.048 1033.197,494.704 1034.940,494.489 1036.683,493.949 1038.426,494.554 1040.169,494.234 1041.912,494.433 1043.655,494.597 1045.398,494.402 1047.141,494.090 1048.884,493.243 1050.627,493.131 1052.370,494.825 1054.113,493.892 1055.856,493.638 1057.599,493.615 1059.342,494.855 1061.085,495.095 1062.828,494.044 1064.571,493.478 1066.315,495.047 1068.058,494.371 1069.801,494.458 1071.544,493.642 1073.287,494.320 1075.030,493.698 1076.773,493.485 1078.516,493.636 1080.259,492.379 1082.002,494.564 1083.745,494.953 1085.488,494.748 1087.231,495.965 1088.974,494.437 1090.717,494.863 1092.460,494.970 1094.203,494.225 1095.946,494.692 1097.689,492.915 1099.432,494.783 1101.175,495.138 1102.918,495.856 1104.661,494.421 1106.404,494.898 1108.147,495.698 1109.890,494.401 1111.633,494.355 1113.376,494.840 1115.119,492.578 1116.862,495.132 1118.605,494.877 1120.348,494.699 1122.091,495.891 1123.834,496.039 1125.577,494.164 1127.320,495.027 1129.063,494.658 1130.806,494.658 1132.549,495.472 1134.292,495.498 1136.035,494.188 1137.778,493.694 1139.521,492.821 1141.264,495.865 1143.007,495.791 1144.750,495.143 1146.493,494.501 1148.236,495.259 1149.979,494.816 1151.722,494.201 1153.465,494.247 1155.208,495.273 1156.951,496.014 1158.694,496.984 1160.437,494.867 1162.180,496.054 1163.923,497.288 1165.666,494.713 1167.409,494.745 1169.152,496.850 1170.895,496.046 1172.638,495.456 1174.382,496.192 1176.125,495.194 1177.868,495.333 1179.611,495.284 1181.354,495.985 1183.097,495.846 1184.840,496.558 1186.583,495.054 1188.326,493.751 1190.069,494.158 1191.812,495.174 1193.555,495.196 1195.298,495.135 1197.041,493.042 1198.784,494.898 1200.527,495.359 1202.270,497.131 1204.013,496.149 1205.756,496.122 1207.499,496.392 1209.242,496.973 1210.985,496.330 1212.728,495.415 1214.471,494.894 1216.214,497.047 1217.957,495.977 1219.700,496.067 1221.443,496.281 1223.186,495.371 1224.929,496.903 1226.672,496.475 1228.415,495.445 1230.158,497.027 1231.901,496.830 1233.644,494.778 1235.387,495.637 1237.130,497.742 1238.873,497.825 1240.616,495.222 1242.359,497.359 1244.102,496.596 1245.845,496.562 1247.588,496.076 1249.331,496.335 1251.074,496.964 1252.817,495.342 1254.560,497.112 1256.303,497.317 1258.046,497.292 1259.789,496.746 1261.532,497.029 1263.275,495.444 1265.018,496.202 1266.761,496.337 1268.504,497.029 1270.247,496.855 1271.990,497.205 1273.733,496.535 "/>
<g>
</g>
</g>
<g id="ID000010" clip-path="url(#ID000008)" >
      <polygon fill="#5394ff" fill-opacity="0.20" stroke="none" stroke-width="0.5pt" stroke-opacity="1.00" stroke-dasharray="none" points="525.980,125.670 527.723,158.537 529.466,178.488 531.209,236.879 532.952,201.233 534.695,245.715 536.438,291.209 538.181,278.762 539.924,189.085 541.667,291.036 543.410,311.543 545.153,324.409 546.896,337.226 548.639,366.139 550.382,391.058 552.125,387.306 553.868,380.961 555.611,393.200 557.354,389.885 559.097,383.734 560.840,397.666 562.583,408.772 564.326,406.884 566.069,419.244 567.812,409.380 569.555,404.954 571.298,338.684 573.041,411.013 574.784,420.913 576.527,414.843 578.270,412.939 580.013,423.225 581.756,422.740 583.499,425.995 585.242,436.106 586.985,436.876 588.728,440.569 590.471,439.406 592.214,441.802 593.957,440.602 595.700,447.199 597.443,446.750 599.186,448.809 600.929,443.298 602.672,418.402 604.415,443.935 606.158,443.648 607.901,447.918 609.644,450.065 611.387,450.322 613.130,457.409 614.873,456.968 616.616,454.935 618.359,461.686 620.102,458.462 621.845,462.946 623.588,464.278 625.331,462.697 627.074,465.826 628.817,464.041 630.560,463.250 632.304,459.597 634.047,448.045 635.790,463.914 637.533,469.095 639.276,467.664 641.019,465.646 642.762,462.244 644.505,464.319 646.248,469.250 647.991,468.655 649.734,471.173 651.477,471.837 653.220,472.061 654.963,469.616 656.706,472.849 658.449,472.251 660.192,471.677 661.935,473.056 663.678,451.166 665.421,317.301 667.164,464.029 668.907,475.161 670.650,475.694 672.393,474.733 674.136,475.650 675.879,475.677 677.622,476.482 679.365,475.481 681.108,476.631 682.851,476.092 684.594,473.806 686.337,478.004 688.080,478.212 689.823,477.223 691.566,475.879 693.309,474.385 695.052,474.268 696.795,468.383 698.538,474.076 700.281,474.552 702.024,476.480 703.767,474.550 705.510,476.053 707.253,478.310 708.996,474.286 710.739,477.088 712.482,476.503 714.225,478.819 715.968,476.695 717.711,474.555 719.454,476.905 721.197,476.458 722.940,478.000 724.683,475.616 726.426,474.309 728.169,462.673 729.912,473.048 731.655,473.886 733.398,475.155 735.141,477.158 736.884,476.344 738.627,474.393 740.371,478.027 742.114,476.068 743.857,476.997 745.600,473.953 747.343,473.677 749.086,473.897 750.829,474.291 752.572,469.969 754.315,472.227 756.058,471.397 757.801,470.576 759.544,461.766 761.287,470.218 763.030,466.824 764.773,464.208 766.516,462.238 768.259,464.485 770.002,463.988 771.745,461.197 773.488,465.549 775.231,469.724 776.974,465.494 778.717,465.433 780.460,466.978 782.203,464.298 783.946,471.262 785.689,471.624 787.432,472.325 789.175,469.270 790.918,465.989 792.661,467.442 794.404,471.067 796.147,472.514 797.890,471.438 799.633,471.206 801.376,472.964 803.119,478.363 804.862,480.553 806.605,480.846 808.348,479.740 810.091,479.068 811.834,482.438 813.577,480.630 815.320,479.371 817.063,481.817 818.806,481.636 820.549,478.418 822.292,459.011 824.035,481.060 825.778,483.549 827.521,481.850 829.264,484.091 831.007,485.530 832.750,484.400 834.493,484.404 836.236,485.020 837.979,487.209 839.722,487.111 841.465,486.372 843.208,487.656 844.951,486.166 846.694,488.028 848.438,488.416 850.181,487.889 851.924,488.064 853.667,486.689 855.410,488.942 857.153,487.967 858.896,489.073 860.639,489.524 862.382,487.996 864.125,488.990 865.868,488.058 867.611,489.555 869.354,488.894 871.097,489.379 872.840,488.973 874.583,490.101 876.326,489.782 878.069,489.294 879.812,489.762 881.555,490.144 883.298,490.274 885.041,490.922 886.784,491.142 888.527,490.144 890.270,491.469 892.013,490.811 893.756,491.100 895.499,490.759 897.242,491.486 898.985,491.890 900.728,490.907 902.471,491.227 904.214,491.410 905.957,491.286 907.700,491.759 909.443,491.482 911.186,490.874 912.929,491.116 914.672,491.795 916.415,491.286 918.158,492.333 919.901,491.634 921.644,492.100 923.387,492.202 925.130,491.900 926.873,492.745 928.616,492.959 930.359,491.697 932.102,492.221 933.845,492.734 935.588,492.105 937.331,491.954 939.074,491.816 940.817,491.882 942.560,492.638 944.303,492.785 946.046,492.169 947.789,492.013 949.532,493.384 951.275,492.979 953.018,492.772 954.761,493.017 956.504,492.633 958.248,492.499 959.991,491.937 961.734,493.626 963.477,492.909 965.220,493.484 966.963,493.472 968.706,492.935 970.449,493.403 972.192,493.256 973.935,494.062 975.678,494.396 977.421,494.086 979.164,489.770 980.907,492.581 982.650,493.365 984.393,492.929 986.136,493.676 987.879,492.960 989.622,494.101 991.365,494.167 993.108,494.149 994.851,494.563 996.594,494.497 998.337,494.374 1000.080,495.301 1001.823,494.907 1003.566,494.546 1005.309,494.779 1007.052,494.943 1008.795,494.844 1010.538,493.762 1012.281,494.911 1014.024,494.558 1015.767,494.565 1017.510,494.078 1019.253,495.299 1020.996,495.009 1022.739,495.284 1024.482,494.666 1026.225,495.243 1027.968,495.133 1029.711,494.453 1031.454,494.719 1033.197,495.741 1034.940,495.552 1036.683,494.878 1038.426,495.447 1040.169,495.332 1041.912,495.481 1043.655,495.668 1045.398,495.465 1047.141,495.412 1048.884,495.075 1050.627,494.764 1052.370,495.869 1054.113,495.499 1055.856,495.552 1057.599,494.990 1059.342,496.057 1061.085,496.256 1062.828,495.622 1064.571,495.491 1066.315,496.191 1068.058,495.486 1069.801,495.670 1071.544,495.571 1073.287,495.768 1075.030,495.511 1076.773,495.211 1078.516,495.648 1080.259,494.899 1082.002,495.655 1083.745,496.021 1085.488,495.839 1087.231,496.784 1088.974,496.283 1090.717,496.242 1092.460,496.009 1094.203,495.718 1095.946,496.209 1097.689,495.390 1099.432,496.068 1101.175,496.409 1102.918,496.925 1104.661,496.194 1106.404,496.363 1108.147,496.898 1109.890,496.283 1111.633,496.145 1113.376,496.414 1115.119,495.554 1116.862,496.614 1118.605,496.291 1120.348,496.663 1122.091,496.952 1123.834,497.320 1125.577,496.044 1127.320,496.721 1129.063,496.530 1130.806,496.380 1132.549,496.808 1134.292,496.968 1136.035,496.221 1137.778,496.291 1139.521,495.636 1141.264,497.171 1143.007,497.153 1144.750,497.138 1146.493,496.223 1148.236,496.734 1149.979,496.747 1151.722,496.638 1153.465,496.549 1155.208,496.916 1156.951,497.586 1158.694,497.790 1160.437,496.845 1162.180,497.182 1163.923,498.137 1165.666,497.048 1167.409,496.983 1169.152,497.724 1170.895,497.779 1172.638,497.144 1174.382,497.479 1176.125,497.033 1177.868,497.127 1179.611,497.234 1181.354,497.585 1183.097,497.426 1184.840,497.948 1186.583,497.140 1188.326,496.665 1190.069,496.399 1191.812,497.423 1193.555,497.211 1195.298,497.180 1197.041,496.594 1198.784,497.713 1200.527,497.524 1202.270,498.176 1204.013,497.817 1205.756,497.534 1207.499,498.050 1209.242,498.103 1210.985,498.444 1212.728,497.390 1214.471,497.208 1216.214,498.205 1217.957,497.594 1219.700,497.583 1221.443,497.801 1223.186,497.367 1224.929,498.381 1226.672,498.074 1228.415,497.400 1230.158,498.195 1231.901,498.353 1233.644,497.414 1235.387,497.774 1237.130,498.892 1238.873,498.822 1240.616,497.436 1242.359,498.446 1244.102,498.709 1245.845,498.124 1247.588,498.237 1249.331,498.551 1251.074,498.553 1252.817,497.826 1254.560,498.438 1256.303,498.618 1258.046,498.726 1259.789,498.350 1261.532,498.179 1263.275,497.665 1265.018,497.960 1266.761,498.073 1268.504,498.372 1270.247,498.111 1271.990,498.586 1273.733,498.260 1273.733,494.809 1271.990,495.825 1270.247,495.598 1268.504,495.685 1266.761,494.601 1265.018,494.444 1263.275,493.223 1261.532,495.878 1259.789,495.143 1258.046,495.858 1256.303,496.015 1254.560,495.786 1252.817,492.857 1251.074,495.374 1249.331,494.118 1247.588,493.914 1245.845,495.001 1244.102,494.483 1242.359,496.272 1240.616,493.008 1238.873,496.828 1237.130,496.592 1235.387,493.500 1233.644,492.142 1231.901,495.308 1230.158,495.858 1228.415,493.489 1226.672,494.877 1224.929,495.425 1223.186,493.374 1221.443,494.761 1219.700,494.552 1217.957,494.360 1216.214,495.888 1214.471,492.581 1212.728,493.440 1210.985,494.216 1209.242,495.842 1207.499,494.733 1205.756,494.710 1204.013,494.482 1202.270,496.087 1200.527,493.194 1198.784,492.083 1197.041,489.490 1195.298,493.090 1193.555,493.180 1191.812,492.924 1190.069,491.917 1188.326,490.837 1186.583,492.969 1184.840,495.167 1183.097,494.267 1181.354,494.386 1179.611,493.334 1177.868,493.540 1176.125,493.354 1174.382,494.906 1172.638,493.768 1170.895,494.314 1169.152,495.976 1167.409,492.507 1165.666,492.378 1163.923,496.439 1162.180,494.927 1160.437,492.888 1158.694,496.177 1156.951,494.443 1155.208,493.630 1153.465,491.945 1151.722,491.763 1149.979,492.885 1148.236,493.785 1146.493,492.779 1144.750,493.148 1143.007,494.430 1141.264,494.560 1139.521,490.006 1137.778,491.096 1136.035,492.155 1134.292,494.029 1132.549,494.136 1130.806,492.937 1129.063,492.787 1127.320,493.332 1125.577,492.283 1123.834,494.757 1122.091,494.830 1120.348,492.734 1118.605,493.462 1116.862,493.651 1115.119,489.602 1113.376,493.267 1111.633,492.566 1109.890,492.520 1108.147,494.499 1106.404,493.432 1104.661,492.649 1102.918,494.786 1101.175,493.866 1099.432,493.499 1097.689,490.439 1095.946,493.176 1094.203,492.733 1092.460,493.930 1090.717,493.484 1088.974,492.591 1087.231,495.147 1085.488,493.656 1083.745,493.885 1082.002,493.473 1080.259,489.858 1078.516,491.624 1076.773,491.759 1075.030,491.886 1073.287,492.872 1071.544,491.713 1069.801,493.246 1068.058,493.256 1066.315,493.903 1064.571,491.466 1062.828,492.466 1061.085,493.935 1059.342,493.653 1057.599,492.240 1055.856,491.724 1054.113,492.284 1052.370,493.782 1050.627,491.498 1048.884,491.411 1047.141,492.768 1045.398,493.338 1043.655,493.526 1041.912,493.385 1040.169,493.135 1038.426,493.660 1036.683,493.019 1034.940,493.426 1033.197,493.668 1031.454,491.378 1029.711,490.172 1027.968,491.320 1026.225,491.340 1024.482,491.854 1022.739,491.668 1020.996,491.926 1019.253,492.631 1017.510,491.176 1015.767,491.099 1014.024,491.158 1012.281,492.027 1010.538,490.782 1008.795,491.559 1007.052,492.204 1005.309,492.256 1003.566,491.896 1001.823,492.418 1000.080,493.731 998.337,491.141 996.594,491.441 994.851,491.939 993.108,491.504 991.365,491.323 989.622,491.830 987.879,489.053 986.136,490.555 984.393,487.427 982.650,491.005 980.907,488.992 979.164,484.165 977.421,490.726 975.678,491.783 973.935,490.141 972.192,489.648 970.449,489.206 968.706,490.375 966.963,490.463 965.220,489.377 963.477,489.720 961.734,490.054 959.991,487.814 958.248,488.100 956.504,488.752 954.761,488.827 953.018,487.327 951.275,489.716 949.532,490.271 947.789,487.733 946.046,488.755 944.303,489.068 942.560,489.167 940.817,487.660 939.074,488.057 937.331,489.233 935.588,487.435 933.845,488.698 932.102,490.293 930.359,487.467 928.616,489.519 926.873,488.251 925.130,488.764 923.387,489.423 921.644,489.431 919.901,488.434 918.158,488.478 916.415,487.709 914.672,488.094 912.929,487.983 911.186,486.827 909.443,486.661 907.700,488.532 905.957,488.244 904.214,486.721 902.471,484.199 900.728,486.922 898.985,488.664 897.242,487.230 895.499,487.090 893.756,487.623 892.013,487.460 890.270,488.324 888.527,486.616 886.784,488.177 885.041,488.776 883.298,487.025 881.555,484.750 879.812,485.899 878.069,485.165 876.326,485.910 874.583,486.495 872.840,485.012 871.097,486.622 869.354,485.570 867.611,486.302 865.868,484.033 864.125,485.103 862.382,483.705 860.639,485.224 858.896,485.347 857.153,484.424 855.410,485.931 853.667,481.809 851.924,485.478 850.181,484.710 848.438,485.011 846.694,484.831 844.951,482.071 843.208,484.126 841.465,482.717 839.722,480.989 837.979,483.700 836.236,480.840 834.493,480.896 832.750,479.915 831.007,481.051 829.264,479.059 827.521,476.772 825.778,477.629 824.035,476.058 822.292,437.487 820.549,470.783 818.806,476.515 817.063,473.976 815.320,470.529 813.577,473.841 811.834,476.557 810.091,469.788 808.348,471.326 806.605,474.836 804.862,473.090 803.119,469.038 801.376,462.456 799.633,459.890 797.890,460.262 796.147,452.424 794.404,460.641 792.661,452.707 790.918,455.432 789.175,457.353 787.432,463.871 785.689,463.625 783.946,461.016 782.203,438.358 780.460,443.378 778.717,449.474 776.974,450.665 775.231,441.743 773.488,436.359 771.745,446.502 770.002,452.669 768.259,454.497 766.516,446.942 764.773,451.265 763.030,456.608 761.287,462.909 759.544,449.592 757.801,459.330 756.058,462.222 754.315,462.599 752.572,459.994 750.829,463.842 749.086,463.622 747.343,455.500 745.600,452.799 743.857,452.751 742.114,462.538 740.371,455.089 738.627,453.385 736.884,461.519 735.141,466.206 733.398,462.220 731.655,462.886 729.912,465.547 728.169,454.712 726.426,468.720 724.683,469.452 722.940,473.363 721.197,471.905 719.454,472.420 717.711,469.448 715.968,471.353 714.225,473.511 712.482,471.162 710.739,471.247 708.996,469.223 707.253,472.874 705.510,471.410 703.767,471.101 702.024,473.526 700.281,470.520 698.538,470.247 696.795,462.898 695.052,470.659 693.309,471.038 691.566,472.737 689.823,474.484 688.080,474.785 686.337,475.071 684.594,469.442 682.851,471.667 681.108,472.998 679.365,471.961 677.622,473.114 675.879,472.795 674.136,472.463 672.393,470.316 670.650,473.173 668.907,471.125 667.164,459.668 665.421,242.037 663.678,440.472 661.935,469.678 660.192,468.029 658.449,469.654 656.706,469.362 654.963,465.002 653.220,467.058 651.477,467.733 649.734,467.232 647.991,465.306 646.248,465.254 644.505,455.386 642.762,446.306 641.019,459.688 639.276,461.546 637.533,464.169 635.790,458.982 634.047,436.695 632.304,452.767 630.560,457.499 628.817,458.661 627.074,462.074 625.331,456.995 623.588,460.555 621.845,456.698 620.102,452.365 618.359,454.834 616.616,448.137 614.873,451.306 613.130,450.415 611.387,442.272 609.644,440.605 607.901,436.996 606.158,435.499 604.415,434.783 602.672,404.484 600.929,434.134 599.186,441.199 597.443,436.751 595.700,440.175 593.957,431.431 592.214,433.634 590.471,429.807 588.728,431.864 586.985,426.451 585.242,424.141 583.499,415.503 581.756,411.432 580.013,410.745 578.270,398.267 576.527,401.763 574.784,405.869 573.041,399.551 571.298,308.324 569.555,390.100 567.812,390.755 566.069,403.788 564.326,388.204 562.583,396.024 560.840,379.340 559.097,357.716 557.354,371.630 555.611,376.954 553.868,360.309 552.125,363.505 550.382,371.792 548.639,329.825 546.896,309.248 545.153,280.990 543.410,279.028 541.667,259.571 539.924,124.732 538.181,233.305 536.438,246.709 534.695,170.397 532.952,110.070 531.209,172.417 529.466,97.996 527.723,76.715 525.980,-7.416 "/>
</g>
    </g>
    <g>
      <polyline fill="none" stroke="#262626" stroke-width="0.5pt" stroke-dasharray="none" points="539.924,502.461 539.924,498.131 "/>
      <polyline fill="none" stroke="#262626" stroke-width="0.5pt" stroke-dasharray="none" points="571.298,502.461 571.298,498.131 "/>
      <polyline fill="none" stroke="#262626" stroke-width="0.5pt" stroke-dasharray="none" points="602.672,502.461 602.672,498.131 "/>
      <polyline fill="none" stroke="#262626" stroke-width="0.5pt" stroke-dasharray="none" points="634.047,502.461 634.047,498.131 "/>
      <polyline fill="none" stroke="#262626" stroke-width="0.5pt" stroke-dasharray="none" points="665.421,502.461 665.421,498.131 "/>
      <polyline fill="none" stroke="#262626" stroke-width="0.5pt" stroke-dasharray="none" points="696.795,502.461 696.795,498.131 "/>
      <polyline fill="none" stroke="#262626" stroke-width="0.5pt" stroke-dasharray="none" points="728.169,502.461 728.169,498.131 "/>
      <polyline fill="none" stroke="#262626" stroke-width="0.5pt" stroke-dasharray="none" points="759.544,502.461 759.544,498.131 "/>
      <polyline fill="none" stroke="#262626" stroke-width="0.5pt" stroke-dasharray="none" points="790.918,502.461 790.918,498.131 "/>
      <polyline fill="none" stroke="#262626" stroke-width="0.5pt" stroke-dasharray="none" points="822.292,502.461 822.292,498.131 "/>
      <polyline fill="none" stroke="#262626" stroke-width="0.5pt" stroke-dasharray="none" points="534.695,502.461 848.438,502.461 "/>
  <g transform="translate(539.924,522.184)">
    <g transform="rotate(-0.0)">
      <text x="0.000" y="0.000" font-family="Helvetica" text-anchor="middle" font-size="9pt" fill="#262626" >1.2</text>
    </g>
  </g>
  <g transform="translate(571.298,522.184)">
    <g transform="rotate(-0.0)">
      <text x="0.000" y="0.000" font-family="Helvetica" text-anchor="middle" font-size="9pt" fill="#262626" >2.4</text>
    </g>
  </g>
  <g transform="translate(602.672,522.184)">
    <g transform="rotate(-0.0)">
      <text x="0.000" y="0.000" font-family="Helvetica" text-anchor="middle" font-size="9pt" fill="#262626" >3.6</text>
    </g>
  </g>
  <g transform="translate(634.047,522.184)">
    <g transform="rotate(-0.0)">
      <text x="0.000" y="0.000" font-family="Helvetica" text-anchor="middle" font-size="9pt" fill="#262626" >4.8</text>
    </g>
  </g>
  <g transform="translate(665.421,522.184)">
    <g transform="rotate(-0.0)">
      <text x="0.000" y="0.000" font-family="Helvetica" text-anchor="middle" font-size="9pt" fill="#262626" >6</text>
    </g>
  </g>
  <g transform="translate(696.795,522.184)">
    <g transform="rotate(-0.0)">
      <text x="0.000" y="0.000" font-family="Helvetica" text-anchor="middle" font-size="9pt" fill="#262626" >7.2</text>
    </g>
  </g>
  <g transform="translate(728.169,522.184)">
    <g transform="rotate(-0.0)">
      <text x="0.000" y="0.000" font-family="Helvetica" text-anchor="middle" font-size="9pt" fill="#262626" >8.4</text>
    </g>
  </g>
  <g transform="translate(759.544,522.184)">
    <g transform="rotate(-0.0)">
      <text x="0.000" y="0.000" font-family="Helvetica" text-anchor="middle" font-size="9pt" fill="#262626" >9.6</text>
    </g>
  </g>
  <g transform="translate(790.918,522.184)">
    <g transform="rotate(-0.0)">
      <text x="0.000" y="0.000" font-family="Helvetica" text-anchor="middle" font-size="9pt" fill="#262626" >10.8</text>
    </g>
  </g>
  <g transform="translate(822.292,522.184)">
    <g transform="rotate(-0.0)">
      <text x="0.000" y="0.000" font-family="Helvetica" text-anchor="middle" font-size="9pt" fill="#262626" >12</text>
    </g>
  </g>
      <polyline fill="none" stroke="#262626" stroke-width="0.5pt" stroke-dasharray="none" points="534.695,502.461 539.025,502.461 "/>
      <polyline fill="none" stroke="#262626" stroke-width="0.5pt" stroke-dasharray="none" points="534.695,440.599 539.025,440.599 "/>
      <polyline fill="none" stroke="#262626" stroke-width="0.5pt" stroke-dasharray="none" points="534.695,378.736 539.025,378.736 "/>
      <polyline fill="none" stroke="#262626" stroke-width="0.5pt" stroke-dasharray="none" points="534.695,316.874 539.025,316.874 "/>
      <polyline fill="none" stroke="#262626" stroke-width="0.5pt" stroke-dasharray="none" points="534.695,255.012 539.025,255.012 "/>
      <polyline fill="none" stroke="#262626" stroke-width="0.5pt" stroke-dasharray="none" points="534.695,193.149 539.025,193.149 "/>
      <polyline fill="none" stroke="#262626" stroke-width="0.5pt" stroke-dasharray="none" points="534.695,131.287 539.025,131.287 "/>
      <polyline fill="none" stroke="#262626" stroke-width="0.5pt" stroke-dasharray="none" points="534.695,69.425 539.025,69.425 "/>
      <polyline fill="none" stroke="#262626" stroke-width="0.5pt" stroke-dasharray="none" points="534.695,502.461 534.695,69.425 "/>
  <g transform="translate(528.420,506.680)">
    <g transform="rotate(-0.0)">
      <text x="0.000" y="0.000" font-family="Helvetica" text-anchor="end" font-size="9pt" fill="#262626" >0</text>
    </g>
  </g>
  <g transform="translate(528.420,444.817)">
    <g transform="rotate(-0.0)">
      <text x="0.000" y="0.000" font-family="Helvetica" text-anchor="end" font-size="9pt" fill="#262626" >2</text>
    </g>
  </g>
  <g transform="translate(528.420,382.955)">
    <g transform="rotate(-0.0)">
      <text x="0.000" y="0.000" font-family="Helvetica" text-anchor="end" font-size="9pt" fill="#262626" >4</text>
    </g>
  </g>
  <g transform="translate(528.420,321.093)">
    <g transform="rotate(-0.0)">
      <text x="0.000" y="0.000" font-family="Helvetica" text-anchor="end" font-size="9pt" fill="#262626" >6</text>
    </g>
  </g>
  <g transform="translate(528.420,259.230)">
    <g transform="rotate(-0.0)">
      <text x="0.000" y="0.000" font-family="Helvetica" text-anchor="end" font-size="9pt" fill="#262626" >8</text>
    </g>
  </g>
  <g transform="translate(528.420,197.368)">
    <g transform="rotate(-0.0)">
      <text x="0.000" y="0.000" font-family="Helvetica" text-anchor="end" font-size="9pt" fill="#262626" >10</text>
    </g>
  </g>
  <g transform="translate(528.420,135.506)">
    <g transform="rotate(-0.0)">
      <text x="0.000" y="0.000" font-family="Helvetica" text-anchor="end" font-size="9pt" fill="#262626" >12</text>
    </g>
  </g>
  <g transform="translate(528.420,73.643)">
    <g transform="rotate(-0.0)">
      <text x="0.000" y="0.000" font-family="Helvetica" text-anchor="end" font-size="9pt" fill="#262626" >14</text>
    </g>
  </g>
      <polyline fill="none" stroke="#262626" stroke-width="0.5pt" stroke-dasharray="none" points="534.695,502.461 534.695,502.461 "/>
    </g>
  </g>
  </g>
</svg>
