<?xml version="1.0" encoding="utf-8" standalone="no"?><!DOCTYPE svg PUBLIC "-//W3C//DTD SVG 1.1//EN" "http://www.w3.org/Graphics/SVG/1.1/DTD/svg11.dtd">
<svg preserveAspectRatio="xMinYMin meet" width="100%" height="100%" viewBox="0 0 937.500 562.500"  version="1.1" xmlns="http://www.w3.org/2000/svg" xmlns:xlink="http://www.w3.org/1999/xlink">
  <desc>Matlab Figure Converted by PLOT2SVG written by Juerg Schwizer</desc>
  <g id="topgroup">
  <rect x="0" y="0" width="937.500" height="562.500" fill="#ffffff" stroke="none" />
  <g id ="ID000000">
  <clipPath id="ID000001">
    <rect x="121.875" y="69.425" width="313.743" height="433.037"/>
  </clipPath>
      <polygon fill="#ffffff" fill-opacity="1.00" stroke="none" stroke-width="0.5pt" stroke-opacity="1.00" stroke-dasharray="none" points="121.875,502.461 435.618,502.461 435.618,69.425 121.875,69.425 "/>
      <polygon fill="#ffffff" fill-opacity="1.00" stroke="none" stroke-width="0.5pt" stroke-opacity="1.00" stroke-dasharray="none" points="121.875,69.425 435.618,69.425 435.618,69.425 121.875,69.425 "/>
      <polygon fill="#ffffff" fill-opacity="1.00" stroke="none" stroke-width="0.5pt" stroke-opacity="1.00" stroke-dasharray="none" points="121.875,502.461 121.875,502.461 121.875,69.425 121.875,69.425 "/>
    <g>
<g id="ID000002" clip-path="url(#ID000001)" >
      <polyline fill="none" stroke="#5394ff" stroke-width="1.0pt" stroke-dasharray="none" points="95.730,-3114.926 97.473,-38823.938 99.216,-29505.669 100.959,-5984.864 102.702,-3266.598 104.445,-1675.410 106.188,-928.911 107.931,-300.235 109.674,-214.293 111.417,-42.669 113.160,65.352 114.903,155.626 116.646,169.303 118.389,220.964 120.132,220.921 121.875,266.138 123.618,281.908 125.361,302.030 127.104,200.172 128.847,303.511 130.590,332.069 132.333,336.512 134.076,342.711 135.819,371.627 137.562,371.573 139.305,392.119 141.048,392.091 142.791,397.590 144.534,399.166 146.277,396.931 148.020,409.377 149.763,407.190 151.506,400.543 153.249,415.079 154.992,413.730 156.735,404.905 158.478,292.171 160.221,407.882 161.964,429.286 163.707,426.197 165.450,425.028 167.193,435.687 168.936,434.236 170.679,434.046 172.422,437.976 174.165,437.041 175.908,445.327 177.652,441.308 179.395,444.139 181.138,444.991 182.881,446.645 184.624,447.597 186.367,446.309 188.110,442.492 189.853,407.071 191.596,443.264 193.339,453.321 195.082,460.983 196.825,460.154 198.568,459.651 200.311,460.905 202.054,460.007 203.797,463.860 205.540,461.575 207.283,462.492 209.026,460.583 210.769,463.395 212.512,460.243 214.255,464.922 215.998,461.067 217.741,469.869 219.484,464.810 221.227,454.365 222.970,471.205 224.713,469.446 226.456,468.649 228.199,468.661 229.942,465.070 231.685,468.550 233.428,464.822 235.171,470.632 236.914,471.953 238.657,472.482 240.400,473.149 242.143,470.696 243.886,471.824 245.629,473.950 247.372,474.694 249.115,471.255 250.858,441.722 252.601,162.702 254.344,460.200 256.087,474.353 257.830,474.552 259.573,475.689 261.316,475.248 263.059,477.006 264.802,475.854 266.545,475.678 268.288,476.550 270.031,477.949 271.774,476.364 273.517,472.913 275.260,475.438 277.003,478.511 278.746,477.714 280.489,478.542 282.232,478.027 283.975,463.780 285.719,478.926 287.462,479.399 289.205,476.618 290.948,479.684 292.691,479.408 294.434,474.116 296.177,475.025 297.920,475.787 299.663,479.885 301.406,475.114 303.149,476.081 304.892,479.334 306.635,477.879 308.378,478.982 310.121,479.026 311.864,479.200 313.607,480.116 315.350,465.853 317.093,477.155 318.836,479.360 320.579,478.133 322.322,477.120 324.065,476.644 325.808,476.690 327.551,478.268 329.294,477.419 331.037,477.959 332.780,474.647 334.523,474.723 336.266,474.357 338.009,476.735 339.752,473.183 341.495,471.870 343.238,476.150 344.981,470.951 346.724,462.104 348.467,472.028 350.210,465.930 351.953,472.250 353.696,464.659 355.439,469.018 357.182,466.400 358.925,464.765 360.668,466.338 362.411,463.532 364.154,471.294 365.897,470.649 367.640,461.680 369.383,465.342 371.126,470.431 372.869,471.310 374.612,472.170 376.355,467.432 378.098,458.492 379.841,469.296 381.584,472.787 383.327,474.561 385.070,473.278 386.813,478.372 388.556,476.530 390.299,473.834 392.042,476.995 393.786,478.423 395.529,481.524 397.272,478.961 399.015,479.504 400.758,480.553 402.501,482.023 404.244,480.319 405.987,482.886 407.730,481.116 409.473,464.940 411.216,485.086 412.959,485.543 414.702,484.314 416.445,484.442 418.188,483.130 419.931,486.818 421.674,485.523 423.417,483.364 425.160,484.575 426.903,486.368 428.646,486.979 430.389,488.895 432.132,487.607 433.875,487.845 435.618,486.862 437.361,488.248 439.104,488.252 440.847,483.892 442.590,488.069 444.333,489.670 446.076,488.602 447.819,490.047 449.562,486.805 451.305,489.677 453.048,492.192 454.791,488.190 456.534,489.122 458.277,489.267 460.020,489.911 461.763,490.932 463.506,491.758 465.249,491.157 466.992,489.718 468.735,489.700 470.478,489.011 472.221,491.237 473.964,489.749 475.707,491.720 477.450,489.256 479.193,489.569 480.936,491.508 482.679,489.872 484.422,492.810 486.165,492.794 487.908,491.341 489.651,492.498 491.394,492.803 493.137,491.830 494.880,491.717 496.623,492.966 498.366,492.713 500.109,492.789 501.853,491.744 503.596,491.743 505.339,493.985 507.082,492.813 508.825,492.129 510.568,493.448 512.311,492.696 514.054,492.542 515.797,493.784 517.540,492.981 519.283,492.379 521.026,493.608 522.769,493.859 524.512,493.567 526.255,492.733 527.998,493.619 529.741,494.241 531.484,494.446 533.227,494.369 534.970,493.250 536.713,493.925 538.456,494.255 540.199,495.501 541.942,494.430 543.685,493.760 545.428,494.696 547.171,493.739 548.914,494.154 550.657,495.444 552.400,494.494 554.143,494.067 555.886,493.528 557.629,494.748 559.372,494.773 561.115,493.854 562.858,494.487 564.601,494.546 566.344,491.360 568.087,494.599 569.830,495.715 571.573,496.331 573.316,494.591 575.059,495.023 576.802,494.401 578.545,495.920 580.288,495.963 582.031,495.565 583.774,495.848 585.517,495.083 587.260,495.461 589.003,495.013 590.746,494.446 592.489,495.599 594.232,495.602 595.975,495.504 597.718,496.115 599.461,496.168 601.204,495.679 602.947,494.960 604.690,496.374 606.433,495.524 608.176,496.594 609.920,495.930 611.663,496.149 613.406,496.170 615.149,496.663 616.892,496.463 618.635,496.483 620.378,496.657 622.121,495.773 623.864,496.286 625.607,496.332 627.350,496.139 629.093,495.954 630.836,495.938 632.579,495.727 634.322,495.075 636.065,495.436 637.808,496.265 639.551,496.859 641.294,496.523 643.037,496.697 644.780,496.387 646.523,496.161 648.266,496.437 650.009,496.276 651.752,496.135 653.495,496.494 655.238,496.560 656.981,496.963 658.724,496.801 660.467,496.633 662.210,496.891 663.953,495.887 665.696,496.114 667.439,496.220 669.182,495.721 670.925,495.891 672.668,496.450 674.411,495.758 676.154,497.011 677.897,496.712 679.640,496.984 681.383,496.825 683.126,497.411 684.869,496.429 686.612,496.944 688.355,496.804 690.098,496.804 691.841,496.476 693.584,497.140 695.327,496.353 697.070,496.179 698.813,496.511 700.556,495.302 702.299,496.384 704.042,494.777 705.785,495.972 707.528,496.892 709.271,496.866 711.014,497.588 712.757,495.166 714.500,495.632 716.243,496.314 717.987,497.300 719.730,495.603 721.473,496.582 723.216,495.529 724.959,495.890 726.702,493.743 728.445,496.464 730.188,497.903 731.931,497.656 733.674,497.109 735.417,497.831 737.160,496.788 738.903,495.462 740.646,497.021 742.389,496.319 744.132,496.738 745.875,497.210 747.618,495.384 749.361,495.891 751.104,497.908 752.847,496.203 754.590,496.245 756.333,497.329 758.076,496.590 759.819,494.787 761.562,496.013 763.305,493.597 765.048,495.547 766.791,495.573 768.534,495.066 770.277,496.231 772.020,497.289 773.763,495.257 775.506,497.020 777.249,496.049 778.992,496.813 780.735,496.972 782.478,494.872 784.221,495.003 785.964,495.849 787.707,495.936 789.450,493.884 791.193,493.393 792.936,495.567 794.679,495.883 796.422,494.879 798.165,494.443 799.908,495.476 801.651,496.823 803.394,497.295 805.137,495.000 806.880,497.339 808.623,498.686 810.366,497.614 812.109,497.639 813.852,496.952 815.595,496.250 817.338,497.130 819.081,495.485 820.824,494.002 822.567,496.858 824.310,496.608 826.054,497.707 827.797,494.918 829.540,496.901 831.283,496.347 833.026,496.088 834.769,497.250 836.512,496.970 838.255,497.315 839.998,497.373 841.741,498.624 843.484,498.020 845.227,494.457 846.970,496.395 848.713,497.451 850.456,497.446 852.199,497.123 853.942,497.151 855.685,498.478 857.428,497.231 859.171,496.385 860.914,496.302 862.657,497.773 864.400,497.523 866.143,497.654 867.886,497.694 869.629,497.815 871.372,496.866 873.115,497.117 874.858,497.801 876.601,498.328 878.344,498.200 880.087,495.291 "/>
<g>
</g>
</g>
<g id="ID000003" clip-path="url(#ID000001)" >
      <polygon fill="#5394ff" fill-opacity="0.20" stroke="none" stroke-width="0.5pt" stroke-opacity="1.00" stroke-dasharray="none" points="95.730,-1037.305 97.473,-17915.155 99.216,-9873.272 100.959,-2567.214 102.702,-986.945 104.445,-432.934 106.188,-242.172 107.931,-19.409 109.674,39.768 111.417,123.114 113.160,158.921 114.903,215.909 116.646,231.173 118.389,263.362 120.132,271.897 121.875,300.240 123.618,313.040 125.361,325.425 127.104,240.077 128.847,332.405 130.590,359.824 132.333,363.594 134.076,362.666 135.819,388.543 137.562,391.172 139.305,405.116 141.048,407.352 142.791,410.522 144.534,410.865 146.277,408.731 148.020,419.256 149.763,420.511 151.506,416.103 153.249,427.657 154.992,425.318 156.735,414.828 158.478,316.318 160.221,416.812 161.964,438.066 163.707,435.823 165.450,433.295 167.193,442.760 168.936,442.231 170.679,441.568 172.422,444.259 174.165,443.704 175.908,451.870 177.652,449.400 179.395,450.205 181.138,451.949 182.881,451.997 184.624,452.981 186.367,452.852 188.110,448.917 189.853,417.595 191.596,449.397 193.339,458.395 195.082,464.358 196.825,463.863 198.568,463.959 200.311,465.287 202.054,463.543 203.797,468.223 205.540,467.046 207.283,466.985 209.026,465.166 210.769,468.302 212.512,465.070 214.255,469.867 215.998,466.002 217.741,473.685 219.484,468.484 221.227,459.266 222.970,474.083 224.713,472.884 226.456,472.649 228.199,472.945 229.942,470.405 231.685,472.736 233.428,469.695 235.171,473.751 236.914,476.368 238.657,476.120 240.400,476.855 242.143,474.627 243.886,476.046 245.629,477.869 247.372,477.657 249.115,475.382 250.858,453.577 252.601,254.705 254.344,466.749 256.087,477.659 257.830,479.331 259.573,478.894 261.316,478.590 263.059,480.190 264.802,479.273 266.545,479.036 268.288,479.572 270.031,481.530 271.774,480.631 273.517,478.069 275.260,479.810 277.003,481.363 278.746,480.938 280.489,481.450 282.232,480.589 283.975,468.498 285.719,481.230 287.462,482.345 289.205,481.140 290.948,483.759 292.691,483.264 294.434,482.828 296.177,482.688 297.920,482.121 299.663,484.146 301.406,482.207 303.149,481.501 304.892,482.867 306.635,481.490 308.378,482.399 310.121,482.539 311.864,482.510 313.607,482.867 315.350,470.149 317.093,480.563 318.836,482.582 320.579,481.467 322.322,481.496 324.065,480.933 325.808,482.369 327.551,481.808 329.294,480.871 331.037,481.267 332.780,478.955 334.523,479.539 336.266,479.424 338.009,480.048 339.752,478.642 341.495,478.348 343.238,479.966 344.981,476.371 346.724,467.427 348.467,476.262 350.210,472.056 351.953,476.496 353.696,471.036 355.439,473.700 357.182,473.055 358.925,470.302 360.668,471.777 362.411,469.029 364.154,475.177 365.897,474.475 367.640,470.218 369.383,472.304 371.126,475.336 372.869,475.933 374.612,477.215 376.355,472.869 378.098,467.682 379.841,475.422 381.584,477.864 383.327,478.865 385.070,478.340 386.813,481.763 388.556,480.203 390.299,480.614 392.042,482.071 393.786,481.856 395.529,485.156 397.272,483.673 399.015,483.764 400.758,483.654 402.501,485.244 404.244,485.462 405.987,485.811 407.730,483.447 409.473,469.556 411.216,487.592 412.959,488.468 414.702,488.315 416.445,487.531 418.188,487.518 419.931,488.854 421.674,488.887 423.417,487.404 425.160,487.885 426.903,489.695 428.646,489.935 430.389,491.010 432.132,489.705 433.875,490.738 435.618,490.342 437.361,490.555 439.104,490.788 440.847,487.612 442.590,490.836 444.333,492.132 446.076,491.415 447.819,492.672 449.562,490.213 451.305,492.371 453.048,493.416 454.791,490.969 456.534,491.763 458.277,491.570 460.020,492.788 461.763,492.861 463.506,493.770 465.249,493.230 466.992,492.609 468.735,491.594 470.478,491.992 472.221,492.670 473.964,491.815 475.707,493.208 477.450,492.084 479.193,492.599 480.936,493.528 482.679,492.810 484.422,494.137 486.165,494.198 487.908,493.238 489.651,493.926 491.394,494.472 493.137,494.592 494.880,493.659 496.623,494.628 498.366,494.270 500.109,494.198 501.853,493.521 503.596,493.540 505.339,495.246 507.082,494.539 508.825,494.305 510.568,494.760 512.311,494.636 514.054,494.259 515.797,494.827 517.540,494.501 519.283,494.146 521.026,495.127 522.769,495.104 524.512,494.968 526.255,494.617 527.998,495.128 529.741,495.552 531.484,495.408 533.227,495.533 534.970,494.612 536.713,494.999 538.456,495.455 540.199,496.391 541.942,495.776 543.685,495.477 545.428,495.812 547.171,495.046 548.914,495.452 550.657,496.283 552.400,495.655 554.143,495.554 555.886,495.396 557.629,495.802 559.372,495.820 561.115,495.528 562.858,495.883 564.601,495.471 566.344,493.190 568.087,495.826 569.830,496.622 571.573,497.062 573.316,495.885 575.059,496.346 576.802,496.322 578.545,496.654 580.288,496.835 582.031,496.484 583.774,496.758 585.517,496.168 587.260,496.578 589.003,496.312 590.746,495.942 592.489,496.756 594.232,496.683 595.975,496.735 597.718,496.865 599.461,496.982 601.204,496.746 602.947,496.383 604.690,497.360 606.433,496.716 608.176,497.507 609.920,496.758 611.663,497.146 613.406,497.241 615.149,497.573 616.892,497.441 618.635,497.243 620.378,497.269 622.121,497.032 623.864,497.043 625.607,497.162 627.350,497.206 629.093,497.136 630.836,497.022 632.579,496.798 634.322,496.080 636.065,496.912 637.808,497.176 639.551,497.664 641.294,497.329 643.037,497.427 644.780,497.440 646.523,497.184 648.266,497.671 650.009,497.633 651.752,497.528 653.495,497.658 655.238,497.354 656.981,497.694 658.724,497.446 660.467,497.378 662.210,497.768 663.953,497.243 665.696,497.400 667.439,497.409 669.182,497.004 670.925,497.367 672.668,497.582 674.411,497.345 676.154,497.884 677.897,497.990 679.640,497.936 681.383,497.843 683.126,498.274 684.869,497.733 686.612,497.851 688.355,497.898 690.098,497.865 691.841,497.575 693.584,498.261 695.327,498.021 697.070,497.941 698.813,497.831 700.556,498.137 702.299,497.781 704.042,497.119 705.785,497.665 707.528,498.309 709.271,498.117 711.014,498.513 712.757,497.943 714.500,498.027 716.243,498.012 717.987,498.735 719.730,498.325 721.473,498.309 723.216,497.434 724.959,497.809 726.702,497.292 728.445,498.759 730.188,498.697 731.931,498.837 733.674,498.590 735.417,498.597 737.160,498.247 738.903,498.600 740.646,498.392 742.389,498.122 744.132,498.210 745.875,498.615 747.618,497.581 749.361,498.370 751.104,498.925 752.847,498.435 754.590,497.920 756.333,498.648 758.076,498.404 759.819,498.005 761.562,498.519 763.305,498.583 765.048,498.839 766.791,498.655 768.534,498.387 770.277,498.825 772.020,499.064 773.763,498.415 775.506,498.729 777.249,498.258 778.992,498.639 780.735,499.011 782.478,498.652 784.221,499.142 785.964,499.201 787.707,498.534 789.450,498.503 791.193,499.070 792.936,498.819 794.679,498.585 796.422,498.851 798.165,498.396 799.908,498.501 801.651,499.312 803.394,499.077 805.137,498.230 806.880,498.811 808.623,499.410 810.366,499.619 812.109,499.337 813.852,499.622 815.595,498.853 817.338,499.059 819.081,499.173 820.824,498.630 822.567,499.509 824.310,499.139 826.054,498.945 827.797,498.886 829.540,499.239 831.283,498.849 833.026,498.997 834.769,499.410 836.512,499.247 838.255,499.444 839.998,499.036 841.741,499.509 843.484,499.732 845.227,499.280 846.970,499.522 848.713,499.448 850.456,498.789 852.199,499.240 853.942,499.263 855.685,499.476 857.428,499.369 859.171,498.725 860.914,498.788 862.657,499.462 864.400,499.280 866.143,499.123 867.886,499.196 869.629,499.222 871.372,499.132 873.115,499.232 874.858,498.927 876.601,499.496 878.344,499.318 880.087,497.818 880.087,492.764 878.344,497.082 876.601,497.159 874.858,496.675 873.115,495.003 871.372,494.599 869.629,496.409 867.886,496.191 866.143,496.185 864.400,495.767 862.657,496.083 860.914,493.816 859.171,494.045 857.428,495.093 855.685,497.480 853.942,495.039 852.199,495.006 850.456,496.102 848.713,495.454 846.970,493.267 845.227,489.633 843.484,496.309 841.741,497.739 839.998,495.710 838.255,495.186 836.512,494.693 834.769,495.089 833.026,493.179 831.283,493.844 829.540,494.564 827.797,490.950 826.054,496.469 824.310,494.077 822.567,494.208 820.824,489.373 819.081,491.796 817.338,495.202 815.595,493.646 813.852,494.283 812.109,495.940 810.366,495.609 808.623,497.962 806.880,495.867 805.137,491.769 803.394,495.513 801.651,494.334 799.908,492.452 798.165,490.490 796.422,490.907 794.679,493.181 792.936,492.314 791.193,487.717 789.450,489.265 787.707,493.337 785.964,492.497 784.221,490.864 782.478,491.092 780.735,494.932 778.992,494.987 777.249,493.841 775.506,495.312 773.763,492.100 772.020,495.515 770.277,493.637 768.534,491.745 766.791,492.491 765.048,492.254 763.305,488.612 761.562,493.506 759.819,491.569 758.076,494.776 756.333,496.011 754.590,494.571 752.847,493.971 751.104,496.890 749.361,493.411 747.618,493.186 745.875,495.805 744.132,495.265 742.389,494.517 740.646,495.650 738.903,492.324 737.160,495.328 735.417,497.066 733.674,495.627 731.931,496.475 730.188,497.109 728.445,494.168 726.702,490.194 724.959,493.971 723.216,493.624 721.473,494.855 719.730,492.882 717.987,495.865 716.243,494.616 714.500,493.237 712.757,492.388 711.014,496.664 709.271,495.615 707.528,495.474 705.785,494.279 704.042,492.435 702.299,494.987 700.556,492.468 698.813,495.191 697.070,494.418 695.327,494.685 693.584,496.018 691.841,495.378 690.098,495.742 688.355,495.709 686.612,496.036 684.869,495.126 683.126,496.549 681.383,495.806 679.640,496.032 677.897,495.434 676.154,496.138 674.411,494.171 672.668,495.318 670.925,494.416 669.182,494.437 667.439,495.031 665.696,494.829 663.953,494.530 662.210,496.014 660.467,495.887 658.724,496.156 656.981,496.232 655.238,495.766 653.495,495.329 651.752,494.742 650.009,494.918 648.266,495.203 646.523,495.138 644.780,495.334 643.037,495.968 641.294,495.716 639.551,496.054 637.808,495.355 636.065,493.960 634.322,494.069 632.579,494.656 630.836,494.855 629.093,494.773 627.350,495.072 625.607,495.502 623.864,495.530 622.121,494.514 620.378,496.045 618.635,495.723 616.892,495.485 615.149,495.752 613.406,495.099 611.663,495.152 609.920,495.102 608.176,495.681 606.433,494.331 604.690,495.388 602.947,493.537 601.204,494.611 599.461,495.354 597.718,495.366 595.975,494.273 594.232,494.521 592.489,494.443 590.746,492.950 589.003,493.715 587.260,494.345 585.517,493.998 583.774,494.939 582.031,494.646 580.288,495.092 578.545,495.187 576.802,492.481 575.059,493.700 573.316,493.297 571.573,495.601 569.830,494.807 568.087,493.371 566.344,489.531 564.601,493.622 562.858,493.090 561.115,492.181 559.372,493.726 557.629,493.695 555.886,491.661 554.143,492.581 552.400,493.332 550.657,494.606 548.914,492.856 547.171,492.431 545.428,493.580 543.685,492.044 541.942,493.084 540.199,494.611 538.456,493.056 536.713,492.851 534.970,491.887 533.227,493.204 531.484,493.483 529.741,492.930 527.998,492.111 526.255,490.850 524.512,492.167 522.769,492.614 521.026,492.088 519.283,490.612 517.540,491.461 515.797,492.741 514.054,490.825 512.311,490.756 510.568,492.136 508.825,489.953 507.082,491.086 505.339,492.723 503.596,489.945 501.853,489.967 500.109,491.380 498.366,491.157 496.623,491.304 494.880,489.775 493.137,489.068 491.394,491.133 489.651,491.070 487.908,489.443 486.165,491.389 484.422,491.483 482.679,486.934 480.936,489.487 479.193,486.539 477.450,486.428 475.707,490.233 473.964,487.683 472.221,489.804 470.478,486.029 468.735,487.806 466.992,486.827 465.249,489.083 463.506,489.746 461.763,489.003 460.020,487.033 458.277,486.963 456.534,486.480 454.791,485.412 453.048,490.968 451.305,486.982 449.562,483.397 447.819,487.423 446.076,485.788 444.333,487.209 442.590,485.302 440.847,480.172 439.104,485.716 437.361,485.941 435.618,483.383 433.875,484.951 432.132,485.509 430.389,486.779 428.646,484.022 426.903,483.040 425.160,481.264 423.417,479.325 421.674,482.158 419.931,484.781 418.188,478.741 416.445,481.354 414.702,480.313 412.959,482.618 411.216,482.580 409.473,460.324 407.730,478.786 405.987,479.961 404.244,475.177 402.501,478.802 400.758,477.452 399.015,475.244 397.272,474.249 395.529,477.892 393.786,474.991 392.042,471.919 390.299,467.053 388.556,472.857 386.813,474.982 385.070,468.216 383.327,470.257 381.584,467.709 379.841,463.171 378.098,449.302 376.355,461.994 374.612,467.124 372.869,466.688 371.126,465.526 369.383,458.379 367.640,453.141 365.897,466.824 364.154,467.410 362.411,458.035 360.668,460.899 358.925,459.229 357.182,459.745 355.439,464.336 353.696,458.282 351.953,468.003 350.210,459.803 348.467,467.795 346.724,456.780 344.981,465.531 343.238,472.334 341.495,465.391 339.752,467.725 338.009,473.422 336.266,469.289 334.523,469.906 332.780,470.338 331.037,474.652 329.294,473.968 327.551,474.729 325.808,471.011 324.065,472.355 322.322,472.744 320.579,474.800 318.836,476.138 317.093,473.748 315.350,461.557 313.607,477.364 311.864,475.891 310.121,475.513 308.378,475.566 306.635,474.268 304.892,475.801 303.149,470.660 301.406,468.022 299.663,475.625 297.920,469.453 296.177,467.362 294.434,465.404 292.691,475.551 290.948,475.610 289.205,472.096 287.462,476.452 285.719,476.622 283.975,459.063 282.232,475.466 280.489,475.635 278.746,474.489 277.003,475.658 275.260,471.065 273.517,467.758 271.774,472.096 270.031,474.367 268.288,473.528 266.545,472.320 264.802,472.435 263.059,473.823 261.316,471.906 259.573,472.484 257.830,469.773 256.087,471.047 254.344,453.651 252.601,70.700 250.858,429.867 249.115,467.128 247.372,471.732 245.629,470.030 243.886,467.603 242.143,466.766 240.400,469.442 238.657,468.843 236.914,467.539 235.171,467.512 233.428,459.950 231.685,464.364 229.942,459.735 228.199,464.378 226.456,464.649 224.713,466.007 222.970,468.328 221.227,449.463 219.484,461.136 217.741,466.054 215.998,456.132 214.255,459.976 212.512,455.416 210.769,458.488 209.026,456.000 207.283,457.998 205.540,456.104 203.797,459.498 202.054,456.472 200.311,456.522 198.568,455.343 196.825,456.446 195.082,457.607 193.339,448.247 191.596,437.131 189.853,396.547 188.110,436.067 186.367,439.765 184.624,442.214 182.881,441.293 181.138,438.034 179.395,438.073 177.652,433.216 175.908,438.784 174.165,430.379 172.422,431.692 170.679,426.524 168.936,426.241 167.193,428.615 165.450,416.760 163.707,416.572 161.964,420.505 160.221,398.952 158.478,268.024 156.735,394.982 154.992,402.143 153.249,402.502 151.506,384.982 149.763,393.869 148.020,399.497 146.277,385.130 144.534,387.468 142.791,384.658 141.048,376.831 139.305,379.122 137.562,351.974 135.819,354.710 134.076,322.756 132.333,309.429 130.590,304.314 128.847,274.618 127.104,160.267 125.361,278.635 123.618,250.776 121.875,232.036 120.132,169.944 118.389,178.565 116.646,107.432 114.903,95.342 113.160,-28.217 111.417,-208.452 109.674,-468.354 107.931,-581.060 106.188,-1615.651 104.445,-2917.886 102.702,-5546.252 100.959,-9402.514 99.216,-49138.067 97.473,-59732.720 95.730,-5192.548 "/>
</g>
    </g>
    <g>
      <polyline fill="none" stroke="#262626" stroke-width="0.5pt" stroke-dasharray="none" points="148.020,502.461 148.020,498.131 "/>
      <polyline fill="none" stroke="#262626" stroke-width="0.5pt" stroke-dasharray="none" points="200.311,502.461 200.311,498.131 "/>
      <polyline fill="none" stroke="#262626" stroke-width="0.5pt" stroke-dasharray="none" points="252.601,502.461 252.601,498.131 "/>
      <polyline fill="none" stroke="#262626" stroke-width="0.5pt" stroke-dasharray="none" points="304.892,502.461 304.892,498.131 "/>
      <polyline fill="none" stroke="#262626" stroke-width="0.5pt" stroke-dasharray="none" points="357.182,502.461 357.182,498.131 "/>
      <polyline fill="none" stroke="#262626" stroke-width="0.5pt" stroke-dasharray="none" points="409.473,502.461 409.473,498.131 "/>
      <polyline fill="none" stroke="#262626" stroke-width="0.5pt" stroke-dasharray="none" points="121.875,502.461 435.618,502.461 "/>
  <g transform="translate(148.020,522.184)">
    <g transform="rotate(-0.0)">
      <text x="0.000" y="0.000" font-family="Helvetica" text-anchor="middle" font-size="9pt" fill="#262626" >2</text>
    </g>
  </g>
  <g transform="translate(200.311,522.184)">
    <g transform="rotate(-0.0)">
      <text x="0.000" y="0.000" font-family="Helvetica" text-anchor="middle" font-size="9pt" fill="#262626" >4</text>
    </g>
  </g>
  <g transform="translate(252.601,522.184)">
    <g transform="rotate(-0.0)">
      <text x="0.000" y="0.000" font-family="Helvetica" text-anchor="middle" font-size="9pt" fill="#262626" >6</text>
    </g>
  </g>
  <g transform="translate(304.892,522.184)">
    <g transform="rotate(-0.0)">
      <text x="0.000" y="0.000" font-family="Helvetica" text-anchor="middle" font-size="9pt" fill="#262626" >8</text>
    </g>
  </g>
  <g transform="translate(357.182,522.184)">
    <g transform="rotate(-0.0)">
      <text x="0.000" y="0.000" font-family="Helvetica" text-anchor="middle" font-size="9pt" fill="#262626" >10</text>
    </g>
  </g>
  <g transform="translate(409.473,522.184)">
    <g transform="rotate(-0.0)">
      <text x="0.000" y="0.000" font-family="Helvetica" text-anchor="middle" font-size="9pt" fill="#262626" >12</text>
    </g>
  </g>
      <polyline fill="none" stroke="#262626" stroke-width="0.5pt" stroke-dasharray="none" points="121.875,502.461 126.205,502.461 "/>
      <polyline fill="none" stroke="#262626" stroke-width="0.5pt" stroke-dasharray="none" points="121.875,454.346 126.205,454.346 "/>
      <polyline fill="none" stroke="#262626" stroke-width="0.5pt" stroke-dasharray="none" points="121.875,406.231 126.205,406.231 "/>
      <polyline fill="none" stroke="#262626" stroke-width="0.5pt" stroke-dasharray="none" points="121.875,358.116 126.205,358.116 "/>
      <polyline fill="none" stroke="#262626" stroke-width="0.5pt" stroke-dasharray="none" points="121.875,310.000 126.205,310.000 "/>
      <polyline fill="none" stroke="#262626" stroke-width="0.5pt" stroke-dasharray="none" points="121.875,261.885 126.205,261.885 "/>
      <polyline fill="none" stroke="#262626" stroke-width="0.5pt" stroke-dasharray="none" points="121.875,213.770 126.205,213.770 "/>
      <polyline fill="none" stroke="#262626" stroke-width="0.5pt" stroke-dasharray="none" points="121.875,165.655 126.205,165.655 "/>
      <polyline fill="none" stroke="#262626" stroke-width="0.5pt" stroke-dasharray="none" points="121.875,117.540 126.205,117.540 "/>
      <polyline fill="none" stroke="#262626" stroke-width="0.5pt" stroke-dasharray="none" points="121.875,69.425 126.205,69.425 "/>
      <polyline fill="none" stroke="#262626" stroke-width="0.5pt" stroke-dasharray="none" points="121.875,502.461 121.875,69.425 "/>
  <g transform="translate(115.600,506.680)">
    <g transform="rotate(-0.0)">
      <text x="0.000" y="0.000" font-family="Helvetica" text-anchor="end" font-size="9pt" fill="#262626" >0</text>
    </g>
  </g>
  <g transform="translate(115.600,458.565)">
    <g transform="rotate(-0.0)">
      <text x="0.000" y="0.000" font-family="Helvetica" text-anchor="end" font-size="9pt" fill="#262626" >0.2</text>
    </g>
  </g>
  <g transform="translate(115.600,410.449)">
    <g transform="rotate(-0.0)">
      <text x="0.000" y="0.000" font-family="Helvetica" text-anchor="end" font-size="9pt" fill="#262626" >0.4</text>
    </g>
  </g>
  <g transform="translate(115.600,362.334)">
    <g transform="rotate(-0.0)">
      <text x="0.000" y="0.000" font-family="Helvetica" text-anchor="end" font-size="9pt" fill="#262626" >0.6</text>
    </g>
  </g>
  <g transform="translate(115.600,314.219)">
    <g transform="rotate(-0.0)">
      <text x="0.000" y="0.000" font-family="Helvetica" text-anchor="end" font-size="9pt" fill="#262626" >0.8</text>
    </g>
  </g>
  <g transform="translate(115.600,266.104)">
    <g transform="rotate(-0.0)">
      <text x="0.000" y="0.000" font-family="Helvetica" text-anchor="end" font-size="9pt" fill="#262626" >1</text>
    </g>
  </g>
  <g transform="translate(115.600,217.989)">
    <g transform="rotate(-0.0)">
      <text x="0.000" y="0.000" font-family="Helvetica" text-anchor="end" font-size="9pt" fill="#262626" >1.2</text>
    </g>
  </g>
  <g transform="translate(115.600,169.874)">
    <g transform="rotate(-0.0)">
      <text x="0.000" y="0.000" font-family="Helvetica" text-anchor="end" font-size="9pt" fill="#262626" >1.4</text>
    </g>
  </g>
  <g transform="translate(115.600,121.758)">
    <g transform="rotate(-0.0)">
      <text x="0.000" y="0.000" font-family="Helvetica" text-anchor="end" font-size="9pt" fill="#262626" >1.6</text>
    </g>
  </g>
  <g transform="translate(115.600,73.643)">
    <g transform="rotate(-0.0)">
      <text x="0.000" y="0.000" font-family="Helvetica" text-anchor="end" font-size="9pt" fill="#262626" >1.8</text>
    </g>
  </g>
      <polyline fill="none" stroke="#262626" stroke-width="0.5pt" stroke-dasharray="none" points="121.875,502.461 121.875,502.461 "/>
    </g>
  </g>
  <g id ="ID000004">
  <clipPath id="ID000005">
    <rect x="0.000" y="-562.500" width="937.500" height="562.500"/>
  </clipPath>
    <g>
<g id="ID000006" >
  <g transform="translate(468.750,34.031)">
    <g transform="rotate(-0.0)">
      <text x="0.000" y="0.000" font-family="Helvetica" text-anchor="middle" font-size="13pt" fill="#000000" >Amplitude Spectrum</text>
    </g>
  </g>
</g>
    </g>
  </g>
  <g id ="ID000007">
  <clipPath id="ID000008">
    <rect x="534.695" y="69.425" width="313.743" height="433.037"/>
  </clipPath>
      <polygon fill="#ffffff" fill-opacity="1.00" stroke="none" stroke-width="0.5pt" stroke-opacity="1.00" stroke-dasharray="none" points="534.695,502.461 848.438,502.461 848.438,69.425 534.695,69.425 "/>
      <polygon fill="#ffffff" fill-opacity="1.00" stroke="none" stroke-width="0.5pt" stroke-opacity="1.00" stroke-dasharray="none" points="534.695,69.425 848.438,69.425 848.438,69.425 534.695,69.425 "/>
      <polygon fill="#ffffff" fill-opacity="1.00" stroke="none" stroke-width="0.5pt" stroke-opacity="1.00" stroke-dasharray="none" points="534.695,502.461 534.695,502.461 534.695,69.425 534.695,69.425 "/>
    <g>
<g id="ID000009" clip-path="url(#ID000008)" >
      <polyline fill="none" stroke="#5394ff" stroke-width="1.0pt" stroke-dasharray="none" points="508.549,-2128.049 510.292,-30115.479 512.035,-22696.857 513.778,-5867.660 515.521,-2845.893 517.264,-1362.170 519.007,-837.314 520.750,-313.300 522.493,-154.357 524.237,-142.920 525.980,31.397 527.723,89.729 529.466,104.633 531.209,190.982 532.952,151.082 534.695,194.089 536.438,245.480 538.181,247.592 539.924,159.310 541.667,263.165 543.410,285.406 545.153,290.594 546.896,314.788 548.639,336.343 550.382,374.002 552.125,367.425 553.868,363.298 555.611,374.737 557.354,373.006 559.097,363.172 560.840,382.098 562.583,393.832 564.326,386.596 566.069,408.450 567.812,395.055 569.555,390.046 571.298,312.967 573.041,399.048 574.784,405.653 576.527,399.477 578.270,403.098 580.013,412.872 581.756,413.653 583.499,415.893 585.242,430.066 586.985,428.133 588.728,430.562 590.471,429.720 592.214,433.450 593.957,432.835 595.700,442.349 597.443,440.843 599.186,440.602 600.929,430.631 602.672,406.463 604.415,435.689 606.158,438.564 607.901,443.068 609.644,444.168 611.387,444.049 613.130,449.643 614.873,448.647 616.616,449.665 618.359,455.945 620.102,453.313 621.845,454.708 623.588,459.607 625.331,456.836 627.074,460.238 628.817,458.780 630.560,458.896 632.304,454.812 634.047,439.908 635.790,458.105 637.533,464.661 639.276,462.064 641.019,457.530 642.762,441.400 644.505,453.573 646.248,463.039 647.991,462.884 649.734,466.044 651.477,466.362 653.220,466.226 654.963,463.362 656.706,468.223 658.449,467.500 660.192,465.633 661.935,467.395 663.678,438.301 665.421,262.471 667.164,456.989 668.907,468.347 670.650,470.115 672.393,467.412 674.136,468.034 675.879,470.843 677.622,470.163 679.365,470.893 681.108,472.556 682.851,471.535 684.594,466.746 686.337,473.001 688.080,471.902 689.823,471.913 691.566,469.945 693.309,468.590 695.052,470.211 696.795,461.422 698.538,468.153 700.281,468.638 702.024,471.285 703.767,468.737 705.510,471.204 707.253,468.522 708.996,464.508 710.739,465.285 712.482,470.169 714.225,472.728 715.968,471.121 717.711,468.203 719.454,470.117 721.197,471.880 722.940,471.162 724.683,469.024 726.426,468.851 728.169,454.674 729.912,463.987 731.655,466.509 733.398,469.852 735.141,471.621 736.884,469.796 738.627,468.706 740.371,472.579 742.114,469.943 743.857,470.644 745.600,464.909 747.343,466.755 749.086,468.396 750.829,468.211 752.572,462.386 754.315,467.814 756.058,467.088 757.801,463.289 759.544,451.439 761.287,462.736 763.030,458.494 764.773,454.950 766.516,452.875 768.259,457.795 770.002,457.755 771.745,454.603 773.488,452.365 775.231,455.537 776.974,458.710 778.717,454.463 780.460,452.810 782.203,450.572 783.946,463.115 785.689,465.545 787.432,463.549 789.175,459.063 790.918,458.144 792.661,456.518 794.404,464.354 796.147,458.673 797.890,462.647 799.633,461.562 801.376,464.307 803.119,472.533 804.862,474.554 806.605,476.062 808.348,473.494 810.091,473.160 811.834,478.484 813.577,476.784 815.320,474.118 817.063,477.434 818.806,477.196 820.549,472.273 822.292,447.902 824.035,477.701 825.778,479.032 827.521,478.959 829.264,481.142 831.007,480.639 832.750,479.223 834.493,480.841 836.236,481.981 837.979,483.869 839.722,482.623 841.465,483.159 843.208,484.335 844.951,484.119 846.694,485.766 848.438,484.994 850.181,484.896 851.924,485.922 853.667,482.962 855.410,487.099 857.153,485.939 858.896,486.708 860.639,487.420 862.382,485.326 864.125,486.989 865.868,484.839 867.611,486.494 869.354,486.755 871.097,487.647 872.840,486.841 874.583,487.730 876.326,487.551 878.069,487.340 879.812,487.415 881.555,487.682 883.298,487.833 885.041,489.427 886.784,489.590 888.527,488.071 890.270,489.466 892.013,489.045 893.756,488.512 895.499,489.086 897.242,489.940 898.985,490.379 900.728,489.221 902.471,489.190 904.214,489.970 905.957,489.632 907.700,489.655 909.443,489.586 911.186,489.067 912.929,489.404 914.672,490.000 916.415,489.441 918.158,490.623 919.901,490.179 921.644,490.788 923.387,490.670 925.130,489.659 926.873,491.188 928.616,491.974 930.359,490.488 932.102,490.857 933.845,491.197 935.588,490.764 937.331,490.519 939.074,489.894 940.817,489.057 942.560,490.319 944.303,491.028 946.046,490.870 947.789,490.941 949.532,492.161 951.275,492.002 953.018,491.194 954.761,491.886 956.504,490.908 958.248,490.418 959.991,490.681 961.734,492.068 963.477,491.393 965.220,491.544 966.963,492.076 968.706,491.507 970.449,490.696 972.192,491.052 973.935,492.821 975.678,493.705 977.421,492.939 979.164,487.738 980.907,491.121 982.650,492.769 984.393,491.495 986.136,492.217 987.879,491.583 989.622,493.006 991.365,492.996 993.108,493.164 994.851,493.683 996.594,493.608 998.337,493.015 1000.080,494.374 1001.823,494.056 1003.566,492.930 1005.309,493.489 1007.052,493.711 1008.795,493.302 1010.538,492.641 1012.281,493.967 1014.024,493.607 1015.767,492.385 1017.510,493.237 1019.253,494.191 1020.996,494.172 1022.739,494.109 1024.482,493.365 1026.225,493.937 1027.968,493.368 1029.711,492.962 1031.454,493.697 1033.197,494.963 1034.940,494.687 1036.683,493.901 1038.426,494.563 1040.169,494.699 1041.912,494.626 1043.655,494.721 1045.398,494.515 1047.141,494.082 1048.884,494.207 1050.627,493.324 1052.370,494.978 1054.113,494.503 1055.856,494.175 1057.599,493.594 1059.342,495.107 1061.085,495.341 1062.828,494.524 1064.571,494.239 1066.315,495.032 1068.058,494.511 1069.801,495.028 1071.544,494.560 1073.287,494.875 1075.030,494.400 1076.773,493.913 1078.516,494.229 1080.259,492.676 1082.002,494.835 1083.745,495.416 1085.488,495.079 1087.231,496.008 1088.974,494.981 1090.717,495.184 1092.460,495.012 1094.203,494.885 1095.946,495.645 1097.689,493.738 1099.432,495.232 1101.175,495.338 1102.918,496.339 1104.661,495.351 1106.404,495.536 1108.147,495.872 1109.890,495.170 1111.633,494.938 1113.376,495.477 1115.119,493.953 1116.862,495.761 1118.605,495.460 1120.348,495.604 1122.091,496.050 1123.834,496.322 1125.577,494.617 1127.320,495.621 1129.063,495.247 1130.806,495.557 1132.549,496.067 1134.292,495.964 1136.035,494.949 1137.778,494.348 1139.521,494.007 1141.264,496.529 1143.007,496.338 1144.750,496.275 1146.493,495.282 1148.236,495.643 1149.979,495.693 1151.722,495.342 1153.465,495.244 1155.208,495.813 1156.951,496.304 1158.694,496.961 1160.437,495.355 1162.180,496.403 1163.923,497.268 1165.666,495.761 1167.409,495.993 1169.152,497.183 1170.895,496.986 1172.638,496.097 1174.382,496.688 1176.125,495.894 1177.868,496.239 1179.611,496.189 1181.354,496.657 1183.097,496.561 1184.840,497.282 1186.583,495.848 1188.326,494.989 1190.069,495.005 1191.812,495.978 1193.555,496.182 1195.298,496.156 1197.041,494.945 1198.784,496.497 1200.527,496.629 1202.270,497.499 1204.013,496.789 1205.756,496.653 1207.499,497.350 1209.242,497.336 1210.985,497.419 1212.728,496.325 1214.471,496.242 1216.214,497.467 1217.957,496.811 1219.700,496.713 1221.443,497.021 1223.186,496.319 1224.929,497.802 1226.672,497.397 1228.415,496.229 1230.158,497.549 1231.901,497.686 1233.644,496.231 1235.387,496.641 1237.130,498.257 1238.873,498.244 1240.616,496.267 1242.359,497.911 1244.102,497.750 1245.845,497.350 1247.588,497.217 1249.331,497.694 1251.074,497.813 1252.817,496.748 1254.560,497.861 1256.303,497.977 1258.046,497.860 1259.789,497.597 1261.532,497.379 1263.275,496.787 1265.018,497.283 1266.761,497.117 1268.504,497.570 1270.247,497.250 1271.990,497.818 1273.733,497.497 1275.476,497.901 1277.219,497.233 1278.962,497.600 1280.705,497.593 1282.449,497.237 1284.192,497.453 1285.935,497.894 1287.678,497.819 1289.421,497.442 1291.164,497.668 1292.907,496.877 "/>
<g>
</g>
</g>
<g id="ID000010" clip-path="url(#ID000008)" >
      <polygon fill="#5394ff" fill-opacity="0.20" stroke="none" stroke-width="0.5pt" stroke-opacity="1.00" stroke-dasharray="none" points="508.549,-1466.773 510.292,-22019.639 512.035,-11805.119 513.778,-3318.248 515.521,-1437.107 517.264,-609.571 519.007,-333.779 520.750,-151.027 522.493,-59.682 524.237,-46.770 525.980,94.323 527.723,138.534 529.466,153.762 531.209,225.302 532.952,193.762 534.695,231.700 536.438,275.759 538.181,271.530 539.924,188.061 541.667,282.843 543.410,302.948 545.153,315.080 546.896,331.890 548.639,357.815 550.382,386.150 552.125,381.555 553.868,375.987 555.611,386.478 557.354,385.503 559.097,380.420 560.840,392.995 562.583,403.969 564.326,401.084 566.069,416.764 567.812,405.749 569.555,400.361 571.298,334.388 573.041,408.327 574.784,415.329 576.527,409.899 578.270,410.985 580.013,420.182 581.756,420.830 583.499,423.499 585.242,435.295 586.985,433.835 588.728,437.442 590.471,437.167 592.214,439.940 593.957,438.815 595.700,446.449 597.443,446.096 599.186,445.605 600.929,439.437 602.672,416.253 604.415,441.360 606.158,442.970 607.901,447.644 609.644,449.220 611.387,448.827 613.130,454.524 614.873,453.749 616.616,453.779 618.359,460.129 620.102,457.278 621.845,459.898 623.588,462.886 625.331,460.820 627.074,464.031 628.817,462.404 630.560,462.498 632.304,458.887 634.047,446.365 635.790,462.594 637.533,467.764 639.276,465.823 641.019,462.751 642.762,458.482 644.505,462.517 646.248,467.019 647.991,467.048 649.734,469.526 651.477,470.590 653.220,469.841 654.963,467.976 656.706,471.885 658.449,470.785 660.192,469.338 661.935,470.775 663.678,446.736 665.421,302.850 667.164,461.681 668.907,472.917 670.650,473.727 672.393,472.383 674.136,472.514 675.879,474.048 677.622,474.426 679.365,473.964 681.108,475.463 682.851,474.751 684.594,472.408 686.337,476.460 688.080,476.918 689.823,475.755 691.566,474.024 693.309,472.530 695.052,473.053 696.795,466.668 698.538,472.270 700.281,472.693 702.024,474.828 703.767,472.895 705.510,474.584 707.253,476.820 708.996,472.264 710.739,475.407 712.482,474.732 714.225,477.426 715.968,475.523 717.711,472.718 719.454,475.050 721.197,475.583 722.940,476.113 724.683,474.697 726.426,473.345 728.169,461.824 729.912,471.612 731.655,472.312 733.398,473.565 735.141,475.577 736.884,474.460 738.627,473.212 740.371,476.849 742.114,475.034 743.857,475.189 745.600,470.951 747.343,472.231 749.086,472.987 750.829,473.261 752.572,469.065 754.315,471.825 756.058,471.460 757.801,469.613 759.544,460.363 761.287,468.956 763.030,465.219 764.773,462.858 766.516,462.794 768.259,463.254 770.002,463.710 771.745,461.289 773.488,466.544 775.231,469.334 776.974,466.519 778.717,463.685 780.460,465.281 782.203,463.651 783.946,469.795 785.689,471.167 787.432,471.769 789.175,468.004 790.918,464.218 792.661,466.141 794.404,470.678 796.147,470.289 797.890,470.670 799.633,469.764 801.376,471.162 803.119,477.875 804.862,479.197 806.605,479.819 808.348,478.216 810.091,478.006 811.834,481.761 813.577,480.359 815.320,478.364 817.063,481.191 818.806,480.691 820.549,476.884 822.292,457.936 824.035,480.498 825.778,482.650 827.521,481.795 829.264,483.655 831.007,484.254 832.750,482.681 834.493,483.645 836.236,484.579 837.979,486.664 839.722,487.211 841.465,485.940 843.208,487.257 844.951,486.153 846.694,487.674 848.438,487.425 850.181,487.087 851.924,487.677 853.667,486.108 855.410,488.678 857.153,487.848 858.896,489.178 860.639,489.300 862.382,487.517 864.125,488.657 865.868,487.962 867.611,488.983 869.354,488.538 871.097,489.194 872.840,488.543 874.583,489.772 876.326,489.337 878.069,489.038 879.812,489.311 881.555,489.824 883.298,490.105 885.041,490.756 886.784,491.135 888.527,489.830 890.270,491.440 892.013,490.614 893.756,491.025 895.499,490.759 897.242,491.418 898.985,491.622 900.728,490.686 902.471,491.011 904.214,491.452 905.957,491.137 907.700,491.223 909.443,491.394 911.186,490.918 912.929,490.948 914.672,491.551 916.415,491.085 918.158,491.793 919.901,491.558 921.644,492.203 923.387,492.202 925.130,491.756 926.873,492.415 928.616,492.905 930.359,491.855 932.102,492.290 933.845,492.678 935.588,492.340 937.331,491.907 939.074,492.125 940.817,492.212 942.560,493.051 944.303,492.852 946.046,492.482 947.789,492.004 949.532,493.309 951.275,493.288 953.018,492.769 954.761,493.496 956.504,492.969 958.248,492.573 959.991,492.190 961.734,493.826 963.477,492.805 965.220,493.458 966.963,493.621 968.706,493.149 970.449,493.632 972.192,493.530 973.935,494.316 975.678,494.624 977.421,493.951 979.164,489.817 980.907,492.716 982.650,493.648 984.393,493.104 986.136,494.114 987.879,493.085 989.622,494.023 991.365,494.192 993.108,494.101 994.851,494.665 996.594,494.500 998.337,494.323 1000.080,495.215 1001.823,495.163 1003.566,494.661 1005.309,494.821 1007.052,495.078 1008.795,494.963 1010.538,493.934 1012.281,494.832 1014.024,494.610 1015.767,494.251 1017.510,494.263 1019.253,495.206 1020.996,495.198 1022.739,495.348 1024.482,494.639 1026.225,495.135 1027.968,495.048 1029.711,494.675 1031.454,494.758 1033.197,495.723 1034.940,495.584 1036.683,494.705 1038.426,495.407 1040.169,495.481 1041.912,495.503 1043.655,495.568 1045.398,495.506 1047.141,495.418 1048.884,495.229 1050.627,494.785 1052.370,495.882 1054.113,495.650 1055.856,495.605 1057.599,494.967 1059.342,496.239 1061.085,496.380 1062.828,495.798 1064.571,495.445 1066.315,496.075 1068.058,495.364 1069.801,495.716 1071.544,495.636 1073.287,495.896 1075.030,495.704 1076.773,495.356 1078.516,495.824 1080.259,494.779 1082.002,495.829 1083.745,495.995 1085.488,496.051 1087.231,496.758 1088.974,496.336 1090.717,496.315 1092.460,496.327 1094.203,495.740 1095.946,496.425 1097.689,495.604 1099.432,496.072 1101.175,496.408 1102.918,496.962 1104.661,496.248 1106.404,496.342 1108.147,496.801 1109.890,496.047 1111.633,496.010 1113.376,496.313 1115.119,495.944 1116.862,496.496 1118.605,496.383 1120.348,496.535 1122.091,496.882 1123.834,497.353 1125.577,496.077 1127.320,496.645 1129.063,496.643 1130.806,496.723 1132.549,496.847 1134.292,496.943 1136.035,496.063 1137.778,496.215 1139.521,495.956 1141.264,497.348 1143.007,497.275 1144.750,497.069 1146.493,496.270 1148.236,496.651 1149.979,496.676 1151.722,496.441 1153.465,496.760 1155.208,496.679 1156.951,497.357 1158.694,497.679 1160.437,496.828 1162.180,497.180 1163.923,497.961 1165.666,497.347 1167.409,496.970 1169.152,497.691 1170.895,497.642 1172.638,497.056 1174.382,497.332 1176.125,497.071 1177.868,497.050 1179.611,497.050 1181.354,497.409 1183.097,497.399 1184.840,497.917 1186.583,497.287 1188.326,497.008 1190.069,496.540 1191.812,497.629 1193.555,497.424 1195.298,497.374 1197.041,497.105 1198.784,497.657 1200.527,497.775 1202.270,498.162 1204.013,497.656 1205.756,497.516 1207.499,498.158 1209.242,497.999 1210.985,498.194 1212.728,497.516 1214.471,497.608 1216.214,498.159 1217.957,497.547 1219.700,497.445 1221.443,497.978 1223.186,497.520 1224.929,498.551 1226.672,498.137 1228.415,497.578 1230.158,498.271 1231.901,498.428 1233.644,497.556 1235.387,497.923 1237.130,498.762 1238.873,498.764 1240.616,497.753 1242.359,498.461 1244.102,498.486 1245.845,498.130 1247.588,498.033 1249.331,498.463 1251.074,498.425 1252.817,498.085 1254.560,498.539 1256.303,498.657 1258.046,498.453 1259.789,498.285 1261.532,498.120 1263.275,497.693 1265.018,498.064 1266.761,498.159 1268.504,498.416 1270.247,498.150 1271.990,498.504 1273.733,498.218 1275.476,498.494 1277.219,498.095 1278.962,498.526 1280.705,498.363 1282.449,498.061 1284.192,498.365 1285.935,498.650 1287.678,498.932 1289.421,498.312 1291.164,498.362 1292.907,497.877 1292.907,495.878 1291.164,496.974 1289.421,496.572 1287.678,496.706 1285.935,497.138 1284.192,496.542 1282.449,496.413 1280.705,496.822 1278.962,496.674 1277.219,496.371 1275.476,497.308 1273.733,496.775 1271.990,497.132 1270.247,496.351 1268.504,496.725 1266.761,496.075 1265.018,496.501 1263.275,495.882 1261.532,496.639 1259.789,496.910 1258.046,497.266 1256.303,497.297 1254.560,497.182 1252.817,495.411 1251.074,497.200 1249.331,496.925 1247.588,496.400 1245.845,496.570 1244.102,497.015 1242.359,497.361 1240.616,494.781 1238.873,497.725 1237.130,497.752 1235.387,495.358 1233.644,494.905 1231.901,496.945 1230.158,496.827 1228.415,494.881 1226.672,496.656 1224.929,497.053 1223.186,495.119 1221.443,496.065 1219.700,495.980 1217.957,496.075 1216.214,496.775 1214.471,494.876 1212.728,495.134 1210.985,496.644 1209.242,496.673 1207.499,496.543 1205.756,495.791 1204.013,495.923 1202.270,496.836 1200.527,495.483 1198.784,495.336 1197.041,492.785 1195.298,494.937 1193.555,494.939 1191.812,494.326 1190.069,493.471 1188.326,492.971 1186.583,494.409 1184.840,496.647 1183.097,495.723 1181.354,495.905 1179.611,495.328 1177.868,495.429 1176.125,494.717 1174.382,496.044 1172.638,495.137 1170.895,496.330 1169.152,496.675 1167.409,495.017 1165.666,494.175 1163.923,496.575 1162.180,495.626 1160.437,493.882 1158.694,496.243 1156.951,495.251 1155.208,494.947 1153.465,493.728 1151.722,494.244 1149.979,494.709 1148.236,494.636 1146.493,494.295 1144.750,495.482 1143.007,495.402 1141.264,495.710 1139.521,492.057 1137.778,492.481 1136.035,493.834 1134.292,494.985 1132.549,495.287 1130.806,494.391 1129.063,493.850 1127.320,494.596 1125.577,493.156 1123.834,495.291 1122.091,495.217 1120.348,494.674 1118.605,494.538 1116.862,495.027 1115.119,491.961 1113.376,494.640 1111.633,493.866 1109.890,494.293 1108.147,494.943 1106.404,494.729 1104.661,494.455 1102.918,495.715 1101.175,494.267 1099.432,494.392 1097.689,491.873 1095.946,494.865 1094.203,494.031 1092.460,493.698 1090.717,494.054 1088.974,493.625 1087.231,495.259 1085.488,494.107 1083.745,494.837 1082.002,493.841 1080.259,490.573 1078.516,492.634 1076.773,492.470 1075.030,493.096 1073.287,493.853 1071.544,493.484 1069.801,494.340 1068.058,493.658 1066.315,493.988 1064.571,493.033 1062.828,493.250 1061.085,494.302 1059.342,493.974 1057.599,492.222 1055.856,492.746 1054.113,493.355 1052.370,494.074 1050.627,491.863 1048.884,493.184 1047.141,492.746 1045.398,493.524 1043.655,493.874 1041.912,493.749 1040.169,493.917 1038.426,493.718 1036.683,493.098 1034.940,493.789 1033.197,494.203 1031.454,492.637 1029.711,491.249 1027.968,491.689 1026.225,492.739 1024.482,492.091 1022.739,492.871 1020.996,493.147 1019.253,493.175 1017.510,492.211 1015.767,490.518 1014.024,492.603 1012.281,493.102 1010.538,491.348 1008.795,491.641 1007.052,492.343 1005.309,492.157 1003.566,491.199 1001.823,492.950 1000.080,493.533 998.337,491.706 996.594,492.715 994.851,492.702 993.108,492.226 991.365,491.800 989.622,491.988 987.879,490.081 986.136,490.320 984.393,489.887 982.650,491.890 980.907,489.526 979.164,485.659 977.421,491.926 975.678,492.785 973.935,491.326 972.192,488.574 970.449,487.761 968.706,489.865 966.963,490.532 965.220,489.631 963.477,489.980 961.734,490.310 959.991,489.172 958.248,488.264 956.504,488.847 954.761,490.275 953.018,489.620 951.275,490.716 949.532,491.012 947.789,489.877 946.046,489.259 944.303,489.203 942.560,487.588 940.817,485.902 939.074,487.662 937.331,489.130 935.588,489.188 933.845,489.715 932.102,489.424 930.359,489.122 928.616,491.043 926.873,489.961 925.130,487.561 923.387,489.139 921.644,489.373 919.901,488.800 918.158,489.453 916.415,487.796 914.672,488.450 912.929,487.860 911.186,487.217 909.443,487.778 907.700,488.087 905.957,488.128 904.214,488.489 902.471,487.370 900.728,487.755 898.985,489.135 897.242,488.462 895.499,487.413 893.756,486.000 892.013,487.475 890.270,487.492 888.527,486.313 886.784,488.045 885.041,488.098 883.298,485.561 881.555,485.541 879.812,485.518 878.069,485.641 876.326,485.764 874.583,485.688 872.840,485.139 871.097,486.101 869.354,484.972 867.611,484.005 865.868,481.715 864.125,485.321 862.382,483.135 860.639,485.539 858.896,484.237 857.153,484.031 855.410,485.520 853.667,479.815 851.924,484.167 850.181,482.706 848.438,482.564 846.694,483.859 844.951,482.085 843.208,481.413 841.465,480.377 839.722,478.036 837.979,481.074 836.236,479.382 834.493,478.038 832.750,475.764 831.007,477.023 829.264,478.628 827.521,476.122 825.778,475.413 824.035,474.904 822.292,437.867 820.549,467.662 818.806,473.701 817.063,473.678 815.320,469.872 813.577,473.208 811.834,475.206 810.091,468.313 808.348,468.772 806.605,472.305 804.862,469.912 803.119,467.192 801.376,457.453 799.633,453.360 797.890,454.624 796.147,447.056 794.404,458.029 792.661,446.895 790.918,452.071 789.175,450.123 787.432,455.328 785.689,459.923 783.946,456.434 782.203,437.493 780.460,440.339 778.717,445.240 776.974,450.900 775.231,441.740 773.488,438.185 771.745,447.917 770.002,451.799 768.259,452.335 766.516,442.955 764.773,447.041 763.030,451.769 761.287,456.516 759.544,442.515 757.801,456.966 756.058,462.716 754.315,463.803 752.572,455.707 750.829,463.161 749.086,463.805 747.343,461.278 745.600,458.866 743.857,466.099 742.114,464.852 740.371,468.309 738.627,464.200 736.884,465.131 735.141,467.664 733.398,466.138 731.655,460.706 729.912,456.362 728.169,447.523 726.426,464.357 724.683,463.351 722.940,466.211 721.197,468.177 719.454,465.184 717.711,463.688 715.968,466.720 714.225,468.030 712.482,465.606 710.739,455.163 708.996,456.752 707.253,460.224 705.510,467.824 703.767,464.578 702.024,467.742 700.281,464.582 698.538,464.036 696.795,456.175 695.052,467.370 693.309,464.651 691.566,465.865 689.823,468.071 688.080,466.885 686.337,469.542 684.594,461.083 682.851,468.319 681.108,469.649 679.365,467.823 677.622,465.900 675.879,467.638 674.136,463.555 672.393,462.440 670.650,466.503 668.907,463.776 667.164,452.297 665.421,222.091 663.678,429.867 661.935,464.016 660.192,461.929 658.449,464.215 656.706,464.562 654.963,458.749 653.220,462.612 651.477,462.135 649.734,462.563 647.991,458.720 646.248,459.060 644.505,444.630 642.762,424.318 641.019,452.309 639.276,458.306 637.533,461.558 635.790,453.616 634.047,433.450 632.304,450.738 630.560,455.294 628.817,455.156 627.074,456.444 625.331,452.852 623.588,456.328 621.845,449.517 620.102,449.349 618.359,451.761 616.616,445.552 614.873,443.545 613.130,444.763 611.387,439.270 609.644,439.116 607.901,438.493 606.158,434.157 604.415,430.019 602.672,396.673 600.929,421.825 599.186,435.599 597.443,435.590 595.700,438.248 593.957,426.856 592.214,426.960 590.471,422.273 588.728,423.682 586.985,422.430 585.242,424.837 583.499,408.287 581.756,406.476 580.013,405.561 578.270,395.212 576.527,389.055 574.784,395.978 573.041,389.770 571.298,291.546 569.555,379.731 567.812,384.360 566.069,400.135 564.326,372.108 562.583,383.695 560.840,371.202 559.097,345.924 557.354,360.509 555.611,362.996 553.868,350.608 552.125,353.295 550.382,361.854 548.639,314.870 546.896,297.686 545.153,266.107 543.410,267.865 541.667,243.487 539.924,130.559 538.181,223.654 536.438,215.202 534.695,156.478 532.952,108.403 531.209,156.663 529.466,55.505 527.723,40.923 525.980,-31.529 524.237,-239.071 522.493,-249.031 520.750,-475.573 519.007,-1340.849 517.264,-2114.769 515.521,-4254.680 513.778,-8417.071 512.035,-33588.595 510.292,-38211.319 508.549,-2789.326 "/>
</g>
    </g>
    <g>
      <polyline fill="none" stroke="#262626" stroke-width="0.5pt" stroke-dasharray="none" points="560.840,502.461 560.840,498.131 "/>
      <polyline fill="none" stroke="#262626" stroke-width="0.5pt" stroke-dasharray="none" points="613.130,502.461 613.130,498.131 "/>
      <polyline fill="none" stroke="#262626" stroke-width="0.5pt" stroke-dasharray="none" points="665.421,502.461 665.421,498.131 "/>
      <polyline fill="none" stroke="#262626" stroke-width="0.5pt" stroke-dasharray="none" points="717.711,502.461 717.711,498.131 "/>
      <polyline fill="none" stroke="#262626" stroke-width="0.5pt" stroke-dasharray="none" points="770.002,502.461 770.002,498.131 "/>
      <polyline fill="none" stroke="#262626" stroke-width="0.5pt" stroke-dasharray="none" points="822.292,502.461 822.292,498.131 "/>
      <polyline fill="none" stroke="#262626" stroke-width="0.5pt" stroke-dasharray="none" points="534.695,502.461 848.438,502.461 "/>
  <g transform="translate(560.840,522.184)">
    <g transform="rotate(-0.0)">
      <text x="0.000" y="0.000" font-family="Helvetica" text-anchor="middle" font-size="9pt" fill="#262626" >2</text>
    </g>
  </g>
  <g transform="translate(613.130,522.184)">
    <g transform="rotate(-0.0)">
      <text x="0.000" y="0.000" font-family="Helvetica" text-anchor="middle" font-size="9pt" fill="#262626" >4</text>
    </g>
  </g>
  <g transform="translate(665.421,522.184)">
    <g transform="rotate(-0.0)">
      <text x="0.000" y="0.000" font-family="Helvetica" text-anchor="middle" font-size="9pt" fill="#262626" >6</text>
    </g>
  </g>
  <g transform="translate(717.711,522.184)">
    <g transform="rotate(-0.0)">
      <text x="0.000" y="0.000" font-family="Helvetica" text-anchor="middle" font-size="9pt" fill="#262626" >8</text>
    </g>
  </g>
  <g transform="translate(770.002,522.184)">
    <g transform="rotate(-0.0)">
      <text x="0.000" y="0.000" font-family="Helvetica" text-anchor="middle" font-size="9pt" fill="#262626" >10</text>
    </g>
  </g>
  <g transform="translate(822.292,522.184)">
    <g transform="rotate(-0.0)">
      <text x="0.000" y="0.000" font-family="Helvetica" text-anchor="middle" font-size="9pt" fill="#262626" >12</text>
    </g>
  </g>
      <polyline fill="none" stroke="#262626" stroke-width="0.5pt" stroke-dasharray="none" points="534.695,502.461 539.025,502.461 "/>
      <polyline fill="none" stroke="#262626" stroke-width="0.5pt" stroke-dasharray="none" points="534.695,440.599 539.025,440.599 "/>
      <polyline fill="none" stroke="#262626" stroke-width="0.5pt" stroke-dasharray="none" points="534.695,378.736 539.025,378.736 "/>
      <polyline fill="none" stroke="#262626" stroke-width="0.5pt" stroke-dasharray="none" points="534.695,316.874 539.025,316.874 "/>
      <polyline fill="none" stroke="#262626" stroke-width="0.5pt" stroke-dasharray="none" points="534.695,255.012 539.025,255.012 "/>
      <polyline fill="none" stroke="#262626" stroke-width="0.5pt" stroke-dasharray="none" points="534.695,193.149 539.025,193.149 "/>
      <polyline fill="none" stroke="#262626" stroke-width="0.5pt" stroke-dasharray="none" points="534.695,131.287 539.025,131.287 "/>
      <polyline fill="none" stroke="#262626" stroke-width="0.5pt" stroke-dasharray="none" points="534.695,69.425 539.025,69.425 "/>
      <polyline fill="none" stroke="#262626" stroke-width="0.5pt" stroke-dasharray="none" points="534.695,502.461 534.695,69.425 "/>
  <g transform="translate(528.420,506.680)">
    <g transform="rotate(-0.0)">
      <text x="0.000" y="0.000" font-family="Helvetica" text-anchor="end" font-size="9pt" fill="#262626" >0</text>
    </g>
  </g>
  <g transform="translate(528.420,444.817)">
    <g transform="rotate(-0.0)">
      <text x="0.000" y="0.000" font-family="Helvetica" text-anchor="end" font-size="9pt" fill="#262626" >0.2</text>
    </g>
  </g>
  <g transform="translate(528.420,382.955)">
    <g transform="rotate(-0.0)">
      <text x="0.000" y="0.000" font-family="Helvetica" text-anchor="end" font-size="9pt" fill="#262626" >0.4</text>
    </g>
  </g>
  <g transform="translate(528.420,321.093)">
    <g transform="rotate(-0.0)">
      <text x="0.000" y="0.000" font-family="Helvetica" text-anchor="end" font-size="9pt" fill="#262626" >0.6</text>
    </g>
  </g>
  <g transform="translate(528.420,259.230)">
    <g transform="rotate(-0.0)">
      <text x="0.000" y="0.000" font-family="Helvetica" text-anchor="end" font-size="9pt" fill="#262626" >0.8</text>
    </g>
  </g>
  <g transform="translate(528.420,197.368)">
    <g transform="rotate(-0.0)">
      <text x="0.000" y="0.000" font-family="Helvetica" text-anchor="end" font-size="9pt" fill="#262626" >1</text>
    </g>
  </g>
  <g transform="translate(528.420,135.506)">
    <g transform="rotate(-0.0)">
      <text x="0.000" y="0.000" font-family="Helvetica" text-anchor="end" font-size="9pt" fill="#262626" >1.2</text>
    </g>
  </g>
  <g transform="translate(528.420,73.643)">
    <g transform="rotate(-0.0)">
      <text x="0.000" y="0.000" font-family="Helvetica" text-anchor="end" font-size="9pt" fill="#262626" >1.4</text>
    </g>
  </g>
      <polyline fill="none" stroke="#262626" stroke-width="0.5pt" stroke-dasharray="none" points="534.695,502.461 534.695,502.461 "/>
    </g>
  </g>
  </g>
</svg>
