<?xml version="1.0" encoding="utf-8" standalone="no"?><!DOCTYPE svg PUBLIC "-//W3C//DTD SVG 1.1//EN" "http://www.w3.org/Graphics/SVG/1.1/DTD/svg11.dtd">
<svg preserveAspectRatio="xMinYMin meet" width="100%" height="100%" viewBox="0 0 937.500 562.500"  version="1.1" xmlns="http://www.w3.org/2000/svg" xmlns:xlink="http://www.w3.org/1999/xlink">
  <desc>Matlab Figure Converted by PLOT2SVG written by Juerg Schwizer</desc>
  <g id="topgroup">
  <rect x="0" y="0" width="937.500" height="562.500" fill="#ffffff" stroke="none" />
  <g id ="ID000000">
  <clipPath id="ID000001">
    <rect x="121.875" y="69.425" width="313.743" height="433.037"/>
  </clipPath>
      <polygon fill="#ffffff" fill-opacity="1.00" stroke="none" stroke-width="0.5pt" stroke-opacity="1.00" stroke-dasharray="none" points="121.875,502.461 435.618,502.461 435.618,69.425 121.875,69.425 "/>
      <polygon fill="#ffffff" fill-opacity="1.00" stroke="none" stroke-width="0.5pt" stroke-opacity="1.00" stroke-dasharray="none" points="121.875,69.425 435.618,69.425 435.618,69.425 121.875,69.425 "/>
      <polygon fill="#ffffff" fill-opacity="1.00" stroke="none" stroke-width="0.5pt" stroke-opacity="1.00" stroke-dasharray="none" points="121.875,502.461 121.875,502.461 121.875,69.425 121.875,69.425 "/>
    <g>
<g id="ID000002" clip-path="url(#ID000001)" >
      <polyline fill="none" stroke="#5394ff" stroke-width="1.0pt" stroke-dasharray="none" points="95.730,-2849.393 97.473,-35930.260 99.216,-27254.578 100.959,-5503.095 102.702,-2982.074 104.445,-1501.855 106.188,-813.950 107.931,-236.369 109.674,-153.548 111.417,4.436 113.160,102.062 114.903,190.673 116.646,199.187 118.389,245.761 120.132,246.814 121.875,284.915 123.618,299.647 125.361,319.392 127.104,225.202 128.847,319.557 130.590,348.500 132.333,350.221 134.076,357.239 135.819,383.568 137.562,381.967 139.305,400.884 141.048,402.681 142.791,409.005 144.534,408.066 146.277,405.073 148.020,418.310 149.763,415.118 151.506,409.080 153.249,422.466 154.992,421.172 156.735,414.256 158.478,309.759 160.221,415.900 161.964,435.536 163.707,432.422 165.450,431.237 167.193,442.307 168.936,440.112 170.679,439.307 172.422,443.677 174.165,442.559 175.908,449.986 177.652,445.927 179.395,449.402 181.138,450.209 182.881,451.372 184.624,451.890 186.367,450.679 188.110,447.325 189.853,414.524 191.596,448.002 193.339,457.690 195.082,464.603 196.825,463.745 198.568,463.099 200.311,464.190 202.054,463.422 203.797,467.134 205.540,464.926 207.283,466.323 209.026,464.599 210.769,466.667 212.512,463.596 214.255,468.183 215.998,464.645 217.741,472.461 219.484,468.189 221.227,458.064 222.970,473.860 224.713,472.987 226.456,471.723 228.199,471.344 229.942,468.054 231.685,471.466 233.428,467.897 235.171,473.180 236.914,474.278 238.657,475.254 240.400,475.505 242.143,473.256 243.886,474.273 245.629,476.330 247.372,477.112 249.115,473.803 250.858,446.419 252.601,187.917 254.344,463.533 256.087,476.898 257.830,476.790 259.573,477.854 261.316,477.613 263.059,479.210 264.802,477.962 266.545,477.806 268.288,478.593 270.031,480.007 271.774,478.701 273.517,475.257 275.260,477.688 277.003,480.759 278.746,479.859 280.489,480.462 282.232,479.966 283.975,466.787 285.719,480.842 287.462,481.279 289.205,478.923 290.948,481.617 292.691,481.581 294.434,476.307 296.177,477.243 297.920,477.841 299.663,481.729 301.406,477.230 303.149,478.284 304.892,481.095 306.635,480.079 308.378,480.772 310.121,480.900 311.864,480.992 313.607,481.826 315.350,468.699 317.093,479.074 318.836,481.519 320.579,480.452 322.322,479.192 324.065,478.621 325.808,479.130 327.551,480.361 329.294,479.482 331.037,479.981 332.780,477.026 334.523,477.140 336.266,476.560 338.009,478.685 339.752,475.782 341.495,474.319 343.238,478.260 344.981,473.346 346.724,465.179 348.467,474.395 350.210,469.281 351.953,474.647 353.696,467.745 355.439,471.856 357.182,469.342 358.925,468.500 360.668,469.577 362.411,467.172 364.154,475.243 365.897,474.377 367.640,471.354 369.383,473.803 371.126,475.029 372.869,473.671 374.612,474.763 376.355,474.251 378.098,469.928 379.841,476.688 381.584,478.688 383.327,478.369 385.070,476.976 386.813,480.711 388.556,480.720 390.299,482.197 392.042,482.628 393.786,480.684 395.529,486.070 397.272,485.020 399.015,483.161 400.758,484.098 402.501,485.280 404.244,482.999 405.987,485.351 407.730,483.533 409.473,468.447 411.216,486.833 412.959,487.049 414.702,485.957 416.445,486.025 418.188,485.003 419.931,488.476 421.674,486.998 423.417,485.059 425.160,486.043 426.903,488.175 428.646,488.366 430.389,490.042 432.132,488.891 433.875,489.102 435.618,488.215 437.361,489.397 439.104,489.433 440.847,485.300 442.590,489.373 444.333,490.705 446.076,489.744 447.819,491.117 449.562,488.089 451.305,490.701 453.048,493.100 454.791,489.380 456.534,490.201 458.277,490.489 460.020,490.991 461.763,491.917 463.506,492.614 465.249,492.165 466.992,490.786 468.735,490.809 470.478,490.158 472.221,492.189 473.964,490.809 475.707,492.609 477.450,490.320 479.193,490.698 480.936,492.400 482.679,490.943 484.422,493.613 486.165,493.670 487.908,492.355 489.651,493.424 491.394,493.790 493.137,492.635 494.880,492.781 496.623,493.818 498.366,493.641 500.109,493.668 501.853,492.640 503.596,492.711 505.339,494.714 507.082,493.693 508.825,493.087 510.568,494.250 512.311,493.614 514.054,493.524 515.797,494.531 517.540,493.907 519.283,493.356 521.026,494.404 522.769,494.658 524.512,494.606 526.255,493.745 527.998,494.430 529.741,495.031 531.484,495.129 533.227,495.241 534.970,494.227 536.713,494.988 538.456,495.119 540.199,496.429 541.942,495.277 543.685,494.607 545.428,495.467 547.171,494.813 548.914,495.321 550.657,496.119 552.400,495.134 554.143,495.070 555.886,494.362 557.629,495.536 559.372,495.704 561.115,494.705 562.858,495.195 564.601,495.369 566.344,492.322 568.087,495.284 569.830,496.475 571.573,496.971 573.316,495.817 575.059,496.173 576.802,495.136 578.545,496.767 580.288,496.729 582.031,496.225 583.774,496.622 585.517,496.185 587.260,496.058 589.003,495.673 590.746,495.338 592.489,496.558 594.232,496.427 595.975,496.210 597.718,496.751 599.461,496.716 601.204,496.713 602.947,495.853 604.690,497.116 606.433,496.088 608.176,497.320 609.920,496.652 611.663,496.761 613.406,496.831 615.149,497.339 616.892,497.179 618.635,497.130 620.378,497.309 622.121,496.591 623.864,497.098 625.607,497.289 627.350,496.881 629.093,496.949 630.836,496.858 632.579,496.376 634.322,496.210 636.065,496.465 637.808,497.079 639.551,497.644 641.294,497.461 643.037,497.366 644.780,497.074 646.523,496.858 648.266,497.083 650.009,496.885 651.752,496.720 653.495,497.107 655.238,497.020 656.981,497.514 658.724,497.454 660.467,497.318 662.210,497.470 663.953,496.592 665.696,496.876 667.439,497.014 669.182,496.600 670.925,496.636 672.668,497.133 674.411,496.530 676.154,497.465 677.897,497.192 679.640,497.543 681.383,497.501 683.126,498.024 684.869,497.053 686.612,497.546 688.355,497.426 690.098,497.312 691.841,497.161 693.584,497.702 695.327,496.945 697.070,496.974 698.813,497.140 700.556,496.282 702.299,497.741 704.042,495.704 705.785,496.700 707.528,497.373 709.271,497.592 711.014,498.073 712.757,495.974 714.500,496.263 716.243,497.031 717.987,497.900 719.730,496.467 721.473,497.157 723.216,496.168 724.959,496.553 726.702,494.894 728.445,497.099 730.188,498.274 731.931,498.209 733.674,497.537 735.417,498.339 737.160,497.428 738.903,496.224 740.646,498.071 742.389,497.025 744.132,497.598 745.875,497.823 747.618,497.402 749.361,496.799 751.104,498.494 752.847,497.079 754.590,497.185 756.333,498.059 758.076,497.633 759.819,495.900 761.562,496.682 763.305,494.446 765.048,496.082 766.791,496.198 768.534,496.011 770.277,496.802 772.020,497.699 773.763,496.030 775.506,497.897 777.249,496.756 778.992,497.305 780.735,497.506 782.478,495.546 784.221,495.716 785.964,496.442 787.707,496.502 789.450,494.656 791.193,494.214 792.936,496.223 794.679,496.472 796.422,495.525 798.165,495.217 799.908,496.125 801.651,497.328 803.394,497.746 805.137,495.969 806.880,497.916 808.623,499.018 810.366,498.044 812.109,498.108 813.852,497.515 815.595,497.118 817.338,497.732 819.081,496.173 820.824,494.926 822.567,497.461 824.310,497.123 826.054,498.239 827.797,495.499 829.540,497.380 831.283,496.884 833.026,496.767 834.769,497.921 836.512,497.424 838.255,497.726 839.998,497.937 841.741,499.092 843.484,498.532 845.227,495.171 846.970,496.936 848.713,497.895 850.456,498.054 852.199,497.846 853.942,497.651 855.685,498.886 857.428,497.807 859.171,496.883 860.914,496.870 862.657,498.261 864.400,498.012 866.143,498.180 867.886,498.123 869.629,498.313 871.372,497.478 873.115,497.614 874.858,498.286 876.601,498.853 878.344,498.621 880.087,496.202 "/>
<g>
</g>
</g>
<g id="ID000003" clip-path="url(#ID000001)" >
      <polygon fill="#a6c7ff" fill-opacity="1.00" stroke="none" stroke-width="0.5pt" stroke-opacity="1.00" stroke-dasharray="none" points="95.730,-924.538 97.473,-16562.795 99.216,-9058.030 100.959,-2337.219 102.702,-869.388 104.445,-350.113 106.188,-177.525 107.931,23.603 109.674,81.874 111.417,158.043 113.160,188.566 114.903,246.597 116.646,256.475 118.389,284.942 120.132,294.047 121.875,316.152 123.618,328.183 125.361,340.919 127.104,261.832 128.847,346.066 130.590,374.240 132.333,375.169 134.076,375.692 135.819,399.217 137.562,399.936 139.305,412.712 141.048,416.831 142.791,420.964 144.534,418.818 146.277,415.735 148.020,427.467 149.763,427.365 151.506,423.415 153.249,434.051 154.992,431.820 156.735,423.452 158.478,331.878 160.221,424.050 161.964,443.607 163.707,441.233 165.450,438.742 167.193,448.868 168.936,447.464 170.679,446.092 172.422,449.454 174.165,448.649 175.908,455.957 177.652,453.274 179.395,454.999 181.138,456.641 182.881,456.258 184.624,456.730 186.367,456.613 188.110,453.164 189.853,424.048 191.596,453.560 193.339,462.363 195.082,467.687 196.825,467.121 198.568,467.002 200.311,468.156 202.054,466.588 203.797,471.136 205.540,469.944 207.283,470.488 209.026,468.847 210.769,471.172 212.512,467.984 214.255,472.743 215.998,469.186 217.741,475.934 219.484,471.574 221.227,462.465 222.970,476.485 224.713,476.167 226.456,475.420 228.199,475.252 229.942,472.941 231.685,475.318 233.428,472.361 235.171,475.999 236.914,478.304 238.657,478.621 240.400,478.892 242.143,476.846 243.886,478.138 245.629,479.933 247.372,479.835 249.115,477.586 250.858,457.325 252.601,272.789 254.344,469.538 256.087,479.953 257.830,481.187 259.573,480.780 261.316,480.692 263.059,482.143 264.802,481.083 266.545,480.869 268.288,481.339 270.031,483.305 271.774,482.651 273.517,479.998 275.260,481.718 277.003,483.401 278.746,482.831 280.489,483.115 282.232,482.285 283.975,471.073 285.719,482.931 287.462,483.978 289.205,483.108 290.948,485.380 292.691,485.156 294.434,484.362 296.177,484.331 297.920,483.683 299.663,485.658 301.406,483.778 303.149,483.293 304.892,484.323 306.635,483.419 308.378,483.888 310.121,484.122 311.864,484.012 313.607,484.321 315.350,472.595 317.093,482.172 318.836,484.504 320.579,483.543 322.322,483.224 324.065,482.550 325.808,484.397 327.551,483.627 329.294,482.652 331.037,483.017 332.780,481.002 334.523,481.593 336.266,481.219 338.009,481.691 339.752,480.834 341.495,480.296 343.238,481.759 344.981,478.314 346.724,470.017 348.467,478.261 350.210,474.956 351.953,478.534 353.696,473.618 355.439,476.168 357.182,475.477 358.925,473.636 360.668,474.608 362.411,472.265 364.154,478.742 365.897,477.880 367.640,476.782 369.383,478.017 371.126,479.346 372.869,477.888 374.612,479.422 376.355,477.960 378.098,474.405 379.841,480.515 381.584,482.300 383.327,482.221 385.070,481.603 386.813,483.856 388.556,483.704 390.299,484.922 392.042,486.100 393.786,483.864 395.529,488.298 397.272,487.140 399.015,486.856 400.758,486.613 402.501,487.994 404.244,487.746 405.987,488.014 407.730,485.675 409.473,472.721 411.216,489.158 412.959,489.755 414.702,489.665 416.445,488.881 418.188,489.073 419.931,490.363 421.674,490.111 423.417,488.800 425.160,489.096 426.903,491.255 428.646,491.103 430.389,491.993 432.132,490.826 433.875,491.777 435.618,491.436 437.361,491.519 439.104,491.772 440.847,488.720 442.590,491.936 444.333,492.975 446.076,492.342 447.819,493.545 449.562,491.238 451.305,493.187 453.048,494.229 454.791,491.946 456.534,492.637 458.277,492.624 460.020,493.654 461.763,493.699 463.506,494.467 465.249,494.085 466.992,493.460 468.735,492.557 470.478,492.916 472.221,493.506 473.964,492.713 475.707,493.976 477.450,492.931 479.193,493.504 480.936,494.263 482.679,493.661 484.422,494.833 486.165,494.969 487.908,494.113 489.651,494.747 491.394,495.338 493.137,495.183 494.880,494.583 496.623,495.357 498.366,495.084 500.109,494.972 501.853,494.278 503.596,494.375 505.339,495.877 507.082,495.292 508.825,495.104 510.568,495.463 512.311,495.413 514.054,495.117 515.797,495.491 517.540,495.317 519.283,494.994 521.026,495.811 522.769,495.811 524.512,495.896 526.255,495.492 527.998,495.828 529.741,496.247 531.484,496.013 533.227,496.319 534.970,495.490 536.713,495.960 538.456,496.231 540.199,497.219 541.942,496.525 543.685,496.199 545.428,496.502 547.171,496.008 548.914,496.475 550.657,496.896 552.400,496.199 554.143,496.439 555.886,496.094 557.629,496.513 559.372,496.661 561.115,496.258 562.858,496.488 564.601,496.226 566.344,494.012 568.087,496.419 569.830,497.312 571.573,497.648 573.316,496.929 575.059,497.327 576.802,496.915 578.545,497.418 580.288,497.529 582.031,497.077 583.774,497.458 585.517,497.119 587.260,497.088 589.003,496.875 590.746,496.723 592.489,497.593 594.232,497.420 595.975,497.352 597.718,497.446 599.461,497.467 601.204,497.633 602.947,497.164 604.690,498.021 606.433,497.185 608.176,498.154 609.920,497.417 611.663,497.686 613.406,497.824 615.149,498.178 616.892,498.079 618.635,497.833 620.378,497.872 622.121,497.749 623.864,497.770 625.607,497.973 627.350,497.864 629.093,497.986 630.836,497.825 632.579,497.369 634.322,497.049 636.065,497.792 637.808,497.900 639.551,498.354 641.294,498.120 643.037,498.036 644.780,498.048 646.523,497.805 648.266,498.227 650.009,498.144 651.752,498.012 653.495,498.187 655.238,497.745 656.981,498.192 658.724,498.046 660.467,498.002 662.210,498.283 663.953,497.850 665.696,498.061 667.439,498.103 669.182,497.771 670.925,498.002 672.668,498.179 674.411,497.998 676.154,498.270 677.897,498.373 679.640,498.426 681.383,498.439 683.126,498.816 684.869,498.262 686.612,498.387 688.355,498.440 690.098,498.295 691.841,498.176 693.584,498.742 695.327,498.492 697.070,498.600 698.813,498.364 700.556,498.898 702.299,498.781 704.042,497.870 705.785,498.269 707.528,498.685 709.271,498.740 711.014,498.930 712.757,498.550 714.500,498.484 716.243,498.603 717.987,499.229 719.730,498.984 721.473,498.759 723.216,497.935 724.959,498.333 726.702,498.174 728.445,499.229 730.188,499.005 731.931,499.302 733.674,498.907 735.417,499.048 737.160,498.780 738.903,499.135 740.646,499.231 742.389,498.694 744.132,498.931 745.875,499.123 747.618,498.928 749.361,499.085 751.104,499.428 752.847,499.133 754.590,498.703 756.333,499.262 758.076,499.249 759.819,498.863 761.562,499.007 763.305,499.071 765.048,499.132 766.791,499.057 768.534,499.084 770.277,499.208 772.020,499.342 773.763,498.959 775.506,499.444 777.249,498.804 778.992,498.997 780.735,499.398 782.478,499.052 784.221,499.556 785.964,499.551 787.707,498.911 789.450,498.940 791.193,499.479 792.936,499.240 794.679,498.978 796.422,499.208 798.165,498.884 799.908,498.931 801.651,499.636 803.394,499.398 805.137,498.957 806.880,499.280 808.623,499.687 810.366,499.904 812.109,499.683 813.852,499.991 815.595,499.520 817.338,499.520 819.081,499.595 820.824,499.219 822.567,499.919 824.310,499.470 826.054,499.387 827.797,499.176 829.540,499.547 831.283,499.205 833.026,499.465 834.769,499.919 836.512,499.534 838.255,499.698 839.998,499.479 841.741,499.908 843.484,500.118 845.227,499.645 846.970,499.837 848.713,499.747 850.456,499.295 852.199,499.800 853.942,499.610 855.685,499.812 857.428,499.790 859.171,499.051 860.914,499.175 862.657,499.828 864.400,499.642 866.143,499.542 867.886,499.516 869.629,499.617 871.372,499.580 873.115,499.575 874.858,499.331 876.601,499.930 878.344,499.658 880.087,498.538 880.087,493.867 878.344,497.584 876.601,497.775 874.858,497.242 873.115,495.653 871.372,495.376 869.629,497.009 867.886,496.730 866.143,496.818 864.400,496.383 862.657,496.693 860.914,494.565 859.171,494.716 857.428,495.825 855.685,497.961 853.942,495.692 852.199,495.891 850.456,496.813 848.713,496.043 846.970,494.036 845.227,490.697 843.484,496.945 841.741,498.275 839.998,496.395 838.255,495.754 836.512,495.314 834.769,495.923 833.026,494.068 831.283,494.564 829.540,495.213 827.797,491.823 826.054,497.092 824.310,494.776 822.567,495.002 820.824,490.633 819.081,492.751 817.338,495.944 815.595,494.716 813.852,495.039 812.109,496.532 810.366,496.185 808.623,498.348 806.880,496.552 805.137,492.981 803.394,496.094 801.651,495.020 799.908,493.320 798.165,491.550 796.422,491.842 794.679,493.966 792.936,493.207 791.193,488.948 789.450,490.372 787.707,494.093 785.964,493.334 784.221,491.877 782.478,492.041 780.735,495.615 778.992,495.613 777.249,494.709 775.506,496.349 773.763,493.102 772.020,496.057 770.277,494.397 768.534,492.937 766.791,493.340 765.048,493.031 763.305,489.822 761.562,494.357 759.819,492.936 758.076,496.017 756.333,496.856 754.590,495.666 752.847,495.024 751.104,497.559 749.361,494.513 747.618,495.876 745.875,496.522 744.132,496.264 742.389,495.355 740.646,496.910 738.903,493.314 737.160,496.077 735.417,497.631 733.674,496.167 731.931,497.116 730.188,497.543 728.445,494.970 726.702,491.614 724.959,494.773 723.216,494.402 721.473,495.555 719.730,493.949 717.987,496.571 716.243,495.460 714.500,494.042 712.757,493.399 711.014,497.215 709.271,496.444 707.528,496.060 705.785,495.131 704.042,493.538 702.299,496.701 700.556,493.666 698.813,495.916 697.070,495.349 695.327,495.397 693.584,496.662 691.841,496.146 690.098,496.329 688.355,496.413 686.612,496.706 684.869,495.844 683.126,497.232 681.383,496.563 679.640,496.660 677.897,496.010 676.154,496.661 674.411,495.061 672.668,496.086 670.925,495.270 669.182,495.428 667.439,495.925 665.696,495.690 663.953,495.335 662.210,496.657 660.467,496.634 658.724,496.863 656.981,496.835 655.238,496.296 653.495,496.027 651.752,495.429 650.009,495.626 648.266,495.939 646.523,495.911 644.780,496.101 643.037,496.695 641.294,496.803 639.551,496.933 637.808,496.259 636.065,495.138 634.322,495.372 632.579,495.382 630.836,495.891 629.093,495.912 627.350,495.898 625.607,496.606 623.864,496.425 622.121,495.433 620.378,496.746 618.635,496.427 616.892,496.280 615.149,496.500 613.406,495.838 611.663,495.836 609.920,495.887 608.176,496.485 606.433,494.990 604.690,496.212 602.947,494.541 601.204,495.794 599.461,495.965 597.718,496.055 595.975,495.067 594.232,495.435 592.489,495.523 590.746,493.954 589.003,494.472 587.260,495.028 585.517,495.251 583.774,495.787 582.031,495.373 580.288,495.930 578.545,496.116 576.802,493.356 575.059,495.019 573.316,494.705 571.573,496.293 569.830,495.637 568.087,494.150 566.344,490.631 564.601,494.512 562.858,493.902 561.115,493.153 559.372,494.748 557.629,494.559 555.886,492.630 554.143,493.702 552.400,494.068 550.657,495.341 548.914,494.168 547.171,493.618 545.428,494.432 543.685,493.015 541.942,494.029 540.199,495.638 538.456,494.007 536.713,494.015 534.970,492.965 533.227,494.163 531.484,494.244 529.741,493.816 527.998,493.032 526.255,491.998 524.512,493.316 522.769,493.504 521.026,492.997 519.283,491.717 517.540,492.497 515.797,493.572 514.054,491.932 512.311,491.816 510.568,493.038 508.825,491.069 507.082,492.094 505.339,493.550 503.596,491.046 501.853,491.001 500.109,492.364 498.366,492.197 496.623,492.280 494.880,490.979 493.137,490.086 491.394,492.242 489.651,492.101 487.908,490.598 486.165,492.370 484.422,492.393 482.679,488.224 480.936,490.537 479.193,487.891 477.450,487.710 475.707,491.243 473.964,488.905 472.221,490.871 470.478,487.399 468.735,489.061 466.992,488.113 465.249,490.246 463.506,490.760 461.763,490.136 460.020,488.328 458.277,488.355 456.534,487.765 454.791,486.814 453.048,491.972 451.305,488.215 449.562,484.941 447.819,488.689 446.076,487.147 444.333,488.435 442.590,486.810 440.847,481.880 439.104,487.093 437.361,487.275 435.618,484.994 433.875,486.426 432.132,486.956 430.389,488.091 428.646,485.628 426.903,485.094 425.160,482.990 423.417,481.318 421.674,483.886 419.931,486.590 418.188,480.932 416.445,483.168 414.702,482.250 412.959,484.342 411.216,484.508 409.473,464.172 407.730,481.390 405.987,482.689 404.244,478.253 402.501,482.566 400.758,481.582 399.015,479.467 397.272,482.901 395.529,483.842 393.786,477.503 392.042,479.156 390.299,479.471 388.556,477.736 386.813,477.567 385.070,472.349 383.327,474.517 381.584,475.077 379.841,472.860 378.098,465.451 376.355,470.542 374.612,470.104 372.869,469.454 371.126,470.712 369.383,469.589 367.640,465.926 365.897,470.873 364.154,471.744 362.411,462.079 360.668,464.546 358.925,463.364 357.182,463.206 355.439,467.544 353.696,461.873 351.953,470.761 350.210,463.606 348.467,470.530 346.724,460.340 344.981,468.379 343.238,474.761 341.495,468.341 339.752,470.730 338.009,475.679 336.266,471.900 334.523,472.688 332.780,473.051 331.037,476.945 329.294,476.313 327.551,477.094 325.808,473.864 324.065,474.691 322.322,475.160 320.579,477.362 318.836,478.535 317.093,475.976 315.350,464.803 313.607,479.332 311.864,477.971 310.121,477.677 308.378,477.656 306.635,476.740 304.892,477.868 303.149,473.276 301.406,470.681 299.663,477.799 297.920,471.999 296.177,470.154 294.434,468.252 292.691,478.005 290.948,477.855 289.205,474.738 287.462,478.581 285.719,478.753 283.975,462.502 282.232,477.647 280.489,477.809 278.746,476.887 277.003,478.116 275.260,473.659 273.517,470.516 271.774,474.752 270.031,476.710 268.288,475.847 266.545,474.743 264.802,474.842 263.059,476.278 261.316,474.535 259.573,474.928 257.830,472.394 256.087,473.843 254.344,457.527 252.601,103.046 250.858,435.513 249.115,470.021 247.372,474.388 245.629,472.727 243.886,470.409 242.143,469.665 240.400,472.118 238.657,471.887 236.914,470.252 235.171,470.362 233.428,463.433 231.685,467.613 229.942,463.166 228.199,467.435 226.456,468.026 224.713,469.806 222.970,471.235 221.227,453.663 219.484,464.804 217.741,468.989 215.998,460.103 214.255,463.623 212.512,459.209 210.769,462.162 209.026,460.351 207.283,462.157 205.540,459.908 203.797,463.133 202.054,460.256 200.311,460.224 198.568,459.196 196.825,460.369 195.082,461.519 193.339,453.016 191.596,442.444 189.853,405.001 188.110,441.487 186.367,444.746 184.624,447.050 182.881,446.485 181.138,443.778 179.395,443.806 177.652,438.580 175.908,444.014 174.165,436.469 172.422,437.899 170.679,432.521 168.936,432.759 167.193,435.745 165.450,423.732 163.707,423.610 161.964,427.464 160.221,407.749 158.478,287.641 156.735,405.060 154.992,410.524 153.249,410.882 151.506,394.746 149.763,402.870 148.020,409.153 146.277,394.411 144.534,397.314 142.791,397.046 141.048,388.531 139.305,389.055 137.562,363.999 135.819,367.918 134.076,338.787 132.333,325.273 130.590,322.759 128.847,293.048 127.104,188.572 125.361,297.865 123.618,271.111 121.875,253.677 120.132,199.580 118.389,206.580 116.646,141.899 114.903,134.749 113.160,15.559 111.417,-149.171 109.674,-388.971 107.931,-496.341 106.188,-1450.375 104.445,-2653.596 102.702,-5094.761 100.959,-8668.970 99.216,-45451.126 97.473,-55297.726 95.730,-4774.247 "/>
</g>
<g id="ID000004" clip-path="url(#ID000001)" >
      <polyline fill="none" stroke="#5394ff" stroke-width="1.0pt" stroke-dasharray="none" points="95.730,-2849.393 97.473,-35930.260 99.216,-27254.578 100.959,-5503.095 102.702,-2982.074 104.445,-1501.855 106.188,-813.950 107.931,-236.369 109.674,-153.548 111.417,4.436 113.160,102.062 114.903,190.673 116.646,199.187 118.389,245.761 120.132,246.814 121.875,284.915 123.618,299.647 125.361,319.392 127.104,225.202 128.847,319.557 130.590,348.500 132.333,350.221 134.076,357.239 135.819,383.568 137.562,381.967 139.305,400.884 141.048,402.681 142.791,409.005 144.534,408.066 146.277,405.073 148.020,418.310 149.763,415.118 151.506,409.080 153.249,422.466 154.992,421.172 156.735,414.256 158.478,309.759 160.221,415.900 161.964,435.536 163.707,432.422 165.450,431.237 167.193,442.307 168.936,440.112 170.679,439.307 172.422,443.677 174.165,442.559 175.908,449.986 177.652,445.927 179.395,449.402 181.138,450.209 182.881,451.372 184.624,451.890 186.367,450.679 188.110,447.325 189.853,414.524 191.596,448.002 193.339,457.690 195.082,464.603 196.825,463.745 198.568,463.099 200.311,464.190 202.054,463.422 203.797,467.134 205.540,464.926 207.283,466.323 209.026,464.599 210.769,466.667 212.512,463.596 214.255,468.183 215.998,464.645 217.741,472.461 219.484,468.189 221.227,458.064 222.970,473.860 224.713,472.987 226.456,471.723 228.199,471.344 229.942,468.054 231.685,471.466 233.428,467.897 235.171,473.180 236.914,474.278 238.657,475.254 240.400,475.505 242.143,473.256 243.886,474.273 245.629,476.330 247.372,477.112 249.115,473.803 250.858,446.419 252.601,187.917 254.344,463.533 256.087,476.898 257.830,476.790 259.573,477.854 261.316,477.613 263.059,479.210 264.802,477.962 266.545,477.806 268.288,478.593 270.031,480.007 271.774,478.701 273.517,475.257 275.260,477.688 277.003,480.759 278.746,479.859 280.489,480.462 282.232,479.966 283.975,466.787 285.719,480.842 287.462,481.279 289.205,478.923 290.948,481.617 292.691,481.581 294.434,476.307 296.177,477.243 297.920,477.841 299.663,481.729 301.406,477.230 303.149,478.284 304.892,481.095 306.635,480.079 308.378,480.772 310.121,480.900 311.864,480.992 313.607,481.826 315.350,468.699 317.093,479.074 318.836,481.519 320.579,480.452 322.322,479.192 324.065,478.621 325.808,479.130 327.551,480.361 329.294,479.482 331.037,479.981 332.780,477.026 334.523,477.140 336.266,476.560 338.009,478.685 339.752,475.782 341.495,474.319 343.238,478.260 344.981,473.346 346.724,465.179 348.467,474.395 350.210,469.281 351.953,474.647 353.696,467.745 355.439,471.856 357.182,469.342 358.925,468.500 360.668,469.577 362.411,467.172 364.154,475.243 365.897,474.377 367.640,471.354 369.383,473.803 371.126,475.029 372.869,473.671 374.612,474.763 376.355,474.251 378.098,469.928 379.841,476.688 381.584,478.688 383.327,478.369 385.070,476.976 386.813,480.711 388.556,480.720 390.299,482.197 392.042,482.628 393.786,480.684 395.529,486.070 397.272,485.020 399.015,483.161 400.758,484.098 402.501,485.280 404.244,482.999 405.987,485.351 407.730,483.533 409.473,468.447 411.216,486.833 412.959,487.049 414.702,485.957 416.445,486.025 418.188,485.003 419.931,488.476 421.674,486.998 423.417,485.059 425.160,486.043 426.903,488.175 428.646,488.366 430.389,490.042 432.132,488.891 433.875,489.102 435.618,488.215 437.361,489.397 439.104,489.433 440.847,485.300 442.590,489.373 444.333,490.705 446.076,489.744 447.819,491.117 449.562,488.089 451.305,490.701 453.048,493.100 454.791,489.380 456.534,490.201 458.277,490.489 460.020,490.991 461.763,491.917 463.506,492.614 465.249,492.165 466.992,490.786 468.735,490.809 470.478,490.158 472.221,492.189 473.964,490.809 475.707,492.609 477.450,490.320 479.193,490.698 480.936,492.400 482.679,490.943 484.422,493.613 486.165,493.670 487.908,492.355 489.651,493.424 491.394,493.790 493.137,492.635 494.880,492.781 496.623,493.818 498.366,493.641 500.109,493.668 501.853,492.640 503.596,492.711 505.339,494.714 507.082,493.693 508.825,493.087 510.568,494.250 512.311,493.614 514.054,493.524 515.797,494.531 517.540,493.907 519.283,493.356 521.026,494.404 522.769,494.658 524.512,494.606 526.255,493.745 527.998,494.430 529.741,495.031 531.484,495.129 533.227,495.241 534.970,494.227 536.713,494.988 538.456,495.119 540.199,496.429 541.942,495.277 543.685,494.607 545.428,495.467 547.171,494.813 548.914,495.321 550.657,496.119 552.400,495.134 554.143,495.070 555.886,494.362 557.629,495.536 559.372,495.704 561.115,494.705 562.858,495.195 564.601,495.369 566.344,492.322 568.087,495.284 569.830,496.475 571.573,496.971 573.316,495.817 575.059,496.173 576.802,495.136 578.545,496.767 580.288,496.729 582.031,496.225 583.774,496.622 585.517,496.185 587.260,496.058 589.003,495.673 590.746,495.338 592.489,496.558 594.232,496.427 595.975,496.210 597.718,496.751 599.461,496.716 601.204,496.713 602.947,495.853 604.690,497.116 606.433,496.088 608.176,497.320 609.920,496.652 611.663,496.761 613.406,496.831 615.149,497.339 616.892,497.179 618.635,497.130 620.378,497.309 622.121,496.591 623.864,497.098 625.607,497.289 627.350,496.881 629.093,496.949 630.836,496.858 632.579,496.376 634.322,496.210 636.065,496.465 637.808,497.079 639.551,497.644 641.294,497.461 643.037,497.366 644.780,497.074 646.523,496.858 648.266,497.083 650.009,496.885 651.752,496.720 653.495,497.107 655.238,497.020 656.981,497.514 658.724,497.454 660.467,497.318 662.210,497.470 663.953,496.592 665.696,496.876 667.439,497.014 669.182,496.600 670.925,496.636 672.668,497.133 674.411,496.530 676.154,497.465 677.897,497.192 679.640,497.543 681.383,497.501 683.126,498.024 684.869,497.053 686.612,497.546 688.355,497.426 690.098,497.312 691.841,497.161 693.584,497.702 695.327,496.945 697.070,496.974 698.813,497.140 700.556,496.282 702.299,497.741 704.042,495.704 705.785,496.700 707.528,497.373 709.271,497.592 711.014,498.073 712.757,495.974 714.500,496.263 716.243,497.031 717.987,497.900 719.730,496.467 721.473,497.157 723.216,496.168 724.959,496.553 726.702,494.894 728.445,497.099 730.188,498.274 731.931,498.209 733.674,497.537 735.417,498.339 737.160,497.428 738.903,496.224 740.646,498.071 742.389,497.025 744.132,497.598 745.875,497.823 747.618,497.402 749.361,496.799 751.104,498.494 752.847,497.079 754.590,497.185 756.333,498.059 758.076,497.633 759.819,495.900 761.562,496.682 763.305,494.446 765.048,496.082 766.791,496.198 768.534,496.011 770.277,496.802 772.020,497.699 773.763,496.030 775.506,497.897 777.249,496.756 778.992,497.305 780.735,497.506 782.478,495.546 784.221,495.716 785.964,496.442 787.707,496.502 789.450,494.656 791.193,494.214 792.936,496.223 794.679,496.472 796.422,495.525 798.165,495.217 799.908,496.125 801.651,497.328 803.394,497.746 805.137,495.969 806.880,497.916 808.623,499.018 810.366,498.044 812.109,498.108 813.852,497.515 815.595,497.118 817.338,497.732 819.081,496.173 820.824,494.926 822.567,497.461 824.310,497.123 826.054,498.239 827.797,495.499 829.540,497.380 831.283,496.884 833.026,496.767 834.769,497.921 836.512,497.424 838.255,497.726 839.998,497.937 841.741,499.092 843.484,498.532 845.227,495.171 846.970,496.936 848.713,497.895 850.456,498.054 852.199,497.846 853.942,497.651 855.685,498.886 857.428,497.807 859.171,496.883 860.914,496.870 862.657,498.261 864.400,498.012 866.143,498.180 867.886,498.123 869.629,498.313 871.372,497.478 873.115,497.614 874.858,498.286 876.601,498.853 878.344,498.621 880.087,496.202 "/>
<g>
</g>
</g>
    </g>
    <g>
      <polyline fill="none" stroke="#262626" stroke-width="0.5pt" stroke-dasharray="none" points="127.104,502.461 127.104,498.131 "/>
      <polyline fill="none" stroke="#262626" stroke-width="0.5pt" stroke-dasharray="none" points="158.478,502.461 158.478,498.131 "/>
      <polyline fill="none" stroke="#262626" stroke-width="0.5pt" stroke-dasharray="none" points="189.853,502.461 189.853,498.131 "/>
      <polyline fill="none" stroke="#262626" stroke-width="0.5pt" stroke-dasharray="none" points="221.227,502.461 221.227,498.131 "/>
      <polyline fill="none" stroke="#262626" stroke-width="0.5pt" stroke-dasharray="none" points="252.601,502.461 252.601,498.131 "/>
      <polyline fill="none" stroke="#262626" stroke-width="0.5pt" stroke-dasharray="none" points="283.975,502.461 283.975,498.131 "/>
      <polyline fill="none" stroke="#262626" stroke-width="0.5pt" stroke-dasharray="none" points="315.350,502.461 315.350,498.131 "/>
      <polyline fill="none" stroke="#262626" stroke-width="0.5pt" stroke-dasharray="none" points="346.724,502.461 346.724,498.131 "/>
      <polyline fill="none" stroke="#262626" stroke-width="0.5pt" stroke-dasharray="none" points="378.098,502.461 378.098,498.131 "/>
      <polyline fill="none" stroke="#262626" stroke-width="0.5pt" stroke-dasharray="none" points="409.473,502.461 409.473,498.131 "/>
      <polyline fill="none" stroke="#262626" stroke-width="0.5pt" stroke-dasharray="none" points="121.875,502.461 435.618,502.461 "/>
  <g transform="translate(127.104,522.184)">
    <g transform="rotate(-0.0)">
      <text x="0.000" y="0.000" font-family="Helvetica" text-anchor="middle" font-size="9pt" fill="#262626" >1.2</text>
    </g>
  </g>
  <g transform="translate(158.478,522.184)">
    <g transform="rotate(-0.0)">
      <text x="0.000" y="0.000" font-family="Helvetica" text-anchor="middle" font-size="9pt" fill="#262626" >2.4</text>
    </g>
  </g>
  <g transform="translate(189.853,522.184)">
    <g transform="rotate(-0.0)">
      <text x="0.000" y="0.000" font-family="Helvetica" text-anchor="middle" font-size="9pt" fill="#262626" >3.6</text>
    </g>
  </g>
  <g transform="translate(221.227,522.184)">
    <g transform="rotate(-0.0)">
      <text x="0.000" y="0.000" font-family="Helvetica" text-anchor="middle" font-size="9pt" fill="#262626" >4.8</text>
    </g>
  </g>
  <g transform="translate(252.601,522.184)">
    <g transform="rotate(-0.0)">
      <text x="0.000" y="0.000" font-family="Helvetica" text-anchor="middle" font-size="9pt" fill="#262626" >6</text>
    </g>
  </g>
  <g transform="translate(283.975,522.184)">
    <g transform="rotate(-0.0)">
      <text x="0.000" y="0.000" font-family="Helvetica" text-anchor="middle" font-size="9pt" fill="#262626" >7.2</text>
    </g>
  </g>
  <g transform="translate(315.350,522.184)">
    <g transform="rotate(-0.0)">
      <text x="0.000" y="0.000" font-family="Helvetica" text-anchor="middle" font-size="9pt" fill="#262626" >8.4</text>
    </g>
  </g>
  <g transform="translate(346.724,522.184)">
    <g transform="rotate(-0.0)">
      <text x="0.000" y="0.000" font-family="Helvetica" text-anchor="middle" font-size="9pt" fill="#262626" >9.6</text>
    </g>
  </g>
  <g transform="translate(378.098,522.184)">
    <g transform="rotate(-0.0)">
      <text x="0.000" y="0.000" font-family="Helvetica" text-anchor="middle" font-size="9pt" fill="#262626" >10.8</text>
    </g>
  </g>
  <g transform="translate(409.473,522.184)">
    <g transform="rotate(-0.0)">
      <text x="0.000" y="0.000" font-family="Helvetica" text-anchor="middle" font-size="9pt" fill="#262626" >12</text>
    </g>
  </g>
      <polyline fill="none" stroke="#262626" stroke-width="0.5pt" stroke-dasharray="none" points="121.875,502.461 126.205,502.461 "/>
      <polyline fill="none" stroke="#262626" stroke-width="0.5pt" stroke-dasharray="none" points="121.875,459.157 126.205,459.157 "/>
      <polyline fill="none" stroke="#262626" stroke-width="0.5pt" stroke-dasharray="none" points="121.875,415.854 126.205,415.854 "/>
      <polyline fill="none" stroke="#262626" stroke-width="0.5pt" stroke-dasharray="none" points="121.875,372.550 126.205,372.550 "/>
      <polyline fill="none" stroke="#262626" stroke-width="0.5pt" stroke-dasharray="none" points="121.875,329.246 126.205,329.246 "/>
      <polyline fill="none" stroke="#262626" stroke-width="0.5pt" stroke-dasharray="none" points="121.875,285.943 126.205,285.943 "/>
      <polyline fill="none" stroke="#262626" stroke-width="0.5pt" stroke-dasharray="none" points="121.875,242.639 126.205,242.639 "/>
      <polyline fill="none" stroke="#262626" stroke-width="0.5pt" stroke-dasharray="none" points="121.875,199.335 126.205,199.335 "/>
      <polyline fill="none" stroke="#262626" stroke-width="0.5pt" stroke-dasharray="none" points="121.875,156.032 126.205,156.032 "/>
      <polyline fill="none" stroke="#262626" stroke-width="0.5pt" stroke-dasharray="none" points="121.875,112.728 126.205,112.728 "/>
      <polyline fill="none" stroke="#262626" stroke-width="0.5pt" stroke-dasharray="none" points="121.875,69.425 126.205,69.425 "/>
      <polyline fill="none" stroke="#262626" stroke-width="0.5pt" stroke-dasharray="none" points="121.875,502.461 121.875,69.425 "/>
  <g transform="translate(115.600,506.680)">
    <g transform="rotate(-0.0)">
      <text x="0.000" y="0.000" font-family="Helvetica" text-anchor="end" font-size="9pt" fill="#262626" >0</text>
    </g>
  </g>
  <g transform="translate(115.600,463.376)">
    <g transform="rotate(-0.0)">
      <text x="0.000" y="0.000" font-family="Helvetica" text-anchor="end" font-size="9pt" fill="#262626" >0.2</text>
    </g>
  </g>
  <g transform="translate(115.600,420.072)">
    <g transform="rotate(-0.0)">
      <text x="0.000" y="0.000" font-family="Helvetica" text-anchor="end" font-size="9pt" fill="#262626" >0.4</text>
    </g>
  </g>
  <g transform="translate(115.600,376.769)">
    <g transform="rotate(-0.0)">
      <text x="0.000" y="0.000" font-family="Helvetica" text-anchor="end" font-size="9pt" fill="#262626" >0.6</text>
    </g>
  </g>
  <g transform="translate(115.600,333.465)">
    <g transform="rotate(-0.0)">
      <text x="0.000" y="0.000" font-family="Helvetica" text-anchor="end" font-size="9pt" fill="#262626" >0.8</text>
    </g>
  </g>
  <g transform="translate(115.600,290.162)">
    <g transform="rotate(-0.0)">
      <text x="0.000" y="0.000" font-family="Helvetica" text-anchor="end" font-size="9pt" fill="#262626" >1</text>
    </g>
  </g>
  <g transform="translate(115.600,246.858)">
    <g transform="rotate(-0.0)">
      <text x="0.000" y="0.000" font-family="Helvetica" text-anchor="end" font-size="9pt" fill="#262626" >1.2</text>
    </g>
  </g>
  <g transform="translate(115.600,203.554)">
    <g transform="rotate(-0.0)">
      <text x="0.000" y="0.000" font-family="Helvetica" text-anchor="end" font-size="9pt" fill="#262626" >1.4</text>
    </g>
  </g>
  <g transform="translate(115.600,160.251)">
    <g transform="rotate(-0.0)">
      <text x="0.000" y="0.000" font-family="Helvetica" text-anchor="end" font-size="9pt" fill="#262626" >1.6</text>
    </g>
  </g>
  <g transform="translate(115.600,116.947)">
    <g transform="rotate(-0.0)">
      <text x="0.000" y="0.000" font-family="Helvetica" text-anchor="end" font-size="9pt" fill="#262626" >1.8</text>
    </g>
  </g>
  <g transform="translate(115.600,73.643)">
    <g transform="rotate(-0.0)">
      <text x="0.000" y="0.000" font-family="Helvetica" text-anchor="end" font-size="9pt" fill="#262626" >2</text>
    </g>
  </g>
      <polyline fill="none" stroke="#262626" stroke-width="0.5pt" stroke-dasharray="none" points="121.875,502.461 121.875,498.131 "/>
      <polyline fill="none" stroke="#262626" stroke-width="0.5pt" stroke-dasharray="none" points="121.875,502.461 121.875,498.131 "/>
      <polyline fill="none" stroke="#262626" stroke-width="0.5pt" stroke-dasharray="none" points="121.875,502.461 121.875,498.131 "/>
      <polyline fill="none" stroke="#262626" stroke-width="0.5pt" stroke-dasharray="none" points="121.875,502.461 121.875,502.461 "/>
    </g>
  </g>
  <g id ="ID000005">
  <clipPath id="ID000006">
    <rect x="0.000" y="-562.500" width="937.500" height="562.500"/>
  </clipPath>
    <g>
<g id="ID000007" >
  <g transform="translate(468.750,34.031)">
    <g transform="rotate(-0.0)">
      <text x="0.000" y="0.000" font-family="Helvetica" text-anchor="middle" font-size="13pt" fill="#000000" >Amplitude Spectrum</text>
    </g>
  </g>
</g>
    </g>
  </g>
  <g id ="ID000008">
  <clipPath id="ID000009">
    <rect x="534.695" y="69.425" width="313.743" height="433.037"/>
  </clipPath>
      <polygon fill="#ffffff" fill-opacity="1.00" stroke="none" stroke-width="0.5pt" stroke-opacity="1.00" stroke-dasharray="none" points="534.695,502.461 848.438,502.461 848.438,69.425 534.695,69.425 "/>
      <polygon fill="#ffffff" fill-opacity="1.00" stroke="none" stroke-width="0.5pt" stroke-opacity="1.00" stroke-dasharray="none" points="534.695,69.425 848.438,69.425 848.438,69.425 534.695,69.425 "/>
      <polygon fill="#ffffff" fill-opacity="1.00" stroke="none" stroke-width="0.5pt" stroke-opacity="1.00" stroke-dasharray="none" points="534.695,502.461 534.695,502.461 534.695,69.425 534.695,69.425 "/>
    <g>
<g id="ID000010" clip-path="url(#ID000009)" >
      <polyline fill="none" stroke="#5394ff" stroke-width="1.0pt" stroke-dasharray="none" points="508.549,-2201.944 510.292,-30896.200 512.035,-23214.440 513.778,-5974.039 515.521,-2916.640 517.264,-1385.705 519.007,-849.867 520.750,-321.210 522.493,-161.778 524.237,-146.060 525.980,23.391 527.723,87.156 529.466,99.591 531.209,205.456 532.952,151.754 534.695,191.592 536.438,244.041 538.181,242.295 539.924,158.723 541.667,261.004 543.410,285.554 545.153,286.487 546.896,316.398 548.639,333.111 550.382,372.598 552.125,366.351 553.868,364.494 555.611,373.438 557.354,373.119 559.097,362.645 560.840,384.173 562.583,393.441 564.326,385.010 566.069,406.684 567.812,394.471 569.555,391.217 571.298,309.613 573.041,397.782 574.784,404.564 576.527,399.644 578.270,402.283 580.013,411.585 581.756,413.777 583.499,415.519 585.242,432.138 586.985,428.872 588.728,429.452 590.471,428.808 592.214,433.229 593.957,432.549 595.700,442.275 597.443,440.740 599.186,440.468 600.929,429.267 602.672,405.585 604.415,434.530 606.158,437.649 607.901,441.983 609.644,443.735 611.387,443.629 613.130,449.015 614.873,447.710 616.616,449.291 618.359,455.917 620.102,452.930 621.845,454.383 623.588,459.150 625.331,456.023 627.074,459.583 628.817,458.312 630.560,458.126 632.304,454.391 634.047,439.022 635.790,457.790 637.533,463.909 639.276,461.466 641.019,458.469 642.762,440.225 644.505,453.100 646.248,462.669 647.991,462.210 649.734,465.494 651.477,466.356 653.220,465.658 654.963,462.883 656.706,467.957 658.449,467.188 660.192,465.243 661.935,467.074 663.678,436.749 665.421,255.960 667.164,455.990 668.907,467.652 670.650,470.043 672.393,466.719 674.136,467.419 675.879,470.514 677.622,470.248 679.365,470.463 681.108,472.532 682.851,472.391 684.594,467.342 686.337,473.067 688.080,471.251 689.823,471.846 691.566,469.839 693.309,468.259 695.052,470.302 696.795,460.412 698.538,468.109 700.281,468.888 702.024,470.538 703.767,468.074 705.510,470.672 707.253,468.181 708.996,464.194 710.739,464.692 712.482,469.529 714.225,472.317 715.968,470.673 717.711,468.403 719.454,470.314 721.197,471.596 722.940,470.687 724.683,468.918 726.426,468.046 728.169,453.476 729.912,463.243 731.655,465.670 733.398,469.276 735.141,471.491 736.884,469.538 738.627,468.516 740.371,471.945 742.114,469.085 743.857,470.062 745.600,464.226 747.343,466.107 749.086,468.160 750.829,467.474 752.572,461.635 754.315,467.595 756.058,466.506 757.801,462.897 759.544,450.116 761.287,462.094 763.030,458.132 764.773,454.702 766.516,451.653 768.259,457.329 770.002,459.191 771.745,453.840 773.488,452.784 775.231,455.333 776.974,458.644 778.717,453.462 780.460,452.221 782.203,453.311 783.946,463.501 785.689,466.250 787.432,463.035 789.175,460.891 790.918,459.927 792.661,458.381 794.404,464.871 796.147,458.462 797.890,463.551 799.633,464.166 801.376,466.860 803.119,475.462 804.862,474.185 806.605,476.331 808.348,476.040 810.091,475.101 811.834,478.620 813.577,478.588 815.320,477.169 817.063,480.085 818.806,478.109 820.549,474.270 822.292,447.051 824.035,477.814 825.778,478.940 827.521,479.615 829.264,481.322 831.007,480.541 832.750,479.811 834.493,480.722 836.236,481.643 837.979,483.641 839.722,482.507 841.465,482.742 843.208,484.209 844.951,484.327 846.694,485.835 848.438,484.765 850.181,484.811 851.924,486.035 853.667,482.999 855.410,487.249 857.153,486.097 858.896,486.353 860.639,487.229 862.382,484.982 864.125,486.845 865.868,485.053 867.611,486.477 869.354,486.915 871.097,487.966 872.840,487.003 874.583,488.235 876.326,487.861 878.069,487.550 879.812,487.369 881.555,487.468 883.298,487.857 885.041,489.383 886.784,489.454 888.527,487.941 890.270,489.556 892.013,488.995 893.756,488.709 895.499,489.156 897.242,489.886 898.985,490.239 900.728,489.039 902.471,488.931 904.214,490.003 905.957,489.866 907.700,489.819 909.443,490.014 911.186,488.983 912.929,489.194 914.672,489.909 916.415,489.685 918.158,490.686 919.901,489.992 921.644,491.187 923.387,490.858 925.130,489.731 926.873,491.483 928.616,492.138 930.359,490.585 932.102,490.916 933.845,492.005 935.588,491.600 937.331,491.133 939.074,490.365 940.817,489.341 942.560,490.541 944.303,491.249 946.046,491.433 947.789,491.456 949.532,492.752 951.275,492.458 953.018,491.687 954.761,492.490 956.504,491.194 958.248,491.768 959.991,490.588 961.734,492.675 963.477,491.900 965.220,492.533 966.963,492.876 968.706,491.948 970.449,491.388 972.192,491.358 973.935,493.436 975.678,493.880 977.421,493.584 979.164,488.383 980.907,491.609 982.650,492.928 984.393,492.545 986.136,492.895 987.879,492.214 989.622,493.237 991.365,493.235 993.108,493.332 994.851,493.839 996.594,493.866 998.337,493.037 1000.080,494.397 1001.823,494.426 1003.566,493.314 1005.309,493.747 1007.052,494.160 1008.795,494.088 1010.538,493.265 1012.281,494.172 1014.024,494.145 1015.767,493.482 1017.510,493.671 1019.253,494.298 1020.996,494.631 1022.739,494.529 1024.482,494.098 1026.225,494.676 1027.968,494.668 1029.711,494.438 1031.454,494.285 1033.197,495.086 1034.940,495.128 1036.683,494.082 1038.426,494.916 1040.169,495.065 1041.912,495.155 1043.655,495.137 1045.398,494.718 1047.141,494.208 1048.884,494.726 1050.627,494.154 1052.370,495.091 1054.113,495.446 1055.856,495.397 1057.599,494.120 1059.342,495.529 1061.085,495.791 1062.828,494.935 1064.571,494.803 1066.315,495.544 1068.058,494.985 1069.801,495.359 1071.544,495.347 1073.287,495.665 1075.030,495.200 1076.773,494.783 1078.516,495.628 1080.259,494.410 1082.002,495.187 1083.745,495.601 1085.488,495.516 1087.231,495.918 1088.974,496.159 1090.717,496.013 1092.460,495.162 1094.203,495.328 1095.946,496.167 1097.689,495.452 1099.432,495.604 1101.175,495.525 1102.918,496.285 1104.661,495.915 1106.404,495.819 1108.147,496.041 1109.890,495.355 1111.633,495.349 1113.376,495.628 1115.119,495.772 1116.862,495.966 1118.605,495.632 1120.348,495.910 1122.091,496.275 1123.834,496.993 1125.577,495.794 1127.320,495.883 1129.063,496.329 1130.806,496.576 1132.549,496.551 1134.292,496.430 1136.035,495.359 1137.778,496.002 1139.521,495.799 1141.264,496.884 1143.007,496.447 1144.750,496.594 1146.493,495.979 1148.236,496.274 1149.979,496.247 1151.722,495.523 1153.465,496.599 1155.208,496.017 1156.951,496.218 1158.694,497.052 1160.437,496.706 1162.180,496.751 1163.923,497.632 1165.666,497.207 1167.409,496.508 1169.152,497.298 1170.895,497.208 1172.638,496.780 1174.382,496.932 1176.125,496.807 1177.868,496.478 1179.611,496.405 1181.354,496.870 1183.097,497.085 1184.840,497.390 1186.583,497.130 1188.326,496.857 1190.069,496.335 1191.812,497.506 1193.555,497.222 1195.298,497.108 1197.041,496.868 1198.784,496.750 1200.527,497.516 1202.270,497.563 1204.013,496.993 1205.756,497.257 1207.499,497.923 1209.242,497.554 1210.985,497.606 1212.728,497.310 1214.471,497.425 1216.214,497.437 1217.957,497.154 1219.700,496.981 1221.443,497.776 1223.186,497.299 1224.929,498.374 1226.672,497.961 1228.415,497.403 1230.158,497.980 1231.901,497.974 1233.644,497.063 1235.387,497.740 1237.130,498.322 1238.873,498.265 1240.616,497.579 1242.359,498.083 1244.102,497.752 1245.845,497.591 1247.588,497.566 1249.331,498.023 1251.074,498.031 1252.817,497.857 1254.560,498.222 1256.303,498.387 1258.046,497.942 1259.789,497.904 1261.532,497.973 1263.275,497.223 1265.018,497.741 1266.761,497.912 1268.504,498.260 1270.247,497.982 1271.990,497.844 1273.733,497.799 1275.476,497.947 1277.219,497.798 1278.962,498.437 1280.705,498.223 1282.449,497.685 1284.192,498.088 1285.935,498.203 1287.678,497.871 1289.421,497.860 1291.164,498.060 1292.907,497.686 "/>
<g>
</g>
</g>
<g id="ID000011" clip-path="url(#ID000009)" >
      <polygon fill="#a6c7ff" fill-opacity="1.00" stroke="none" stroke-width="0.5pt" stroke-opacity="1.00" stroke-dasharray="none" points="508.549,-1524.585 510.292,-22590.092 512.035,-12000.177 513.778,-3348.454 515.521,-1466.328 517.264,-610.323 519.007,-330.997 520.750,-154.142 522.493,-64.490 524.237,-47.003 525.980,87.726 527.723,137.393 529.466,149.964 531.209,237.532 532.952,195.741 534.695,230.275 536.438,275.216 538.181,266.358 539.924,188.353 541.667,281.165 543.410,303.635 545.153,311.370 546.896,333.948 548.639,354.992 550.382,385.035 552.125,380.874 553.868,377.516 555.611,385.466 557.354,386.001 559.097,380.416 560.840,395.199 562.583,403.882 564.326,399.854 566.069,415.059 567.812,405.478 569.555,401.781 571.298,331.421 573.041,407.257 574.784,414.474 576.527,410.386 578.270,410.369 580.013,419.003 581.756,421.174 583.499,423.349 585.242,437.087 586.985,434.700 588.728,436.451 590.471,436.426 592.214,439.914 593.957,438.705 595.700,446.501 597.443,446.153 599.186,445.623 600.929,438.235 602.672,415.636 604.415,440.251 606.158,442.093 607.901,446.565 609.644,448.923 611.387,448.535 613.130,454.003 614.873,452.880 616.616,453.513 618.359,460.230 620.102,456.997 621.845,459.723 623.588,462.497 625.331,460.043 627.074,463.435 628.817,462.016 630.560,461.754 632.304,458.568 634.047,445.615 635.790,462.406 637.533,467.012 639.276,465.290 641.019,463.763 642.762,457.791 644.505,462.305 646.248,466.753 647.991,466.446 649.734,469.038 651.477,470.713 653.220,469.338 654.963,467.613 656.706,471.722 658.449,470.559 660.192,469.040 661.935,470.542 663.678,445.294 665.421,297.037 667.164,460.715 668.907,472.309 670.650,473.765 672.393,471.794 674.136,471.993 675.879,473.801 677.622,474.642 679.365,473.596 681.108,475.529 682.851,475.587 684.594,473.147 686.337,476.632 688.080,476.379 689.823,475.805 691.566,474.043 693.309,472.305 695.052,473.229 696.795,465.718 698.538,472.353 700.281,473.060 702.024,474.108 703.767,472.306 705.510,474.113 707.253,476.727 708.996,472.182 710.739,475.108 712.482,474.186 714.225,477.141 715.968,475.187 717.711,473.053 719.454,475.394 721.197,475.401 722.940,475.767 724.683,474.765 726.426,472.603 728.169,460.743 729.912,471.065 731.655,471.589 733.398,473.058 735.141,475.568 736.884,474.338 738.627,473.156 740.371,476.298 742.114,474.257 743.857,474.708 745.600,470.414 747.343,471.713 749.086,472.886 750.829,472.624 752.572,468.476 754.315,471.723 756.058,470.973 757.801,469.402 759.544,459.213 761.287,468.471 763.030,465.053 764.773,462.850 766.516,461.800 768.259,462.936 770.002,465.148 771.745,460.686 773.488,467.393 775.231,469.553 776.974,466.694 778.717,462.912 780.460,465.062 782.203,466.494 783.946,470.375 785.689,471.999 787.432,471.492 789.175,469.912 790.918,465.912 792.661,468.113 794.404,471.368 796.147,470.435 797.890,471.768 799.633,472.182 801.376,473.418 803.119,480.067 804.862,478.956 806.605,480.194 808.348,480.140 810.091,479.678 811.834,481.995 813.577,481.770 815.320,480.213 817.063,482.829 818.806,481.587 820.549,478.554 822.292,457.357 824.035,480.695 825.778,482.669 827.521,482.460 829.264,483.907 831.007,484.267 832.750,483.324 834.493,483.609 836.236,484.299 837.979,486.512 839.722,487.234 841.465,485.576 843.208,487.219 844.951,486.413 846.694,487.800 848.438,487.259 850.181,487.067 851.924,487.840 853.667,486.242 855.410,488.869 857.153,488.057 858.896,488.874 860.639,489.158 862.382,487.213 864.125,488.558 865.868,488.265 867.611,489.042 869.354,488.745 871.097,489.526 872.840,488.749 874.583,490.275 876.326,489.674 878.069,489.287 879.812,489.324 881.555,489.664 883.298,490.199 885.041,490.752 886.784,491.040 888.527,489.749 890.270,491.589 892.013,490.612 893.756,491.291 895.499,490.879 897.242,491.409 898.985,491.513 900.728,490.538 902.471,490.789 904.214,491.530 905.957,491.398 907.700,491.426 909.443,491.824 911.186,490.888 912.929,490.771 914.672,491.504 916.415,491.362 918.158,491.890 919.901,491.400 921.644,492.586 923.387,492.425 925.130,491.891 926.873,492.711 928.616,493.083 930.359,491.990 932.102,492.391 933.845,493.285 935.588,492.977 937.331,492.416 939.074,492.613 940.817,492.580 942.560,493.348 944.303,493.115 946.046,492.989 947.789,492.415 949.532,493.767 951.275,493.697 953.018,493.229 954.761,494.029 956.504,493.298 958.248,493.499 959.991,492.141 961.734,494.376 963.477,493.258 965.220,494.222 966.963,494.238 968.706,493.578 970.449,494.328 972.192,493.892 973.935,494.841 975.678,494.810 977.421,494.388 979.164,490.421 980.907,493.174 982.650,493.819 984.393,493.802 986.136,494.721 987.879,493.619 989.622,494.259 991.365,494.443 993.108,494.283 994.851,494.838 996.594,494.747 998.337,494.385 1000.080,495.264 1001.823,495.501 1003.566,495.054 1005.309,495.094 1007.052,495.491 1008.795,495.596 1010.538,494.433 1012.281,495.038 1014.024,495.018 1015.767,495.038 1017.510,494.629 1019.253,495.339 1020.996,495.576 1022.739,495.730 1024.482,495.172 1026.225,495.648 1027.968,495.765 1029.711,495.334 1031.454,495.195 1033.197,495.859 1034.940,495.934 1036.683,494.889 1038.426,495.707 1040.169,495.778 1041.912,495.876 1043.655,495.897 1045.398,495.717 1047.141,495.579 1048.884,495.634 1050.627,495.393 1052.370,496.016 1054.113,496.120 1055.856,496.163 1057.599,495.427 1059.342,496.612 1061.085,496.756 1062.828,496.178 1064.571,495.902 1066.315,496.481 1068.058,495.716 1069.801,495.981 1071.544,496.104 1073.287,496.332 1075.030,496.261 1076.773,495.970 1078.516,496.418 1080.259,495.636 1082.002,496.145 1083.745,496.166 1085.488,496.411 1087.231,496.684 1088.974,496.850 1090.717,496.806 1092.460,496.508 1094.203,496.082 1095.946,496.764 1097.689,496.211 1099.432,496.380 1101.175,496.611 1102.918,496.926 1104.661,496.634 1106.404,496.597 1108.147,496.983 1109.890,496.239 1111.633,496.370 1113.376,496.476 1115.119,496.608 1116.862,496.694 1118.605,496.566 1120.348,496.816 1122.091,497.102 1123.834,497.800 1125.577,496.685 1127.320,496.904 1129.063,497.238 1130.806,497.160 1132.549,497.181 1134.292,497.318 1136.035,496.426 1137.778,496.895 1139.521,496.590 1141.264,497.645 1143.007,497.405 1144.750,497.343 1146.493,496.700 1148.236,497.084 1149.979,497.084 1151.722,496.640 1153.465,497.301 1155.208,496.884 1156.951,497.300 1158.694,497.786 1160.437,497.312 1162.180,497.468 1163.923,498.240 1165.666,497.878 1167.409,497.363 1169.152,497.808 1170.895,497.844 1172.638,497.475 1174.382,497.546 1176.125,497.573 1177.868,497.276 1179.611,497.264 1181.354,497.613 1183.097,497.759 1184.840,498.035 1186.583,497.804 1188.326,497.646 1190.069,497.124 1191.812,498.152 1193.555,497.922 1195.298,497.891 1197.041,497.881 1198.784,497.918 1200.527,498.264 1202.270,498.243 1204.013,497.862 1205.756,497.892 1207.499,498.510 1209.242,498.199 1210.985,498.382 1212.728,498.001 1214.471,498.129 1216.214,498.149 1217.957,497.825 1219.700,497.683 1221.443,498.382 1223.186,498.014 1224.929,498.873 1226.672,498.455 1228.415,498.088 1230.158,498.577 1231.901,498.678 1233.644,498.126 1235.387,498.420 1237.130,498.838 1238.873,498.800 1240.616,498.299 1242.359,498.622 1244.102,498.510 1245.845,498.355 1247.588,498.327 1249.331,498.739 1251.074,498.621 1252.817,498.628 1254.560,498.814 1256.303,498.946 1258.046,498.548 1259.789,498.538 1261.532,498.429 1263.275,498.041 1265.018,498.393 1266.761,498.606 1268.504,498.764 1270.247,498.522 1271.990,498.551 1273.733,498.474 1275.476,498.557 1277.219,498.469 1278.962,498.845 1280.705,498.680 1282.449,498.398 1284.192,498.763 1285.935,498.914 1287.678,499.017 1289.421,498.647 1291.164,498.650 1292.907,498.291 1292.907,497.080 1291.164,497.469 1289.421,497.073 1287.678,496.725 1285.935,497.492 1284.192,497.414 1282.449,496.973 1280.705,497.765 1278.962,498.029 1277.219,497.127 1275.476,497.338 1273.733,497.123 1271.990,497.137 1270.247,497.443 1268.504,497.756 1266.761,497.218 1265.018,497.089 1263.275,496.404 1261.532,497.518 1259.789,497.270 1258.046,497.336 1256.303,497.828 1254.560,497.630 1252.817,497.086 1251.074,497.441 1249.331,497.306 1247.588,496.806 1245.845,496.826 1244.102,496.994 1242.359,497.544 1240.616,496.859 1238.873,497.730 1237.130,497.805 1235.387,497.060 1233.644,496.000 1231.901,497.270 1230.158,497.383 1228.415,496.718 1226.672,497.468 1224.929,497.876 1223.186,496.583 1221.443,497.169 1219.700,496.278 1217.957,496.483 1216.214,496.725 1214.471,496.720 1212.728,496.619 1210.985,496.831 1209.242,496.909 1207.499,497.336 1205.756,496.622 1204.013,496.125 1202.270,496.883 1200.527,496.768 1198.784,495.583 1197.041,495.855 1195.298,496.326 1193.555,496.522 1191.812,496.860 1190.069,495.547 1188.326,496.068 1186.583,496.455 1184.840,496.745 1183.097,496.410 1181.354,496.127 1179.611,495.545 1177.868,495.679 1176.125,496.041 1174.382,496.317 1172.638,496.085 1170.895,496.572 1169.152,496.787 1167.409,495.653 1165.666,496.536 1163.923,497.025 1162.180,496.035 1160.437,496.100 1158.694,496.318 1156.951,495.136 1155.208,495.149 1153.465,495.897 1151.722,494.406 1149.979,495.411 1148.236,495.465 1146.493,495.259 1144.750,495.845 1143.007,495.488 1141.264,496.123 1139.521,495.008 1137.778,495.110 1136.035,494.291 1134.292,495.543 1132.549,495.921 1130.806,495.992 1129.063,495.420 1127.320,494.862 1125.577,494.902 1123.834,496.187 1122.091,495.449 1120.348,495.004 1118.605,494.697 1116.862,495.239 1115.119,494.936 1113.376,494.780 1111.633,494.329 1109.890,494.471 1108.147,495.099 1106.404,495.041 1104.661,495.195 1102.918,495.645 1101.175,494.439 1099.432,494.828 1097.689,494.694 1095.946,495.570 1094.203,494.575 1092.460,493.816 1090.717,495.220 1088.974,495.468 1087.231,495.151 1085.488,494.621 1083.745,495.035 1082.002,494.229 1080.259,493.185 1078.516,494.838 1076.773,493.596 1075.030,494.138 1073.287,494.998 1071.544,494.591 1069.801,494.737 1068.058,494.254 1066.315,494.607 1064.571,493.704 1062.828,493.692 1061.085,494.826 1059.342,494.446 1057.599,492.813 1055.856,494.631 1054.113,494.771 1052.370,494.167 1050.627,492.914 1048.884,493.818 1047.141,492.838 1045.398,493.718 1043.655,494.376 1041.912,494.433 1040.169,494.353 1038.426,494.126 1036.683,493.275 1034.940,494.322 1033.197,494.313 1031.454,493.376 1029.711,493.543 1027.968,493.571 1026.225,493.704 1024.482,493.025 1022.739,493.327 1020.996,493.686 1019.253,493.257 1017.510,492.712 1015.767,491.926 1014.024,493.271 1012.281,493.305 1010.538,492.098 1008.795,492.580 1007.052,492.829 1005.309,492.400 1003.566,491.574 1001.823,493.352 1000.080,493.531 998.337,491.688 996.594,492.986 994.851,492.841 993.108,492.381 991.365,492.026 989.622,492.216 987.879,490.808 986.136,491.068 984.393,491.287 982.650,492.038 980.907,490.043 979.164,486.346 977.421,492.781 975.678,492.949 973.935,492.032 972.192,488.823 970.449,488.447 968.706,490.318 966.963,491.515 965.220,490.844 963.477,490.542 961.734,490.975 959.991,489.035 958.248,490.036 956.504,489.090 954.761,490.952 953.018,490.146 951.275,491.219 949.532,491.737 947.789,490.497 946.046,489.876 944.303,489.382 942.560,487.735 940.817,486.102 939.074,488.117 937.331,489.851 935.588,490.223 933.845,490.725 932.102,489.440 930.359,489.180 928.616,491.194 926.873,490.255 925.130,487.570 923.387,489.291 921.644,489.787 919.901,488.583 918.158,489.482 916.415,488.009 914.672,488.314 912.929,487.617 911.186,487.077 909.443,488.203 907.700,488.212 905.957,488.333 904.214,488.476 902.471,487.074 900.728,487.540 898.985,488.965 897.242,488.364 895.499,487.433 893.756,486.127 892.013,487.378 890.270,487.524 888.527,486.134 886.784,487.867 885.041,488.013 883.298,485.515 881.555,485.272 879.812,485.414 878.069,485.813 876.326,486.048 874.583,486.196 872.840,485.256 871.097,486.406 869.354,485.084 867.611,483.911 865.868,481.841 864.125,485.132 862.382,482.752 860.639,485.301 858.896,483.832 857.153,484.136 855.410,485.629 853.667,479.756 851.924,484.230 850.181,482.555 848.438,482.271 846.694,483.870 844.951,482.242 843.208,481.200 841.465,479.907 839.722,477.780 837.979,480.769 836.236,478.986 834.493,477.834 832.750,476.297 831.007,476.816 829.264,478.738 827.521,476.771 825.778,475.212 824.035,474.934 822.292,436.745 820.549,469.987 818.806,474.631 817.063,477.341 815.320,474.124 813.577,475.407 811.834,475.244 810.091,470.524 808.348,471.940 806.605,472.468 804.862,469.415 803.119,470.857 801.376,460.303 799.633,456.149 797.890,455.333 796.147,446.490 794.404,458.374 792.661,448.649 790.918,453.943 789.175,451.871 787.432,454.578 785.689,460.500 783.946,456.627 782.203,440.129 780.460,439.381 778.717,444.012 776.974,450.595 775.231,441.113 773.488,438.174 771.745,446.993 770.002,453.234 768.259,451.722 766.516,441.506 764.773,446.554 763.030,451.210 761.287,455.717 759.544,441.019 757.801,456.392 756.058,462.039 754.315,463.466 752.572,454.794 750.829,462.325 749.086,463.434 747.343,460.502 745.600,458.037 743.857,465.416 742.114,463.912 740.371,467.592 738.627,463.876 736.884,464.738 735.141,467.414 733.398,465.495 731.655,459.751 729.912,455.420 728.169,446.210 726.426,463.488 724.683,463.071 722.940,465.607 721.197,467.790 719.454,465.233 717.711,463.753 715.968,466.160 714.225,467.493 712.482,464.872 710.739,454.276 708.996,456.206 707.253,459.635 705.510,467.231 703.767,463.843 702.024,466.969 700.281,464.716 698.538,463.865 696.795,455.105 695.052,467.374 693.309,464.213 691.566,465.635 689.823,467.886 688.080,466.124 686.337,469.503 684.594,461.538 682.851,469.196 681.108,469.536 679.365,467.329 677.622,465.855 675.879,467.228 674.136,462.845 672.393,461.645 670.650,466.320 668.907,462.996 667.164,451.264 665.421,214.883 663.678,428.203 661.935,463.606 660.192,461.445 658.449,463.817 656.706,464.193 654.963,458.153 653.220,461.979 651.477,461.999 649.734,461.951 647.991,457.975 646.248,458.585 644.505,443.894 642.762,422.660 641.019,453.175 639.276,457.641 637.533,460.806 635.790,453.174 634.047,432.429 632.304,450.214 630.560,454.499 628.817,454.607 627.074,455.732 625.331,452.003 623.588,455.802 621.845,449.044 620.102,448.863 618.359,451.604 616.616,445.069 614.873,442.541 613.130,444.026 611.387,438.722 609.644,438.547 607.901,437.401 606.158,433.206 604.415,428.808 602.672,395.534 600.929,420.299 599.186,435.313 597.443,435.326 595.700,438.049 593.957,426.393 592.214,426.543 590.471,421.190 588.728,422.453 586.985,423.043 585.242,427.189 583.499,407.688 581.756,406.381 580.013,404.168 578.270,394.197 576.527,388.903 574.784,394.655 573.041,388.307 571.298,287.805 569.555,380.654 567.812,383.464 566.069,398.310 564.326,370.165 562.583,382.999 560.840,373.147 559.097,344.874 557.354,360.238 555.611,361.410 553.868,351.473 552.125,351.829 550.382,360.160 548.639,311.229 546.896,298.849 545.153,261.604 543.410,267.473 541.667,240.843 539.924,129.093 538.181,218.232 536.438,212.865 534.695,152.909 532.952,107.766 531.209,173.380 529.466,49.217 527.723,36.919 525.980,-40.945 524.237,-245.117 522.493,-259.066 520.750,-488.278 519.007,-1368.737 517.264,-2161.087 515.521,-4366.951 513.778,-8599.623 512.035,-34428.703 510.292,-39202.307 508.549,-2879.304 "/>
</g>
<g id="ID000012" clip-path="url(#ID000009)" >
      <polyline fill="none" stroke="#5394ff" stroke-width="1.0pt" stroke-dasharray="none" points="508.549,-2201.944 510.292,-30896.200 512.035,-23214.440 513.778,-5974.039 515.521,-2916.640 517.264,-1385.705 519.007,-849.867 520.750,-321.210 522.493,-161.778 524.237,-146.060 525.980,23.391 527.723,87.156 529.466,99.591 531.209,205.456 532.952,151.754 534.695,191.592 536.438,244.041 538.181,242.295 539.924,158.723 541.667,261.004 543.410,285.554 545.153,286.487 546.896,316.398 548.639,333.111 550.382,372.598 552.125,366.351 553.868,364.494 555.611,373.438 557.354,373.119 559.097,362.645 560.840,384.173 562.583,393.441 564.326,385.010 566.069,406.684 567.812,394.471 569.555,391.217 571.298,309.613 573.041,397.782 574.784,404.564 576.527,399.644 578.270,402.283 580.013,411.585 581.756,413.777 583.499,415.519 585.242,432.138 586.985,428.872 588.728,429.452 590.471,428.808 592.214,433.229 593.957,432.549 595.700,442.275 597.443,440.740 599.186,440.468 600.929,429.267 602.672,405.585 604.415,434.530 606.158,437.649 607.901,441.983 609.644,443.735 611.387,443.629 613.130,449.015 614.873,447.710 616.616,449.291 618.359,455.917 620.102,452.930 621.845,454.383 623.588,459.150 625.331,456.023 627.074,459.583 628.817,458.312 630.560,458.126 632.304,454.391 634.047,439.022 635.790,457.790 637.533,463.909 639.276,461.466 641.019,458.469 642.762,440.225 644.505,453.100 646.248,462.669 647.991,462.210 649.734,465.494 651.477,466.356 653.220,465.658 654.963,462.883 656.706,467.957 658.449,467.188 660.192,465.243 661.935,467.074 663.678,436.749 665.421,255.960 667.164,455.990 668.907,467.652 670.650,470.043 672.393,466.719 674.136,467.419 675.879,470.514 677.622,470.248 679.365,470.463 681.108,472.532 682.851,472.391 684.594,467.342 686.337,473.067 688.080,471.251 689.823,471.846 691.566,469.839 693.309,468.259 695.052,470.302 696.795,460.412 698.538,468.109 700.281,468.888 702.024,470.538 703.767,468.074 705.510,470.672 707.253,468.181 708.996,464.194 710.739,464.692 712.482,469.529 714.225,472.317 715.968,470.673 717.711,468.403 719.454,470.314 721.197,471.596 722.940,470.687 724.683,468.918 726.426,468.046 728.169,453.476 729.912,463.243 731.655,465.670 733.398,469.276 735.141,471.491 736.884,469.538 738.627,468.516 740.371,471.945 742.114,469.085 743.857,470.062 745.600,464.226 747.343,466.107 749.086,468.160 750.829,467.474 752.572,461.635 754.315,467.595 756.058,466.506 757.801,462.897 759.544,450.116 761.287,462.094 763.030,458.132 764.773,454.702 766.516,451.653 768.259,457.329 770.002,459.191 771.745,453.840 773.488,452.784 775.231,455.333 776.974,458.644 778.717,453.462 780.460,452.221 782.203,453.311 783.946,463.501 785.689,466.250 787.432,463.035 789.175,460.891 790.918,459.927 792.661,458.381 794.404,464.871 796.147,458.462 797.890,463.551 799.633,464.166 801.376,466.860 803.119,475.462 804.862,474.185 806.605,476.331 808.348,476.040 810.091,475.101 811.834,478.620 813.577,478.588 815.320,477.169 817.063,480.085 818.806,478.109 820.549,474.270 822.292,447.051 824.035,477.814 825.778,478.940 827.521,479.615 829.264,481.322 831.007,480.541 832.750,479.811 834.493,480.722 836.236,481.643 837.979,483.641 839.722,482.507 841.465,482.742 843.208,484.209 844.951,484.327 846.694,485.835 848.438,484.765 850.181,484.811 851.924,486.035 853.667,482.999 855.410,487.249 857.153,486.097 858.896,486.353 860.639,487.229 862.382,484.982 864.125,486.845 865.868,485.053 867.611,486.477 869.354,486.915 871.097,487.966 872.840,487.003 874.583,488.235 876.326,487.861 878.069,487.550 879.812,487.369 881.555,487.468 883.298,487.857 885.041,489.383 886.784,489.454 888.527,487.941 890.270,489.556 892.013,488.995 893.756,488.709 895.499,489.156 897.242,489.886 898.985,490.239 900.728,489.039 902.471,488.931 904.214,490.003 905.957,489.866 907.700,489.819 909.443,490.014 911.186,488.983 912.929,489.194 914.672,489.909 916.415,489.685 918.158,490.686 919.901,489.992 921.644,491.187 923.387,490.858 925.130,489.731 926.873,491.483 928.616,492.138 930.359,490.585 932.102,490.916 933.845,492.005 935.588,491.600 937.331,491.133 939.074,490.365 940.817,489.341 942.560,490.541 944.303,491.249 946.046,491.433 947.789,491.456 949.532,492.752 951.275,492.458 953.018,491.687 954.761,492.490 956.504,491.194 958.248,491.768 959.991,490.588 961.734,492.675 963.477,491.900 965.220,492.533 966.963,492.876 968.706,491.948 970.449,491.388 972.192,491.358 973.935,493.436 975.678,493.880 977.421,493.584 979.164,488.383 980.907,491.609 982.650,492.928 984.393,492.545 986.136,492.895 987.879,492.214 989.622,493.237 991.365,493.235 993.108,493.332 994.851,493.839 996.594,493.866 998.337,493.037 1000.080,494.397 1001.823,494.426 1003.566,493.314 1005.309,493.747 1007.052,494.160 1008.795,494.088 1010.538,493.265 1012.281,494.172 1014.024,494.145 1015.767,493.482 1017.510,493.671 1019.253,494.298 1020.996,494.631 1022.739,494.529 1024.482,494.098 1026.225,494.676 1027.968,494.668 1029.711,494.438 1031.454,494.285 1033.197,495.086 1034.940,495.128 1036.683,494.082 1038.426,494.916 1040.169,495.065 1041.912,495.155 1043.655,495.137 1045.398,494.718 1047.141,494.208 1048.884,494.726 1050.627,494.154 1052.370,495.091 1054.113,495.446 1055.856,495.397 1057.599,494.120 1059.342,495.529 1061.085,495.791 1062.828,494.935 1064.571,494.803 1066.315,495.544 1068.058,494.985 1069.801,495.359 1071.544,495.347 1073.287,495.665 1075.030,495.200 1076.773,494.783 1078.516,495.628 1080.259,494.410 1082.002,495.187 1083.745,495.601 1085.488,495.516 1087.231,495.918 1088.974,496.159 1090.717,496.013 1092.460,495.162 1094.203,495.328 1095.946,496.167 1097.689,495.452 1099.432,495.604 1101.175,495.525 1102.918,496.285 1104.661,495.915 1106.404,495.819 1108.147,496.041 1109.890,495.355 1111.633,495.349 1113.376,495.628 1115.119,495.772 1116.862,495.966 1118.605,495.632 1120.348,495.910 1122.091,496.275 1123.834,496.993 1125.577,495.794 1127.320,495.883 1129.063,496.329 1130.806,496.576 1132.549,496.551 1134.292,496.430 1136.035,495.359 1137.778,496.002 1139.521,495.799 1141.264,496.884 1143.007,496.447 1144.750,496.594 1146.493,495.979 1148.236,496.274 1149.979,496.247 1151.722,495.523 1153.465,496.599 1155.208,496.017 1156.951,496.218 1158.694,497.052 1160.437,496.706 1162.180,496.751 1163.923,497.632 1165.666,497.207 1167.409,496.508 1169.152,497.298 1170.895,497.208 1172.638,496.780 1174.382,496.932 1176.125,496.807 1177.868,496.478 1179.611,496.405 1181.354,496.870 1183.097,497.085 1184.840,497.390 1186.583,497.130 1188.326,496.857 1190.069,496.335 1191.812,497.506 1193.555,497.222 1195.298,497.108 1197.041,496.868 1198.784,496.750 1200.527,497.516 1202.270,497.563 1204.013,496.993 1205.756,497.257 1207.499,497.923 1209.242,497.554 1210.985,497.606 1212.728,497.310 1214.471,497.425 1216.214,497.437 1217.957,497.154 1219.700,496.981 1221.443,497.776 1223.186,497.299 1224.929,498.374 1226.672,497.961 1228.415,497.403 1230.158,497.980 1231.901,497.974 1233.644,497.063 1235.387,497.740 1237.130,498.322 1238.873,498.265 1240.616,497.579 1242.359,498.083 1244.102,497.752 1245.845,497.591 1247.588,497.566 1249.331,498.023 1251.074,498.031 1252.817,497.857 1254.560,498.222 1256.303,498.387 1258.046,497.942 1259.789,497.904 1261.532,497.973 1263.275,497.223 1265.018,497.741 1266.761,497.912 1268.504,498.260 1270.247,497.982 1271.990,497.844 1273.733,497.799 1275.476,497.947 1277.219,497.798 1278.962,498.437 1280.705,498.223 1282.449,497.685 1284.192,498.088 1285.935,498.203 1287.678,497.871 1289.421,497.860 1291.164,498.060 1292.907,497.686 "/>
<g>
</g>
</g>
    </g>
    <g>
      <polyline fill="none" stroke="#262626" stroke-width="0.5pt" stroke-dasharray="none" points="539.924,502.461 539.924,498.131 "/>
      <polyline fill="none" stroke="#262626" stroke-width="0.5pt" stroke-dasharray="none" points="571.298,502.461 571.298,498.131 "/>
      <polyline fill="none" stroke="#262626" stroke-width="0.5pt" stroke-dasharray="none" points="602.672,502.461 602.672,498.131 "/>
      <polyline fill="none" stroke="#262626" stroke-width="0.5pt" stroke-dasharray="none" points="634.047,502.461 634.047,498.131 "/>
      <polyline fill="none" stroke="#262626" stroke-width="0.5pt" stroke-dasharray="none" points="665.421,502.461 665.421,498.131 "/>
      <polyline fill="none" stroke="#262626" stroke-width="0.5pt" stroke-dasharray="none" points="696.795,502.461 696.795,498.131 "/>
      <polyline fill="none" stroke="#262626" stroke-width="0.5pt" stroke-dasharray="none" points="728.169,502.461 728.169,498.131 "/>
      <polyline fill="none" stroke="#262626" stroke-width="0.5pt" stroke-dasharray="none" points="759.544,502.461 759.544,498.131 "/>
      <polyline fill="none" stroke="#262626" stroke-width="0.5pt" stroke-dasharray="none" points="790.918,502.461 790.918,498.131 "/>
      <polyline fill="none" stroke="#262626" stroke-width="0.5pt" stroke-dasharray="none" points="822.292,502.461 822.292,498.131 "/>
      <polyline fill="none" stroke="#262626" stroke-width="0.5pt" stroke-dasharray="none" points="534.695,502.461 848.438,502.461 "/>
  <g transform="translate(539.924,522.184)">
    <g transform="rotate(-0.0)">
      <text x="0.000" y="0.000" font-family="Helvetica" text-anchor="middle" font-size="9pt" fill="#262626" >1.2</text>
    </g>
  </g>
  <g transform="translate(571.298,522.184)">
    <g transform="rotate(-0.0)">
      <text x="0.000" y="0.000" font-family="Helvetica" text-anchor="middle" font-size="9pt" fill="#262626" >2.4</text>
    </g>
  </g>
  <g transform="translate(602.672,522.184)">
    <g transform="rotate(-0.0)">
      <text x="0.000" y="0.000" font-family="Helvetica" text-anchor="middle" font-size="9pt" fill="#262626" >3.6</text>
    </g>
  </g>
  <g transform="translate(634.047,522.184)">
    <g transform="rotate(-0.0)">
      <text x="0.000" y="0.000" font-family="Helvetica" text-anchor="middle" font-size="9pt" fill="#262626" >4.8</text>
    </g>
  </g>
  <g transform="translate(665.421,522.184)">
    <g transform="rotate(-0.0)">
      <text x="0.000" y="0.000" font-family="Helvetica" text-anchor="middle" font-size="9pt" fill="#262626" >6</text>
    </g>
  </g>
  <g transform="translate(696.795,522.184)">
    <g transform="rotate(-0.0)">
      <text x="0.000" y="0.000" font-family="Helvetica" text-anchor="middle" font-size="9pt" fill="#262626" >7.2</text>
    </g>
  </g>
  <g transform="translate(728.169,522.184)">
    <g transform="rotate(-0.0)">
      <text x="0.000" y="0.000" font-family="Helvetica" text-anchor="middle" font-size="9pt" fill="#262626" >8.4</text>
    </g>
  </g>
  <g transform="translate(759.544,522.184)">
    <g transform="rotate(-0.0)">
      <text x="0.000" y="0.000" font-family="Helvetica" text-anchor="middle" font-size="9pt" fill="#262626" >9.6</text>
    </g>
  </g>
  <g transform="translate(790.918,522.184)">
    <g transform="rotate(-0.0)">
      <text x="0.000" y="0.000" font-family="Helvetica" text-anchor="middle" font-size="9pt" fill="#262626" >10.8</text>
    </g>
  </g>
  <g transform="translate(822.292,522.184)">
    <g transform="rotate(-0.0)">
      <text x="0.000" y="0.000" font-family="Helvetica" text-anchor="middle" font-size="9pt" fill="#262626" >12</text>
    </g>
  </g>
      <polyline fill="none" stroke="#262626" stroke-width="0.5pt" stroke-dasharray="none" points="534.695,502.461 539.025,502.461 "/>
      <polyline fill="none" stroke="#262626" stroke-width="0.5pt" stroke-dasharray="none" points="534.695,440.599 539.025,440.599 "/>
      <polyline fill="none" stroke="#262626" stroke-width="0.5pt" stroke-dasharray="none" points="534.695,378.736 539.025,378.736 "/>
      <polyline fill="none" stroke="#262626" stroke-width="0.5pt" stroke-dasharray="none" points="534.695,316.874 539.025,316.874 "/>
      <polyline fill="none" stroke="#262626" stroke-width="0.5pt" stroke-dasharray="none" points="534.695,255.012 539.025,255.012 "/>
      <polyline fill="none" stroke="#262626" stroke-width="0.5pt" stroke-dasharray="none" points="534.695,193.149 539.025,193.149 "/>
      <polyline fill="none" stroke="#262626" stroke-width="0.5pt" stroke-dasharray="none" points="534.695,131.287 539.025,131.287 "/>
      <polyline fill="none" stroke="#262626" stroke-width="0.5pt" stroke-dasharray="none" points="534.695,69.425 539.025,69.425 "/>
      <polyline fill="none" stroke="#262626" stroke-width="0.5pt" stroke-dasharray="none" points="534.695,502.461 534.695,69.425 "/>
  <g transform="translate(528.420,506.680)">
    <g transform="rotate(-0.0)">
      <text x="0.000" y="0.000" font-family="Helvetica" text-anchor="end" font-size="9pt" fill="#262626" >0</text>
    </g>
  </g>
  <g transform="translate(528.420,444.817)">
    <g transform="rotate(-0.0)">
      <text x="0.000" y="0.000" font-family="Helvetica" text-anchor="end" font-size="9pt" fill="#262626" >0.2</text>
    </g>
  </g>
  <g transform="translate(528.420,382.955)">
    <g transform="rotate(-0.0)">
      <text x="0.000" y="0.000" font-family="Helvetica" text-anchor="end" font-size="9pt" fill="#262626" >0.4</text>
    </g>
  </g>
  <g transform="translate(528.420,321.093)">
    <g transform="rotate(-0.0)">
      <text x="0.000" y="0.000" font-family="Helvetica" text-anchor="end" font-size="9pt" fill="#262626" >0.6</text>
    </g>
  </g>
  <g transform="translate(528.420,259.230)">
    <g transform="rotate(-0.0)">
      <text x="0.000" y="0.000" font-family="Helvetica" text-anchor="end" font-size="9pt" fill="#262626" >0.8</text>
    </g>
  </g>
  <g transform="translate(528.420,197.368)">
    <g transform="rotate(-0.0)">
      <text x="0.000" y="0.000" font-family="Helvetica" text-anchor="end" font-size="9pt" fill="#262626" >1</text>
    </g>
  </g>
  <g transform="translate(528.420,135.506)">
    <g transform="rotate(-0.0)">
      <text x="0.000" y="0.000" font-family="Helvetica" text-anchor="end" font-size="9pt" fill="#262626" >1.2</text>
    </g>
  </g>
  <g transform="translate(528.420,73.643)">
    <g transform="rotate(-0.0)">
      <text x="0.000" y="0.000" font-family="Helvetica" text-anchor="end" font-size="9pt" fill="#262626" >1.4</text>
    </g>
  </g>
      <polyline fill="none" stroke="#262626" stroke-width="0.5pt" stroke-dasharray="none" points="534.695,502.461 534.695,498.131 "/>
      <polyline fill="none" stroke="#262626" stroke-width="0.5pt" stroke-dasharray="none" points="534.695,502.461 534.695,498.131 "/>
      <polyline fill="none" stroke="#262626" stroke-width="0.5pt" stroke-dasharray="none" points="534.695,502.461 534.695,498.131 "/>
      <polyline fill="none" stroke="#262626" stroke-width="0.5pt" stroke-dasharray="none" points="534.695,502.461 534.695,502.461 "/>
    </g>
  </g>
  </g>
</svg>
